<svg xmlns="http://www.w3.org/2000/svg" xmlns:xlink="http://www.w3.org/1999/xlink" width="1920" height="530">
  <defs>
    <path id="a" d="M.473.067v528.498c319.506-67.57 561.632-134.437 1062.956-39.941 260.382 49.08 496.835-65.444 722.745-39.023 45.204 5.286 89.94 17.468 134.299 39.485V.067H.473z"/>
  </defs>
  <clipPath id="b">
    <use xlink:href="#a" overflow="visible"/>
  </clipPath>
  <path clip-path="url(#b)" fill="#2C1E5E" d="M.473.067v491.306c319.506-67.57 560.51-65.979 1061.834 28.516 260.382 49.08 497.957-96.709 723.867-70.288 45.204 5.286 89.94 17.468 134.299 39.485V.067H.473z"/>
  <path clip-path="url(#b)" fill="#2C1E5E" d="M.473.067v528.498c319.506-67.57 560.51-103.172 1061.834-8.677 260.382 49.08 497.957-96.709 723.867-70.288 45.204 5.286 89.94 17.468 134.299 39.485V.067H.473z"/>
  <path opacity=".3" clip-path="url(#b)" fill="#5140AE" d="M1597.889 115.382c-21.886.16-67.744 4.08-110.172-22.176-16.125-9.98-111.436-73.425-206.965-10.915-59.219 34.278-120.713 36.637-142.062 36.499-285.666-1.845-245.436 327.384-165.939 398.907 83.764 75.363 231.857 137.873 415.211 127.305 53.612-3.089 389.147 11.02 413.831-312.453 7.578-99.322-66.244-218.167-203.904-217.167z"/>
  <path clip-path="url(#b)" fill="#4225AB" d="M1572.414 132.072c-20.124.146-62.293 3.752-101.308-20.392-14.827-9.177-106.455-67.146-194.298-9.667-54.454 31.521-111.011 32.903-130.632 33.562-131.618 4.425-200.972 105.93-193.68 200.918 9.94 129.485 72.701 277.919 398.522 221.167 48.648-8.474 411.499 84.506 411.487-245.906-.002-71.605-63.507-180.602-190.091-179.682z"/>
  <path opacity=".4" clip-path="url(#b)" fill="#B8CBFF" d="M1490.49 273.808c24.104 3.822 46.377 8.628 66.297 14.253v-94.012c-19.92-5.624-42.193-10.43-66.297-14.251v94.01zM1204.73 182.152v94.007c15.759-2.832 32.384-5.237 49.738-7.153v-94.005c-17.353 1.915-33.979 4.319-49.738 7.151zM1308.773 264.75c14.936-.715 30.227-1.088 45.793-1.088 26.684 0 52.562 1.089 77.218 3.133v-94.004c-24.658-2.044-50.534-3.137-77.218-3.137-15.566 0-30.857.372-45.793 1.087v94.009zM1196.207 183.737c-14.595 2.825-28.382 6.027-41.216 9.567v94.011c12.834-3.541 26.621-6.744 41.216-9.57v-94.008zM1089.363 312.855c2.889-1.63 5.929-3.229 9.104-4.798v-94.021c-30.268 14.955-47.817 32.736-47.817 51.815-.001 17.074 14.07 33.104 38.713 47.004z"/>
  <ellipse opacity=".1" clip-path="url(#b)" fill="#FFF" cx="1351.019" cy="412.632" rx="276.028" ry="228.378"/>
  <path opacity=".1" clip-path="url(#b)" fill="#FFF" d="M1175.729 412.632c0 80.097 78.479 145.028 175.29 145.028 96.81 0 175.289-64.932 175.289-145.028 0-80.101-78.479-145.032-175.289-145.032-96.812 0-175.29 64.931-175.29 145.032z"/>
  <g clip-path="url(#b)">
    <defs>
      <path id="c" d="M1572.414 132.072c-20.124.146-62.293 3.752-101.308-20.392-14.827-9.177-106.455-67.146-194.298-9.667-54.454 31.521-111.011 32.903-130.632 33.562-131.618 4.425-200.972 105.93-193.68 200.918 9.94 129.485 72.701 277.919 398.522 221.167 48.648-8.474 411.499 84.506 411.487-245.906-.002-71.605-63.507-180.602-190.091-179.682z"/>
    </defs>
    <clipPath id="d">
      <use xlink:href="#c" overflow="visible"/>
    </clipPath>
    <ellipse opacity=".2" clip-path="url(#d)" fill="#FFF" cx="1351.018" cy="544.467" rx="686.765" ry="143.491"/>
  </g>
  <path opacity=".4" clip-path="url(#b)" fill="#2C1E5E" d="M1146.933 454.227c10.793 3.618 27.947.454 39.599-.034 12.566-.526 44.377 1.864 41.404 5.334-1.093 1.275-2.664 3.504-3.899 4.552 3.876 1.914 11.353 1.132 13.878 4.8 4.254 6.178-7.453 7.268-13.124 7.883-10.962 1.189-22.837 1.671-33.736 2.131-7.464.314-15.869.654-23.319.036-5.545-.46-14.889-.468-19.896-2.817 6.13-12.125-19.975-2.906-23.474-11.019-3.21-7.441 23.474-10.847 28.731-10.865"/>
  <path clip-path="url(#b)" fill="#5DB2BF" d="M1137.193 451.408l-.443 1.06-5.462 2.785s-7.78 4.821-10.227 5.639c-1.854.619-4.812 3.181-4.071 5.187.536 1.452 3.132 2.21 5.882 2.527 2.709.315 7.314.139 9.868-1.254 2.556-1.395 7.583-2.043 9.516-2.022 1.938.023 6.573.016 7.301-1.631 1.601-3.622.228-11.562.228-11.562l-12.592-.729z"/>
  <path clip-path="url(#b)" fill="#5DB2BF" d="M1157.421 455.731l-.443 1.06-4.434 4.181s-5.197 5.608-6.443 6.363c-1.67 1.015-4.404 4.078-4.73 6.606-.198 1.536.176 3.387 2.937 3.589 1.958.144 5.709.019 10.439-1.795 2.719-1.042 5.833-4.763 8.074-5.627 1.808-.697 7.104-2.037 7.402-3.812.682-4.046-.887-9.875-.887-9.875l-11.915-.69z"/>
  <path clip-path="url(#b)" fill="#321C80" d="M1150.585 452.102s-7.773 3.12-13.392-.693c-1.638-29.219-2.355-57.022-2.613-80.334-.433-39.209-3.597-36.995-.723-62.908 0 0 20.195-8.124 24.46-4.109 2.633 26.766-7.732 148.044-7.732 148.044z"/>
  <path clip-path="url(#b)" fill="#321C80" d="M1172.051 455.731s-9.598 4.188-15.4.662c-8.249-77.286-9.505-144.926-9.505-144.926s18.729-7.097 23.19-3.302c5.811 11.51 5.495 22.835 4.156 35.931-.96 9.398-3.325 24.705-3.452 36.649-.424 39.62 1.011 74.986 1.011 74.986z"/>
  <path opacity=".4" clip-path="url(#b)" fill="#1A1A1A" d="M1144.229 453.294c3.498-.055 6.356-1.192 6.356-1.192s2.551-16.747 2.381-36.451c-.209-24.27-3.146-52.185-2.211-77.219.048-4.071.048-4.499-.515-6.962.225 7.361-5.175-4.879-3.913 1.499 1.672 8.453-.425 27.079.292 35.672 1.454 17.428-1.316 34.019-.457 50.969.508 10.01.379 19.456-1.01 29.247-.168 1.183-.545 2.747-.923 4.437z"/>
  <path opacity=".6" clip-path="url(#b)" fill="#B8CBFF" d="M1158.845 454.638c-.646-3.068-.99-5.703-.99-8.864 0-12.334-.792-24.694-3.059-36.637-.993-5.233-.626-10.649-.901-16.152-.282-5.644-1.888-11.197-2.159-16.798-.642-13.221.78-19.898-.524-33.107-.869-8.805.079-15.203-.879-15.144.234 7.021-1.931 51.172 6.318 128.458.942.572 1.989.926 3.074 1.143-.385-1.127-.719-2.135-.88-2.899zM1134.58 371.074c.258 23.312.976 51.115 2.613 80.334.65.441 1.332.781 2.024 1.053.469-1.349.448-2.988.373-4.561-.267-5.61-.507-11.9-1.353-17.592-1.934-13.016 1.428-25.608 0-38.584-1.407-12.79-.708-25.084-.018-37.873.344-6.354-.94-11.808-2.633-17.667-1.49-5.159-.412-11.008-.412-16.502 0-2.952.486-5.93.338-8.796-.074-1.436-.386-2.374-.925-3.006-.463.178-.731.285-.731.285-2.873 25.914.291 23.7.724 62.909z"/>
  <path clip-path="url(#b)" fill="#B6B3E0" d="M1129.324 228.547c-2.271 5.347-3.306 8.875-5.125 16.869-1.969 8.651-2.712 21.372-2.712 21.372s4.896 7.817 11.162 5.252c4.702-3.208 12.487-34.178 12.368-40.321-.191-9.904-11.756-12.451-15.693-3.172z"/>
  <path opacity=".4" clip-path="url(#b)" fill="#1A1A1A" d="M1174.492 344.097c1.339-13.096 1.654-24.421-4.156-35.931-3.021-2.57-12.58-.146-18.44 1.688 3.147.042 6.283.104 9.184.643 7.648 1.419 8.395 7.691 8.748 14.915.352 7.194.577 15.217-1.467 21.743-2.357 7.527.3 14.102-1.289 21.943-.723 3.569-1.074 7.102-.885 10.921.187 3.762 1.632 6.169 2.299 9.533 1.59 8.021-2.856 14.858-3.662 22.333-.839 7.772.669 15.974 2.842 23.095 2.317 7.594.892 14.566.016 22.155 2.542-.606 4.37-1.403 4.37-1.403s-1.435-35.366-1.011-74.985c.126-11.945 2.491-27.252 3.451-36.65z"/>
  <path clip-path="url(#b)" fill="#FFF" d="M1123.027 263.159c-4.823 3.237-15.139 12.456-20.589 18.581-3.604 4.05-13.529 12.335-13.529 12.335s-6.59.039-7.896.57c-.458.186-3.511 2.134-4.474 2.823-1.143 1.834-1.646 2.93-2.284 4.208.203.341.861.068.7.259-.518.609-1.083 1.186-1.751 2.116-1.173 1.635 1.456 4.267 2.672 5.732.424.512 3.404 2.395 4.557 2.269 1.776-.196 7.129-3.701 8.449-6.26.491-.952 3.697-4.111 3.94-4.322.149-.128 3.999-1.794 6.183-3.045 3.834-1.714 9.611-5.408 15.389-9.636 8.275-6.056 15.592-11.891 18.168-15.885 4.861-7.536-1.166-15.364-9.535-9.745z"/>
  <path clip-path="url(#b)" fill="#B6B3E0" d="M1123.027 263.159c-4.823 3.237-15.139 12.456-20.589 18.581-2.79 3.135-9.364 8.805-12.193 11.208 1.153 2.062 2.768 5.119 4.155 7.782 1.502-.706 3.406-1.618 4.604-2.305 3.834-1.714 9.611-5.408 15.389-9.636 8.275-6.056 15.592-11.891 18.168-15.885 4.862-7.536-1.165-15.364-9.534-9.745z"/>
  <path clip-path="url(#b)" fill="#211747" d="M1140.218 222.175c-.588-3.154-1.684-6.529-3.113-9.245-2.094-3.978-7.677-8.479-11.788-10.094-1.027-.404-3.299-1.139-3.154.333 0 0-5.646-.877-1.988 10.513.497 1.548-1.029 2.716-.579 4.557.54 2.208 2.35 3.299 3.324 5.168 1.815 3.479-1.027 6.826-.525 10.495.364 2.663 1.867 3.369 3.044 5.475 1.225 2.195 1.482 4.852 3.036 7.054.801-1.843 1.63-4.905 3.188-6.259 2.603-2.262 5.939-1.306 7.984-5.184 1.99-3.773 1.316-8.814.571-12.813z"/>
  <path clip-path="url(#b)" fill="#FFF" d="M1134.779 230.854c-.586-1.885 3.419-6.825 1.396-8.015-.479.659-5.911 7.615-6.374 8.425-2.854 4.995-3.783 6.157-5.603 14.151-1.412 6.207-2.194 14.509-2.523 18.704-5.198 3.831-14.249 12.015-19.237 17.62-2.79 3.135-9.364 8.805-12.193 11.208-.204.695-.672.209.076 1.584.169-.217.928-.858 1.141-1.08 1.719-1.794 4.688-3.66 5.988-4.423 3.9-2.287 4.89-3.667 7.991-7.373 3.381-4.041 6.193-7.354 10.746-10.2 4.667-2.919 7.378-4.686 7.892-10.564.622-7.125 2.14-14.906 5.872-21.275 1.389-2.371 5.779-5.706 4.828-8.762z"/>
  <path opacity=".5" clip-path="url(#b)" fill="#321C80" d="M1132.562 272.905c2.454-3.805 2.131-7.68.136-9.866-.012.029-.022.06-.035.089-.834 1.95-1.543 4.119-2.932 5.675-1.54 1.726-3.862 2.37-5.393 4.111-1.187 1.35-1.995 3.105-3.164 4.445-2.643 3.028-6.096 5.536-9.297 7.817-3.133 2.232-5.035 4.476-7.615 7.27-2.945 3.189-7.002 3.434-10.034 6.052-.249.216-.463.432-.655.648.281.536.56 1.068.828 1.584 1.502-.706 3.406-1.618 4.604-2.305 3.834-1.714 9.611-5.408 15.389-9.636 8.275-6.055 15.591-11.89 18.168-15.884z"/>
  <path clip-path="url(#b)" fill="#5DB2BF" d="M1136.176 222.84c3.812-4.931 14.301-4.954 20.163-2.836 4.752 1.718 8.98 11.042 10.617 15.822 2.745 8.018 1.828 24.64 2.087 38.57.094 5.099 3.066 19.283 3.008 23.88-.152 12.037-1.715 9.89-1.715 9.89s-36.71 7.43-36.479 0c.703-22.508-1.428-37.475-3.908-46.002-2.614-8.994-6.587-13.326-3.932-20.818 2.885-8.14 5.901-12.997 10.159-18.506z"/>
  <path opacity=".2" clip-path="url(#b)" fill="#1A1A1A" d="M1172.051 298.276c.059-4.597-2.914-18.781-3.008-23.88-.259-13.931.658-30.553-2.087-38.57-.651-1.902-1.718-4.522-3.059-7.098-1.356.619-3.633.715-3.62 3.635 0 0-1.859 16.87-2.422 19.122-3.092 12.378-14.862 10.354-11.696 13.275 11.511 2.021 15.172 13.216 13.892 23.172-.953 7.412-4.632 9.686-2.408 17.457.518 1.808 2.378 3.124 4.405 4.237 4.807-.757 8.288-1.461 8.288-1.461s1.562 2.148 1.715-9.889z"/>
  <path opacity=".5" clip-path="url(#b)" fill="#FFF" d="M1140.958 270.067c.856-1.445-5.38 2.662-5.79 1.137-.336-1.25-1.748-4.017-1.943-5.353-.44-3.007.787-4.015-.371-6.77-2.356-5.607-5.973-8.307-4.409-15.115 1.547-6.737 7.064-10.564 7.433-17.942.048-.961.063-1.913.043-2.85-4.122 5.372-7.076 10.197-9.902 18.171-2.655 7.492 1.317 11.824 3.932 20.818 2.48 8.527 4.611 23.494 3.908 46.002-.05 1.606 1.632 2.516 4.291 2.958-1.034-4.949-.908-6.982-1.034-11.987-.118-4.714 4.567-12.408 4.171-17.056-.327-3.837-4.171 2.541-4.171-1.092-.002-6.121 3.488-10.322 3.842-10.921z"/>
  <g opacity=".3" clip-path="url(#b)" fill="#FFF">
    <path d="M1142.849 256.69c-4.062-.547-9.079-5.274-5.734 1.76 3.321 6.985 15.859-.612 16.692-4.398-2.787 1.18-7.22 3.141-10.958 2.638zM1155.789 249.145c.001.004 0 .008 0 .012.021-.009.043-.017.067-.026l-.067.014z"/>
  </g>
  <path clip-path="url(#b)" fill="#B6B3E0" d="M1141.604 206.134l9.562 13.512s.844 5.614-4.781 8.708-10.779 2.748-11.951 0c-.567-1.33 1.507-4.715 1.742-5.514.586-1.994-3.291-6.018-4.697-6.861s10.125-9.845 10.125-9.845z"/>
  <path clip-path="url(#b)" fill="#FFF" d="M1131.479 215.979c1.406.844 5.283 4.867 4.697 6.861-.235.799-2.31 4.184-1.742 5.514.386.904 1.208 1.542 2.33 1.889.105-2.162 1.053-3.826 1.365-5.865.863-5.646-3.812-11.613-3.812-11.613-.105-.075-.225-.127-.336-.191-1.776 1.669-3.022 3.093-2.502 3.405z"/>
  <path clip-path="url(#b)" fill="#FFF" d="M1141.604 206.013s-1.395 2.682-3.58 7.711c-1.516 3.486-5.734 7.415-5.734 7.415s-1.854 1.089-2.653.971c-2.811-.411-5.922-5.677-7.724-7.875-3.195-3.9-1.601-6.666-3.739-9.471-4.866-6.379-4.367-11.628-1.096-13.684 3.014-1.894 14.521-6.555 15.158-6.428.637.126 9.368 21.361 9.368 21.361zM1178.479 261.92c-1.336 5.653-3.344 17.481-3.176 25.679.109 5.42-2.164 19.952-2.164 19.952s-5.006 3.476-5.604 4.753c-.209.447-1.336 2.155-1.572 3.314-.081 3.172.538 7.394 2.27 7.074 1.274-.235 1.044-4.79 1.617-4.694.55.091 1.142 1.811 2.387 3.369 1.587 1.99-.46 6.238 2.025 6.565.658.087 5.06-1.696 5.818-2.572 1.17-1.352 3.027-7.577 2.256-10.351-.286-1.032-1.607-3.659-1.572-3.979.022-.195 1.986-4.751 2.736-7.153 1.646-3.862 8.326-33.018 7.258-41.528-1.117-8.899-9.963-10.239-12.279-.429z"/>
  <path clip-path="url(#b)" fill="#B6B3E0" d="M1172.907 304.545c4.139.23 7.933 2.505 9.523 4.515.641-1.581 1.758-4.692 2.203-6.117 1.646-3.862 7.192-32.083 6.124-40.594-1.117-8.898-9.963-10.238-12.279-.429-1.336 5.653-3.344 17.481-3.176 25.679.079 3.869-1.738 12.391-2.395 16.946z"/>
  <g opacity=".4" clip-path="url(#b)" fill="#B6B3E0">
    <path d="M1092.966 301.393c-.045.015-.092.038-.144.078.014-.012.07-.041.144-.078z"/>
    <path d="M1093.572 299.146c-.379.236-3.616 2.188-4.578 2.386-4.918 1.013-4.505-2.152-7.342-2.197-1.998.697-2.539-.153-3.197.287-.361.242-1.025 1.044-1.318 1.363-.201.218-.285.295-.543.47-.408.275-1.232.377-1.615.428.004.012-.002.028-.023.053-.518.609-1.083 1.186-1.751 2.116-1.173 1.635 1.456 4.267 2.672 5.732.424.512 3.062 2.643 4.215 2.517 1.776-.196 7.471-3.949 8.791-6.508.491-.952 3.697-4.111 3.94-4.322.744-.305 1.231-.587 1.578-.74-.075-.204-.505-.989-.829-1.585z"/>
  </g>
  <path clip-path="url(#b)" fill="#B6B3E0" d="M1141.604 206.013s-8.73-21.234-9.368-21.36c-.539-.107-8.853 3.21-13.228 5.382.161 2.495-1.112 6.352-.067 8.437.567 1.132 2.521 2.54 2.547 3.821.023 1.174-.105 3.354 0 4.603.114 1.357 1.079 4.057 1.932 4.965.905.962 2.933 5.368 5.567 7.83.59.552 1.5 1.291 2.418 1.91.494-.234.885-.461.885-.461s4.219-3.929 5.734-7.415c2.185-5.031 3.58-7.712 3.58-7.712zM1155.489 229.719c.731 2.027 1.02 6.113 2.437 8.717 2.399 4.411 5.451 9.352 8.03 13.816 4.438 7.684 12.521 13.141 12.521 13.141s8.905 2.402 11.756-3.738c1.268-5.55-17.588-34.306-22.091-38.486-8.552-7.941-16.074-2.932-12.653 6.55z"/>
  <path clip-path="url(#b)" fill="#B6B3E0" d="M1190.758 262.349c-.123-.984-.346-1.87-.64-2.665-1.819-8.439-17.867-32.701-21.976-36.516-8.553-7.94-16.074-2.931-12.653 6.551.731 2.027 1.02 6.113 2.437 8.717 2.399 4.411 5.451 9.352 8.03 13.816 3.688 6.386 9.88 11.222 11.871 12.677-1.249 6.194-2.667 15.728-2.524 22.67.078 3.869-1.738 12.392-2.396 16.946 4.139.23 7.933 2.505 9.523 4.515.641-1.581 1.758-4.692 2.203-6.117 1.647-3.863 7.193-32.084 6.125-40.594z"/>
  <path opacity=".5" clip-path="url(#b)" fill="#FFF" d="M1167.109 248.337c-8.131-11.006-7.485-22.04-6.654-28.688-5 .073-6.595 3.46-4.253 9.95.86 2.385.741 7.098 2.493 10.229 2.26 4.041 4.949 8.424 7.261 12.424 3.688 6.386 9.88 11.222 11.871 12.677-1.249 6.195-2.667 15.728-2.524 22.67.078 3.869-1.738 12.392-2.396 16.946 1.209.067 2.38.323 3.483.682 1.272-5.074 2.043-13.393 2.023-18.673-.021-5.92 1.157-13.566 2.23-18.219 1.788-7.745-7.82-12.263-13.534-19.998z"/>
  <path clip-path="url(#b)" fill="#211747" d="M1179.854 223.368c-3.911-2.449-7.794.553-7.804-11.077-.003-3.191-1.01-12.109-6.907-14.513-5.402-2.201-1.593-.697-7.766-2.958-2.928-1.072-2.843-6.399-4.252-9.429-1.03-2.216-4.306-2.848-5.916-4.899-6.748-8.597-14.462-7.209-19.597-5.084-2.917 1.207-2.947 2.27-5.066 4.082-1.847 1.579-3.115 1.662-5.194 1.955-3.816.538-8.228 1.266-7.257 7.532.337 2.177 2.074 4.938 4.531 5.617 1.489.412 3.927-.422 7.338-3.037 3.892-3.115 7.814-.906 7.594 3.953-.126 2.784 1.801 3.755 6.185 5.522 3.411 1.375 2.186 8.17 4.461 11.288 1.938 2.655 3.229 2.811 6.188 4.578 6.365 3.804 2.087 8.372 2.827 14.617 1.221 9.974 8.703 12.047 8.703 12.047s-1.438-7.954-1.181-8.019c1.546 4.281 3.624 7.206 3.624 7.206s-8.068-23.056 3.797-21.582c6.737.837 14.585 17.046 15.389 17.825 2.698-4.396 4.976-12.697.303-15.624z"/>
  <path opacity=".6" clip-path="url(#b)" fill="#B8CBFF" d="M1127.613 175.408c-2.917 1.207-2.947 2.27-5.066 4.082-1.847 1.579-3.115 1.662-5.194 1.955-3.816.538-8.228 1.266-7.257 7.532.337 2.177 2.074 4.938 4.531 5.617.954.264 2.303.008 4.042-.892-2.854-1.465-5.126-5.943-1.722-7.233-.01-.07-.008-.454.005-.525-2.372-.021-1.789-1.787-.167-2.556 1.442-.683 3.311-.453 4.739-1.013 3.024-1.185 2.987-5.088 5.9-6.852.114-.069.259-.137.404-.203-.07.031-.144.059-.215.088z"/>
  <path opacity=".4" clip-path="url(#b)" fill="#B8CBFF" d="M1142.249 201.105c-1.366 2.214-2.4 8.536 5.124 10.054.009.002.015.001.023.003-4.704-2.332-5.54-6.984-5.147-10.057zM1136.719 195.49c-3.078-4.941-1.799-8.334-1.799-8.334-.978.394-1.667 2.025-1.667 3.353-.041.312-.604-.827-.365-2.258-2.425 1.843-1.744 5.233.492 6.967-.633-1.496-.396-1.977-.423-2.613.838 1.222 2.273 2.493 3.762 2.885z"/>
  <path opacity=".7" clip-path="url(#b)" fill="#B8CBFF" d="M1447.058 376.634c23.466-2.371 45.693-5.617 66.297-9.621v-60.944c-20.604 4.006-42.829 7.256-66.297 9.627v60.938z"/>
  <path opacity=".4" clip-path="url(#b)" fill="#B8CBFF" d="M1449.09 268.415c9.123.945 18.06 2.02 26.779 3.223v-28.669c-8.721-1.203-17.656-2.278-26.779-3.223v28.669z"/>
  <g clip-path="url(#b)" fill="#B8CBFF">
    <path d="M1050.649 265.503v.349c0-.116.013-.232.014-.349h-.014zM1097.787 317.311c-2.686-1.339-5.271-2.699-7.75-4.082-.25-.15-.478-.279-.674-.373-24.644-13.9-38.714-29.931-38.714-47.004v94.008c0 19.079 17.55 36.861 47.817 51.817V317.56c-.237-.079-.45-.167-.679-.249z"/>
  </g>
  <g clip-path="url(#b)">
    <path fill="#B6B3E0" d="M1279.254 177.362s-3.883 1.562-5.186 1.27c-.769-.173-2.444-1.982-2.444-1.982s-2.913-4.073-5.007-8.179c-1.071-2.102-1.094-5.198-1.677-6.394-3.982-8.164-4.209-9.649.604-15.282 1.387-1.622 4.463-3.977 7.243-4.514 2.778-.537 6.569-1.731 13.009 2.472 6.439 4.201 8.028 22.651 8.028 22.651l5.796 10.935-16.444 3.651-3.922-4.628z"/>
    <path opacity=".5" fill="#321C80" d="M1293.825 167.404s-1.272-14.729-6.138-20.86c-3.096.634-5.907 1.861-7.819 3.754-2.842 2.812-3.345 6.266-3.526 10.022-.124 2.564.273 5.005-.735 7.197l-.301.061c.081.021.151.055.231.077-.14.285-.297.567-.49.844.488-.127.854-.344 1.201-.608 2.054.692 3.787 1.766 5.701 3.058 2.809 1.896 4.04.709 6.836 1.461 3.229.868 3.574 4.136 4.241 7.395l6.595-1.465-5.796-10.936z"/>
    <path fill="#211747" d="M1294.294 162.651c3.347-1.461 2.548-7.079.002-7.843 3.213-2.183 1.144-6.252-1.565-6.978-2.039-.546.166-2.758-.842-4.787-1.476-2.975-4.997-1.114-4.993-2.725.012-4.501-2.947-4.46-5.69-3.319-3.349 1.495-4.535-.735-5.912-.736-5.217-.003-4.314 3.41-6.475 3.069-3.115-.489-7.163.68-5.625 5.305-1.71.188-2.823.594-3.502 2.25-.458 1.113-.917 3.356.766 3.573-2.737 1.11-.402 5.035 1.27 4.358 1.096-.443 1.218-1.029 2.166-.289.524.409.867 1.422.838 2.726-.037 1.648.619 1.157 1.953 2.685 2.002 2.293 2.716 3.139 3.393 2.241.22-1.169-.35-3.833 1.776-3.634.847.079 1.578 2.352 1.819 2.945 1.645 4.042.349 5.224.16 5.269.711 1.54 2.428 3.805 6.095 2.884 2.517 2.912 6.803 1.74 7.854-.182 2.824 1.233 4.509 1.193 5.945-.189 1.818-1.75 1.8-4.314.567-6.623z"/>
    <path opacity=".6" fill="#B8CBFF" d="M1283.177 181.99l.168-.037c-.417-1.911-1.536-3.714-2.845-5.196-1.674-1.896-2.473.471-4.223.8-1.84.346-3.038-1.442-4.066-2.688-2.051-2.484-4.116-5.059-4.633-8.285-.491-3.074-1.757-5.289-3.234-8.052-.792-1.481-.199-3.234-1.011-4.581-1.011-1.679-.547-2.762.892-4.031-.459-.669-.399-1.36-.186-2.103.225-.782.572-1.381 1.26-1.835.617-.407 1.983-.622 2.08-1.553.035-.339-.426-.534-.422-1.035.004-.37.266-.727.442-1.038.486-.857.702-1.199 1.631-1.343 2.047-.316 3.267-.175 3.626-2.586.148-1.002.433-1.575.9-2.006-3.294.664-2.858 3.209-4.738 2.912-3.115-.489-7.163.68-5.625 5.305-1.71.188-2.823.594-3.502 2.25-.458 1.113-.917 3.356.766 3.573-2.737 1.11-.402 5.035 1.27 4.358.116-.047.216-.096.312-.145.283 1.846 1.271 4.062 2.901 7.402.583 1.195.605 4.292 1.677 6.394 2.094 4.105 5.007 8.179 5.007 8.179s1.676 1.81 2.444 1.982c1.303.292 5.186-1.27 5.186-1.27l3.923 4.629z"/>
    <path fill="#B6B3E0" d="M1265.419 231.004c-4.471 3.708-9.674 10.15-14.478 16.795-3.177 4.393-13.96 17.68-13.96 17.68s-6.09-.24-7.336.419c-.437.231-2.365.916-3.252 1.699-1.975 2.482-4.023 6.226-2.449 7.014 1.159.58 3.719-3.195 4.119-2.773.384.403-.18 2.133-.125 4.127.068 2.545-4.124 4.703-2.338 6.461.474.466 5.062 1.693 6.194 1.451 1.748-.374 6.98-4.226 8.035-6.903.394-.997.921-3.89 1.143-4.124.135-.143 4.446-2.597 6.492-4.062 3.641-2.091 9.015-6.351 14.336-11.141 7.621-6.86 14.312-13.405 16.47-17.639 4.076-7.99-5.092-15.44-12.851-9.004z"/>
    <path fill="#7F71C1" d="M1285.293 263.793l1.255 62.044 6 63.898h14.5l-1.613-63.898 3.719-35.203 2.758-.441 1.387 35.645 13.25 63.898h14.5l-9.525-63.898s2.833-41.462 2.35-52.099c-.294-6.474-2.988-13.739-8.324-17.503-8.188-5.775-40.257 7.557-40.257 7.557z"/>
    <path fill="gray" d="M1302.523 188.579c2.207 5.373 5.956 12.714 10.867 19.28 3.245 4.342 10.48 14.404 10.48 14.404s6.107 6.613 11.154 2.852c1.682-1.254 4.787-3.599 4.428-7.85 1.025-5.6-19.294-33.255-23.745-37.488-7.177-6.825-17.013-.521-13.184 8.802z"/>
    <path fill="#321C80" d="M1302.523 188.579c2.207 5.373 5.956 12.714 10.867 19.28 3.245 4.342 10.48 14.404 10.48 14.404s6.107 6.613 11.154 2.852c1.682-1.254 4.787-3.599 4.428-7.85 1.025-5.6-19.294-33.255-23.745-37.488-7.177-6.825-17.013-.521-13.184 8.802z"/>
    <path fill="#321C80" d="M1272.079 188.007c9.733-11.039 34.469-13.649 39.032-10.846 8.535 5.243 13.388 23.672 13.388 23.672s10.553 39.233 8.382 52.007c-.255 1.502-1.882 4.311-3.07 5.263-1.976 1.582-7.849 2.83-10.596 3.07-2.229.194-6.721-.147-8.951.033-1.895.153-5.635.878-7.509 1.194-1.956.33-5.836 1.218-7.812 1.393-2.402.213-9.649 0-9.649 0s-2.23-3.455-2.683-5.107c-1.442-5.274-1.011-8.159-.826-10.89.438-6.482-2.412-25.877-2.412-25.877s-9.158-31.798-7.294-33.912z"/>
    <path opacity=".5" fill="#FFF" d="M1250.941 247.799c-3.177 4.393-13.96 17.68-13.96 17.68s-.763-.029-1.797-.039c3.251.549 5.385-.327 7.459-4.328 2.329-4.491 6.525-7.839 9.558-11.932 1.332-1.798 2.033-3.757 3.436-5.552 1.442-1.845 3.479-3.158 4.862-4.988 1.072-1.42 1.552-2.963 1.593-4.528-3.616 3.704-7.498 8.635-11.151 13.687z"/>
    <path fill="#321C80" d="M1283.816 195.109c-1.191-9.833-12.79-11.232-15.771-1.604-1.718 5.549-2.888 13.648-3.891 21.786-.657 5.336-.915 10.721-1.018 14.147-1.331.38-2.6 1.008-3.731 1.946-2.088 1.732 2.289 2.603 0 5.242 3.664-1.012 7.428 2.397 7.913 2.836.767.691 4.509 6.117 5.143 8.551 3.262-3.36 4.583-4.033 5.769-6.359.579-1.135.79-2.275.72-3.383 3.873-6.419 5.566-37.391 4.866-43.162z"/>
    <path fill="#FFF" d="M1286.548 325.837l6 63.898h2.777c-.065-5.798-.481-11.098-.63-12.825-.6-7.009-1.885-13.346-2.91-20.2-.838-5.602.575-11.641-.001-17.576-.542-5.57-1.912-10.832-2.195-16.845-.287-6.092-.409-12.407-.732-18.674-.594-11.514-1.113-38.143-1.553-39.298-.995.392-2.011-.524-2.011-.524l1.255 62.044z" opacity=".5"/>
    <path fill="#211355" d="M1329.811 258.103c1.188-.952 2.815-3.761 3.07-5.263 2.171-12.773-8.382-52.007-8.382-52.007s-4.322-16.404-11.981-22.66c.223.396 7.861 18.789 7.767 22.203-.091 3.253-3.321 3.859-6.101 3.029-3.636-1.084-5.875-3.748-9.917-4.069-2.419-.192-5.938.897-6.143 3.701-.063.873.571 1.803.825 2.621.457 1.473.615 2.553.615 4.158 0 3.552-.889 3.559-2.926 5.931-4.414 5.141 7.904 5.513 10.331 6.57 1.812.789 7.47 4.338 5.539 6.972-2.136 2.914-8.751-.993-11.284-1.403-4.05-.656-6.979 1.499-7.971 5.509-.757 3.065.159 6.451-1.063 9.376-1.952 4.67-5.538 9.184-5.557 14.47-.008 2.305.812 4.519 2.085 6.626 2.219.032 4.926.042 6.224-.073 1.977-.175 5.856-1.062 7.812-1.393 1.874-.316 5.614-1.041 7.509-1.194 2.23-.181 6.723.161 8.951-.033 2.748-.241 8.621-1.489 10.597-3.071z"/>
    <path opacity=".6" fill="#B8CBFF" d="M1268.046 193.506c-1.718 5.549-2.888 13.648-3.891 21.786-.657 5.336-.915 10.721-1.018 14.147-1.331.38-2.6 1.008-3.731 1.946-2.088 1.732 2.289 2.603 0 5.242.383-.105.766-.153 1.146-.171.41-2.085.44-2.671 2.288-3.886 2-1.314 2.265-1.642 2.267-4.102.001-1.731-.38-3.394-.205-5.128.159-1.582.947-2.832 1.186-4.353.259-1.646-.054-3.434-.154-5.087-.218-3.567.402-6.387 1.79-9.686 1.479-3.517 1.595-5.846 1.691-9.589.042-1.653.515-2.998 1.185-4.517.297-.673.99-1.438 1.582-2.17-1.778 1.025-3.298 2.86-4.136 5.568z"/>
    <path opacity=".5" fill="#FFF" d="M1330.362 389.735c-.448-3.036-1.108-6.05-1.837-9.008-1.056-4.285-2.625-8.449-3.619-12.67-2.217-9.416-1.067-18.865-5.355-27.488-2.223-4.472-1.338-9.743-2.859-14.314-1.615-4.85-.202-10.705-.521-16.028-.314-5.243-1.592-10.239-1.806-15.653-.081-2.051-.481-5.312-2.438-3.994l1.372 35.258 13.25 63.898h3.813z"/>
    <path fill="#211355" d="M1333.932 209.369c-1.218-2.662-4.068-4.804-5.643-7.255-3.111-4.847-2.804-11.737-8.692-14.173.169 3.366.421 6.868 1.439 10.95 1.568 6.284 2.737 11.948 3.717 18.537.573 3.852 1.331 6.227 5.642 6.85 4.549.657 7.252-6.788 3.537-14.909zM1268.583 239.563s1.019 4.298 3.879 8.451c7.308-5.37 6.516-9.316 6.488-9.742 1.083-1.796 1.995-5.514 2.733-10.062-.193-2.562-.551-5.141-.166-7.708.725-4.832-.005-9.862.239-14.768.147-2.957 1.709-12.816-3.417-12.464-5.428.374-5.355 13.047-5.19 16.307.468 9.205-2.13 17.847-3.771 26.778-.227 1.236-.463 2.271-.795 3.208z"/>
    <path fill="#B8CBFF" d="M1110.979 417.395c35.404 14.993 84.308 26.604 141 33.038v-78.964c-56.697-6.436-105.597-18.054-141-33.051v78.977z"/>
    <path opacity=".2" fill="#211355" d="M1268.938 241.572l-.971-.618c-.492.923-1.142 1.792-2.08 2.721-4.062 4.017-7.316 8.797-11.501 12.811-3.658 3.51-7.566 7.659-12.17 9.846-2.254 1.071-4.524 1.23-6.709 2.237-3.461 1.596-3.018 3.677-4.287 6.957-.924 2.386-3.037 3.271-4.342 5.276-.352.541-.607 1.189-.773 1.891 1.331.548 4.734 1.388 5.689 1.184 1.748-.374 6.98-4.226 8.035-6.903.394-.997.921-3.89 1.143-4.124.135-.143 4.446-2.597 6.492-4.062 3.641-2.091 9.015-6.351 14.336-11.141 3.92-3.529 7.588-6.972 10.525-10.062.053.15.101.297.136.431.583-.6 1.101-1.111 1.569-1.565l-5.092-4.879z"/>
    <path fill="#7F71C1" d="M1201.838 418.428v5.2c10.988 1.925 22.504 3.584 34.475 4.943v-5.2c-11.971-1.359-23.487-3.018-34.475-4.943z"/>
    <g fill="#7F71C1">
      <path d="M1219.316 435.811c2.288.326 4.601.638 6.927.941v-4.783c-2.326-.304-4.639-.615-6.927-.941v4.783zM1212.667 430.03c-3.657-.564-7.28-1.147-10.829-1.77v4.783c3.549.622 7.172 1.205 10.829 1.77v-4.783z"/>
    </g>
  </g>
  <path opacity=".4" clip-path="url(#b)" fill="#B6B3E0" d="M1184.004 302.42c-1.927-.891-3.811-1.473-5.479-.484l-1.908 3.084c.009.438-2.317-.31-3.019-.416-.088.475 1.13.213 2.833 1.745.562.505.743.768.851 1.532.099.699-.149 1.153.024 1.836.399 1.567-.11 1.018.366 2.542 1.405 4.498.288 6.398.29 8.684.002 1.785-.427 3.35-.922 5.055-.111.383-.222.78-.323 1.183 1.402-.569 2.942-1.334 3.363-1.819 1.17-1.352 3.027-7.577 2.256-10.351-.286-1.032-1.607-3.659-1.572-3.979.022-.195 1.986-4.751 2.736-7.153.136-.32.308-.824.504-1.459z"/>
  <path opacity=".2" clip-path="url(#b)" fill="#321C80" d="M1190.758 262.349c-.123-.984-.346-1.87-.64-2.665-1.819-8.439-17.867-32.701-21.976-36.516-2.448-2.273-4.811-3.48-6.857-3.83-.459 1.703-.104 1.99 3.721 5.017 3.892 3.079 5.54 6.082 6.717 11.075.964 4.09 4.615 7.022 6.945 10.424 1.595 2.329 3.348 4.537 4.889 6.763 3.141 4.534 4.348 8.038 4.017 13.44-.28 4.578-.053 8.636-1.345 12.955-1.253 4.192-3.303 7.79-3.287 12.299.016 4.542.005 8.71-2.407 12.901-.46.799-.901 1.538-1.296 2.271 1.373.785 2.5 1.701 3.192 2.576.641-1.581 1.758-4.692 2.203-6.117 1.646-3.862 7.192-32.083 6.124-40.593z"/>
  <path fill="#5DB2BF" d="M1572.065 264.301c3.548-5.082 9.35-10.709 15.989-16.402 4.39-3.764 15.071-14.022 15.071-14.022s-.793-6.452-.202-7.837c.207-.482.767-2.594 1.519-3.605 2.466-2.319 4.214-6.371 5.191-4.767.719 1.181.978 4.441 1.46 4.829.465.372.092 1.026 1.88-.126 2.053-1.325 6.944-7.861 7.211-3.861.018.273-.892 1.446-.361 2.71.185.439.898 1.668 1.079 2.139.638 1.676.756 4.845.682 5.432-.245 1.892-3.923 5.381-6.676 6.739-1.024.507-3.882 2.696-4.111 2.952-.139.158-1.85 3.943-3.228 6.248-1.9 4.055-16.56 26.744-24.088 31.943-7.871 5.434-17.571-3.557-11.416-12.372z"/>
  <path opacity=".4" fill="#2C1E5E" d="M1647.109 491.3c.146-4.322-12.631-8.276-23.504-8.679 0 0 2.222-7.765-11.21-5.937-4.834.658-14.868 7.563-24.633 7.563s-38.822 1.504-47.123.315c-5.87-.841-19.106.125-15.777 4.256 2.865 3.556 8.12 5.145 13.814 7.542 4.599 1.936 1.196 3.666 10.264 8.852 4.931 2.82 22.808 2.358 32.801 3.279 6.056.558 1.81 3.473 6.477 5.152 13.894 4.999 20.72-1.65 22.449-4.094 7.495-.278 27.177-.302 34.04-.538 6.138-.212 23.49-2.996 25.133-8.012 1.684-5.145-16.169-9.189-22.731-9.699z"/>
  <path fill="#4225AB" d="M1540.062 476.277l.525 1.258 5.265 4.964s6.17 6.658 7.649 7.555c1.982 1.205 7.185 6.957 7.571 9.959.236 1.824-.783 1.957-4.061 2.197-2.325.17-8.159-.029-13.775-2.183-3.228-1.237-5.964-4.326-8.625-5.353-2.146-.828-9.396-3.746-9.75-5.855-.81-4.803 1.923-13.963 1.923-13.963l13.278 1.421z"/>
  <path fill="#321C80" d="M1525.485 475.803s10.903 3.787 16.428.706c11.676-80.817 10.991-73.027 11.49-88.615.194-6.062-20.987-10.577-23.336 1.947-8.293 44.219-4.582 85.962-4.582 85.962z"/>
  <path fill="#4D4D4D" d="M1566.21 471.707s11.909 3.713 17.609-.757c2.013-81.631 2.575-71.843 1.223-87.379-.526-6.043-22.677-5.513-23.523 7.202-2.994 44.891 4.691 80.934 4.691 80.934z"/>
  <path fill="#4D4D4D" d="M1585.042 383.571c-2.6-48.279-11.292-70.254-11.292-70.254s-20.827-1.654-24.876 3.103c-4.153 13.111 1.202 26.553 4.849 40.112 2.616 9.732 4.637 19.207 9.287 31.069 8.648 22.067 22.486 11.777 22.032-4.03z"/>
  <path fill="#321C80" d="M1585.042 383.571c-2.6-48.279-11.292-70.254-11.292-70.254s-20.827-1.654-24.876 3.103c-4.153 13.111 1.202 26.553 4.849 40.112 2.551 9.489 4.542 18.74 8.95 30.19-.639 1.184-1.053 2.527-1.154 4.051-2.993 44.891 4.691 80.934 4.691 80.934s11.909 3.713 17.609-.757c2.013-81.631 2.576-71.843 1.223-87.379z"/>
  <path fill="#321C80" d="M1570.558 305.715h-43.064c-1.565 0-1.565 0-2.835 2.835 0 0-2.208 5.596-2.41 12.605-.005.004-.013.009-.018.013 0 .178.004.348.005.524-.007.483-.002.974.013 1.469.179 13.044 2.07 22.301 3.43 35.601 1.024 10.025 1.699 18.625 4.39 31.079 5.005 23.166 20.792 18.42 22.874 2.745 2.717-26.354 2.619-44.353 1.785-55.965h15.831c1.565 0 2.835-1.27 2.835-2.835l4.929-3.222c-.002-1.565-6.2-24.849-7.765-24.849z"/>
  <path opacity=".6" fill="#B8CBFF" d="M1530.425 305.715h-2.932c-1.565 0-1.565 0-2.835 2.835 0 0-2.208 5.596-2.41 12.605-.005.004-.013.009-.018.013 0 .178.004.348.005.524-.007.483-.002.974.013 1.469.179 13.044 2.07 22.301 3.43 35.601 1.024 10.025 1.699 18.625 4.39 31.079-8.293 44.219-4.582 85.962-4.582 85.962s2.126.608 3.091.882c.014-2.319-.764-5.102-1.656-14.426-.578-6.045-1.565-16.538-.174-22.432 1.502-6.36 2.691-8.895 3.012-15.403.275-5.585-.24-20.915 1.239-26.272 1.58-5.726 2.368-3.138 1.747-9.178-.481-4.683-2.657-14.068-3.156-18.777-1.04-9.804 1.221-15.158-.338-24.857-.815-5.08-3.89-10.322-3.203-21.802.322-5.395 1.117-9.17 2.396-14.194.653-2.572 1.987-.747 1.981-3.629z"/>
  <path fill="#5DB2BF" d="M1572.367 226.511c3.666 4.932 5.902 14.044 9.403 22.041 3.788 8.65 4.381 15.975 4.381 15.975s1.437 10.556-6.599 12.836c-3.807 1.08-6.98.66-8.482-1.238-7.57-9.57-18.6-36.236-20.33-41.34-4.413-13.016 10.975-22.611 21.627-8.274z"/>
  <path opacity=".4" fill="#1A1A1A" d="M1620.902 223.357c-.181-.471-.895-1.699-1.079-2.139-.53-1.264.379-2.437.361-2.71-.267-4-5.158 2.536-7.211 3.861-1.788 1.152-1.415.498-1.88.126-.482-.388-.741-3.648-1.46-4.829-.978-1.604-2.726 2.447-5.191 4.767-.752 1.012-1.312 3.123-1.519 3.605-.591 1.385.202 7.837.202 7.837s-10.682 10.259-15.071 14.022c-1.676 1.438-3.297 2.869-4.844 4.291-.421-1.175-.895-2.39-1.44-3.638-3.501-7.997-5.737-17.109-9.403-22.041-10.652-14.337-26.04-4.742-21.627 8.273 1.73 5.104 12.76 31.77 20.33 41.34.992 1.253 2.722 1.849 4.871 1.807 2.314.737 5.021.481 7.54-1.259 7.528-5.199 22.188-27.889 24.088-31.943 1.378-2.305 3.089-6.09 3.228-6.248.229-.256 3.087-2.445 4.111-2.952 2.753-1.358 6.431-4.848 6.676-6.739.074-.586-.044-3.755-.682-5.431z"/>
  <path fill="#5DB2BF" d="M1562.723 219.713c-21.045-4.994-28.942.706-35.175 3.543-4.906 2.233-3.788 24.882-3.699 29.686.149 8.006 1.27 17.638 1.097 26.926-.1 5.438-.736 12.633-1.336 17.5-.675 5.481 3.009 11.237 4.833 11.976 8.592 3.476 43.301 5.384 43.053-2.542-.675-21.591 6.219-53.518 4.613-63.949-1.036-6.727-1.233-20.256-13.386-23.14z"/>
  <path opacity=".2" fill="#1A1A1A" d="M1576.108 242.852c-.177-1.15-.33-2.502-.522-3.962-.085.087-1.053-5.977-1.04-5.855.799 7.618-2.225 11.853-7.318 12.873-12.25 2.456-6.027 17.515-16.952 20.072-4.989 1.167-12.709 1.422-12.86 8.17-.1 4.444-.509 6.468 1.616 10.055 3.581 6.043 9.909 3.923 15.561 9.333 1.631 1.562 5.406 8.802-.068 12.025-4.584 2.699-2.936 4.383-1.468 6.785 9.812-.059 18.564-1.553 18.439-5.547-.676-21.591 6.218-53.518 4.612-63.949z"/>
  <path fill="#9ED1D9" d="M1530.63 302.857c-.695-.545-1.885.405-2.689-.586-.307-.377-.113-2.196-.055-2.69.244-2.059 1.718-3.875 1.921-6.043.2-2.136-.429-4.321-1.03-6.316-1.387-4.603-1.102-8.646-.618-13.456.949-9.453-1.021-18.96.337-28.5 1.21-8.493 3.491-19.736 11.55-24.427 1.423-.828 3.796-1.803 5.667-3.057-9.082.406-13.998 3.577-18.164 5.474-4.906 2.233-3.788 24.882-3.699 29.686.149 8.006 1.27 17.638 1.097 26.926-.1 5.438-.736 12.633-1.336 17.5-.675 5.481 3.009 11.237 4.833 11.976.512.207 1.121.408 1.806.603 1.523-2.552 2.429-5.485.38-7.09z"/>
  <path fill="#FFF" d="M1598.745 238.052c2.504-2.372 4.381-4.176 4.381-4.176s-.793-6.452-.202-7.837c.207-.482.767-2.594 1.519-3.605 2.466-2.319 4.214-6.371 5.191-4.767.719 1.181.978 4.441 1.46 4.829.465.372.092 1.026 1.88-.126 2.053-1.325 6.944-7.861 7.211-3.861.018.273-.892 1.446-.361 2.71.185.439.898 1.668 1.079 2.139.638 1.676.756 4.845.682 5.432-.245 1.892-3.923 5.381-6.676 6.739-1.024.507-3.882 2.696-4.111 2.952-.139.158-1.85 3.943-3.228 6.248-1.901 4.054-12.295-3.392-8.825-6.677z"/>
  <path fill="#5DB2BF" d="M1543.367 230.158c3.245 5.219 4.718 14.484 7.544 22.744 3.058 8.936 3.041 16.283 3.041 16.283s.556 10.639-7.641 12.244c-3.884.761-7.012.079-8.351-1.937-6.751-10.166-14.43-35.102-15.73-40.331-3.318-13.336 11.71-24.174 21.137-9.003z"/>
  <path fill="#FFF" d="M1550.507 182.038c-1.562 1.539-2.677 20.924-3.562 25.048-1.251 5.828-1.846 11.961-1.846 11.961s1.827 3.189 5.617 4.153c2.796.71 5.354 1.132 7.432 1.15 1.512.195 4.014 12.249 4.215 13.155s.268-7.629-.593-13.774c.841-.407 1.395-1.026 1.593-1.893.197-.861-1.704-2.24-1.641-3.126.177-2.483 2.108-10.798 2.277-12.795.148-1.743-10.67-26.656-13.492-23.879z"/>
  <path fill="#B6B3E0" d="M1554.874 185.93c-.826 4.424-1.355 9.077-2.576 11.19-.18.588.152-.015.364-.011l-.819 8.39c.424 2.1 1.957 4.192 3.045 5.941 1.64 2.638 3.595 9.58 6.962 9.77.386.021.817-.053 1.274-.187-.473-.773-1.447-1.67-1.401-2.311.177-2.483 2.108-10.798 2.277-12.795.102-1.202-5.015-13.43-9.126-19.987z"/>
  <path fill="#FFF" d="M1550.507 198.982s1.479 4.531 4.712 9.406c2.241 3.38 7.889 4.747 7.889 4.747s2.148.799 2.967.526c2.875-.956 5.164-7.065 6.646-9.71 2.631-4.691 2.578-7.971 3.307-10.855 2.096-8.298 1.28-12.816-2.539-14.364-3.518-1.428-16.473-4.182-17.118-3.93-.647.251-5.864 24.18-5.864 24.18z"/>
  <path fill="#5DB2BF" d="M1613.634 225.342c.338.521.188 1.217-.332 1.554-.521.338-1.217.188-1.555-.333l-8.521-13.16c-.337-.521-.188-1.217.333-1.554.521-.337 1.216-.188 1.553.333l8.522 13.16z"/>
  <path fill="#211747" d="M1611.182 269.367l-18.77 2.125 18.766-59.288 18.767-.054z"/>
  <path fill="#FFF" d="M1543.182 268.114c5.681-2.478 13.568-4.241 22.205-5.625 5.709-.915 20.178-4.077 20.178-4.077s2.696-5.915 3.924-6.786c.429-.304 2.008-1.811 3.179-2.279 3.314-.689 6.923-3.229 6.918-1.352-.006 1.382-1.489 4.297-1.28 4.88.201.561-.458.924 1.669.875 2.442-.056 10.029-3.071 8.165.478-.127.242-1.516.768-1.725 2.122-.072.471-.105 1.892-.198 2.387-.332 1.763-1.887 4.525-2.258 4.986-1.196 1.485-6.156 2.538-9.213 2.257-1.138-.104-4.719.271-5.048.368-.202.062-3.639 2.395-6.018 3.639-3.74 2.464-28.096 14.146-37.231 14.642-9.553.52-13.123-12.217-3.267-16.515z"/>
  <path fill="#5DB2BF" d="M1582.414 259.025c-4.657.998-12.977 2.745-16.994 3.389-8.706 1.395-16.657 3.173-22.383 5.67-9.935 4.332-6.336 17.172 3.292 16.646 9.209-.5 33.76-12.274 37.529-14.759.486-.254 1.015-.553 1.551-.868l-2.995-10.078z"/>
  <path opacity=".2" fill="#1A1A1A" d="M1584.396 266.366c-4.657.998-12.223 3.852-15.496 6.268-12.858 9.49-23.544 5.474-25.5 6.75-4.611 3.009-.909 4.836 2.573 4.82 9.223-.041 33.76-12.274 37.529-14.759.486-.254 1.015-.553 1.551-.868l-.657-2.211z"/>
  <path fill="#9ED1D9" d="M1536.903 273.038c-.387-3.065-1.521-5.288-2.719-8.131-1.053-2.5-1.502-5.101-1.781-7.775-.314-3.021-.846-5.789-1.785-8.681-.918-2.831-2.533-5.494-3.09-8.416-.779-4.095-2.184-7.803-1.564-11.873.193-1.271.388-3.811 2.452-5.286-4.741 1.855-7.893 9.427-6.186 16.286 1.266 5.089 8.571 28.734 15.185 39.471-.107-1.885-.281-3.769-.512-5.595z"/>
  <path fill="#B6B3E0" d="M1569.134 210.734c1.465-2.24 2.678-5.161 3.587-6.782 2.631-4.691 2.578-7.971 3.307-10.855 1.976-7.824 1.361-12.286-1.917-14.067.405 1.742.584 3.549.738 5.095.452 4.547-1.015 8.617-.743 13.235.138 2.34-1.64 1.457-3.076 2.391-.831.541-5.231.4-5.707 1.174-.814 1.325 1.215 2.504 1.28 3.445.082 1.185-.383.892-.679 1.941-.751 2.666.612 3.608 3.21 4.423z"/>
  <path fill="#211747" d="M1572.925 170.474c-2.238.079-2.19-.56-4.423-1.875-2.564-1.509-8.47-3.137-13.181-.02-2.193 1.452-.533.308-3.017.064-3.97-.39-10.79 3.319-9.606 10.798.824 5.202-1.799 1.911-2.016 7.977-.127 3.562 2.219 4.808 2.142 9.301-.072 4.22 3.518 8.106 3.734 12.292l2.667-12.172s-2.18.7-.067-8.323c.012-.051.82-2.209.863-2.238 1.975-1.339 4.53.836 3.282 4.557 0 0 .726 1.064 2.67 1.186.168-3.638 4.221-5.262 3.7-7.575-1.136-5.062 3.714-8.271 8.231-5.466 4.588 2.849 7.324 3.698 8.811 2.988 2.454-1.171 4.252-4.819 4.364-7.168.276-5.76-4.046-4.471-8.154-4.326zM1567.797 202.79c.715.081 2.33.16 3.077.297.639.117.826-.379 1.847.865 3.579 0 2.733-2.222 1.869-2.872-.44-.848-.44-.848-1.786-1.138-1.071-.231-3.228-.288-4.285-.099-3.036.543-3.413 0-4.689-.901.6 2.585 2.566 3.689 3.967 3.848z"/>
  <path fill="#211747" d="M1570.972 207.036s.739-1.878.326-1.83-2.42-.489-2.495-.455c-7.234 3.29-9.972-.609-9.791-2.919.438-5.587-1.644-4.108-2.128-6.402-.865-4.099.524-6.047 1.167-7.657-.725-.544-3.396.638-4.451.649-.298 1.858-.704 3.711-1.074 5.555-.408 2.033-.37 4.125-.579 6.2-.07.694-.114 5.61 2.172 8.181 2.695 3.03 5.516 4.693 7.781 5.361 1.369.403 4.831.538 5.691.489 4.111-.232 4.933-1.739 5.207-6.213.055-.892-.313-2.808-.676-2.895-.305.387-1.15 1.936-1.15 1.936z"/>
  <path opacity=".6" fill="#B8CBFF" d="M1555.321 168.579c-2.193 1.452-.533.308-3.017.064-3.97-.39-10.79 3.319-9.606 10.798.824 5.202-1.799 1.911-2.016 7.977-.127 3.562 2.219 4.808 2.142 9.301-.07 4.088 3.287 7.863 3.695 11.9.015-.074.035-.152.048-.225.363-2.038.261-4.774-.316-6.707-.622-2.076-1.348-3.258-1.348-5.527 0-2.534-.385-4.429-1.338-6.743-.746-1.814-1.703-4.651.941-5.494.15.414.188.884.168 1.318 2.25-1.442.559-5.024.479-7.081-.121-3.081.999-4.256 3.128-6.203.121.711.157 1.447.72 1.938.562-1.886 2.307-2.637 4.152-2.734 1.009-.054 2.031.117 2.902-.341.964-.507 1.13-1.319 1.842-2.034.979-.984 3.1-1.59 4.602-1.943-2.33-.166-4.893.224-7.178 1.736zM1566.232 449.695c0-10.009-4.106-18.911-2.265-28.829.991-5.334 2.152-10.36 1.084-15.71-.91-4.555-1.865-8.772-.551-13.395 1.451-5.1 3.223-4.807.476-9.897-1.194-2.213-3.533-6.221-3.871-8.683-.39-2.842-1.371-8.781-2.69-11.362-2.641-5.167-1.66-5.743-3.182-11.501.026 3.476-.016 7.28-.144 11.436 1.997 7.742 3.984 15.621 7.583 24.969-.639 1.184-1.053 2.527-1.154 4.051-2.993 44.891 4.691 80.934 4.691 80.934s1.482.461 3.646.862c-.235-1.486-.505-2.978-.797-4.487-1.234-6.377-2.826-11.771-2.826-18.388z"/>
  <path opacity=".4" fill="#1A1A1A" d="M1547.366 344.641c-3.242 6.201 4.604 5.678-.534 15.193-4.61 8.539 1.527 21.02-1.011 30.305-1.711 6.257-4.216 11.068-2.859 17.695 1.569 7.667.984 16.914-.063 24.66-.681 5.029-2.469 9.264-3.748 14.1-2.612 9.877 1.086 21.521-2.271 31.108 1.848-.067 3.617-.403 5.033-1.193 11.676-80.815 10.991-73.028 11.49-88.614 2.131-22.669 2.369-33.481 1.687-44.386-4.638 1.468-7.234.195-7.724 1.132zM1585.042 383.571c-2.6-48.279-13.547-76.771-13.547-76.771.047 1.505-1.171 2.654-3.227 3.506.055.76.216 1.66.556 2.773.092.193.184.385.272.572 1.857 3.919 1.193 7.234 1.064 11.519-.354 11.853 7.037 22.519 9.072 33.939.872 4.896-.005 9.521-.244 14.362-.281 5.679 1.789 11.14 1.963 16.787.306 9.96-2.238 19.426-1.309 29.342.678 7.233 3.045 15.178 2.361 22.32-.658 6.887-2.85 13.552-1.699 20.603.428 2.622 1.252 6.024 1.809 9.453.611-.28 1.185-.619 1.705-1.027 2.014-81.63 2.577-71.842 1.224-87.378z"/>
  <path opacity=".4" fill="#B8CBFF" d="M1634.506 228.637v74.285c15.131-11.427 23.506-23.972 23.506-37.138 0-13.169-8.372-25.718-23.506-37.147z"/>
  <path fill="#B8CBFF" d="M1616.568 325.68c-20.162 10.164-47.443 20.214-82.062 28.312v83.215c73.187-17.115 121.242-44.378 123.42-75.226h.086v-80.249c0 17.025-16.292 31.268-41.444 43.948z"/>
  <path fill="#FFF" d="M1619.506 312.669v.238c-.07-.039-.138-.079-.208-.119-21.177 11.945-50.173 22.314-84.792 30.413v13.456c34.619-8.099 64.838-20.368 85-30.532 25.151-12.68 38.506-27.368 38.506-44.393v-15.948c0 17.025-13.992 33.012-38.506 46.885z"/>
  <path fill="#4225AB" d="M1582.424 472.032l.425 1.297 6.201 3.811s8.754 6.438 11.572 7.638c2.135.906 5.396 4.218 4.33 6.521-.771 1.67-3.916 2.32-7.2 2.438-3.236.118-8.671-.525-11.562-2.416-2.894-1.891-8.781-3.132-11.07-3.289-2.297-.156-7.781-.603-8.488-2.619-1.552-4.438.822-13.705.822-13.705l14.97.324z"/>
  <g fill="#B8CBFF">
    <path d="M1619.171 210.897l-.793 2.506 5.664-.016.787-2.49z"/>
    <path d="M1618.378 214.037c-.201 0-.392-.097-.511-.259-.119-.163-.154-.373-.093-.566l.793-2.506c.083-.263.327-.442.604-.442h5.658c.202 0 .392.097.511.26.119.162.154.372.094.565l-.787 2.489c-.084.263-.327.441-.603.442l-5.664.017h-.002zm1.257-2.506l-.392 1.236 4.334-.013.388-1.224h-4.33z"/>
  </g>
  <ellipse transform="rotate(12.374 1622.960712 208.3252829)" fill="#B8CBFF" cx="1622.615" cy="208.237" rx="1.661" ry="2.226"/>
  <path fill="#FFF" d="M1277.523 226.318l4.899-.56s3.688.782 4.773 1.617c1.085.833 2.778 3.947 3.117 4.566.338.618 1.726 2.613 1.661 3.562-.064.947-.235 8.282-.235 8.282s.091 4.648.86 5.306c.883.756 4.168 4.346 4.168 4.346s-.244 1.709-1.482 3.694c-1.073 1.717-4.15 3.442-4.15 3.442l-6.902-7.105s-1.537-.745-2.929-2.405c-2.372-2.831-1.958-8.993-1.958-8.993l.342-2.26-.65-1.603-.858-1.376-.52-.777s-.81 1.341-1.335 1.563c-.834.349-1.894.245-2.183-.223-.379-.619.587-3.341.587-3.341s-1.125.365-1.666-.407c-.215-.309-.1-1.192.104-1.514.791-1.251 2.806-3.177 5.022-3.871-.953-1.081-.665-1.943-.665-1.943z"/>
  <path fill="#B6B3E0" d="M1277.904 228.918c.749-.215 1.208-.118 1.726.117.518.234 1.077.806 1.935 1.929.855 1.124 3.386 5.095 3.386 5.095s-.649-2.242-.635-3.441c.017-1.197.233-1.45.233-1.45s-.434-.494-1.215-1.347-.644-1.711-.98-1.668c-.336.045-1.101-.143-1.518-.37-.419-.228-.896.346-2.977.041.047.632.495.376-.855 1.202-.545.333.887 2.707.887 2.707s.174 1.968.096 2.625c-.122 1.023-.327 1.697-.327 1.697l.445.777s.826 1.199.909 1.71c.329 2.03 0 3.019.391 4.603l1.875 2.792s-1.128-3.008-1.016-5.665c.039-.904.576-3.158.576-3.158l-.864-1.393-.659-1.108s-1.94-3.799-1.989-4.069c-.051-.27-.17-1.412.576-1.626z"/>
  <path fill="#211747" d="M1364.595 504.504s.349 7.857-.549 10.265c-1.425 3.824-1.563 9.694-4.901 12.043-6.206 4.368-18.266-.48-18.473-3.131-.506-6.486 4.554-15.23 6.445-18.756 2.625-4.892 4.21-14.454 4.21-14.454l13.407-.472-.139 14.505z"/>
  <path fill="#5DB2BF" d="M1400.552 499.489s11.909 3.713 17.609-.757c2.013-81.631 2.575-71.843 1.223-87.379-.526-6.043-22.677-5.513-23.523 7.202-2.994 44.891 4.691 80.934 4.691 80.934z"/>
  <path fill="#5DB2BF" d="M1395.86 418.556s18.304 2.939 24.004-1.53c-2.892-62.106-7.66-74.783-11.368-94.186-1.139-5.958-31.008-7.493-30.627 5.244.3 10.035 1.066 18.149 2.968 29 .166.944 2.42-1.495 2.937 4.897 2.408 29.805 12.086 56.575 12.086 56.575zM1367.066 497.736s-13.695 2.305-19.396-2.165c-2.013-81.631-1.472-63.811 0-87.956.369-6.055 24.281-5.088 24.262 7.655-.067 43.792-4.866 82.466-4.866 82.466z"/>
  <path fill="#5DB2BF" d="M1371.933 415.271s-18.883 1.687-24.583-2.783c.468-77.243 3.549-75.805 4.901-91.341.526-6.043 31.899-9.085 31.519 3.652-.404 13.521-2.286 28.932-4.539 43.161-4.061 25.642-7.298 47.311-7.298 47.311z"/>
  <path fill="#9ED1D9" d="M1351.701 326.134c-1.5 11.32-3.939 18.306-4.352 86.354-1.219 17.124-1.537 7.707.321 83.084.664.521 1.439.946 2.286 1.297 2.61-9.351.896-26.906.312-36.462-1.1-17.977-.67-37.638 3.309-54.839 2.219-9.592-1.605-19.633-1.606-29.456-.002-10.988 2.964-21.185 3.466-31.638.348-7.237.625-14.279-3.736-18.34zM1400.552 499.489s1.425.443 3.522.84c-2.031-1.999-1.903-7.345-2.822-11.595-1.749-8.091-.249-22.216-2.387-30.465-2.2-8.489-1.91-21.584 0-30.98 1.848-9.092 1.419-4.949-.977-13.529-2.721-9.744-2.795-10.466-6.121-19.167-3.246-8.489-5.428-30.919-4.165-34.801 2.121-2.448 2.405-4.916 1.043-4.916-5.597 3.621-5.856 1.517-5.597 3.621.008.085.717 3.396.725 3.484 2.408 29.805 12.087 56.574 12.087 56.574-2.993 44.891 4.692 80.934 4.692 80.934z"/>
  <path opacity=".4" fill="#1A1A1A" d="M1367.066 497.736s4.799-38.674 4.866-82.466c0 0 3.237-21.669 7.298-47.311.388-2.444.621-3.062 1.606-10.876-2.361-.807-5.292-5.656-6.968-4.102-.823.764 1.201 2.604 1.705 6.002 1.242 8.371-1.309 12.565-4.772 20.054-3.543 7.659-3.522 15.913-3.522 24.05 0 8.417-2.391 15.355-2.478 23.287-.094 8.514 2.89 15.074 2.478 23.785-.392 8.277-3.479 15.295-3.469 23.785.011 8.432-2.142 15.489-2.971 23.289-.037.348-.059.707-.073 1.072 3.548-.108 6.3-.569 6.3-.569z"/>
  <path opacity=".4" fill="#1A1A1A" d="M1408.496 322.84c-1.139-5.958-31.008-7.493-30.627 5.244.117 3.93-4.301 4.479-4 8.1 3.996 3.309 14.72 2.643 19.637 2.643 12.642 0 16.009 12.528 17.601 23.155.862 5.759.479 11.301.01 16.999-.483 5.863 1.044 10.901 1.925 16.317.892 5.485 1.512 10.724 2.074 16.368.537 5.386-2.121 9.244-1.873 14.441.132 2.75 1.072 5.231.999 8.168-.085 3.42-1.356 5.888-2 9.166-1.107 5.645-.157 10.802.74 16.341 2.139 13.211.511 26.751-1.095 40.277 1.361-.343 5.223-.502 6.274-1.327 1.711-69.393 2.374-72.725 1.703-81.707-2.891-62.106-7.66-74.783-11.368-94.185z"/>
  <path fill="#B8CBFF" d="M1344.303 235.775c-4.638 4.031-12.589 14.292-17.722 21.354-5.553 7.639-8.492 18.201-8.492 18.201s-2.873 6.469 4.487 10.416c3.487 1.871 3.906 5.092 5.779 3.561 9.445-7.728 28.702-34.363 31.485-38.978 7.099-11.769-2.061-26.276-15.537-14.554z"/>
  <path fill="#B8CBFF" d="M1403.802 329.492c-4.592 4.232-15.018 6.575-25.327 6.688-10.311.113-22.973-3.017-27.102-7.702-5.436-6.17-.754-21.604-1.47-36.536-1.152-24.024-2.786-58.278-2.786-58.278s6.977-7.969 31.675-10.826c12.385-.022 19.42-4.923 24.086-3.144 7.777 2.965 11.128 11.747 11.128 11.747s-3.743 40.495-5.029 65.051c-.23 4.406-.253 8.637-.329 12.549-.044 2.271 1.317 9.871 1.184 11.9-.407 6.164-2.885 5.651-6.03 8.551zM1327.123 277.57c-4.132-5.145-10.699-10.707-18.16-16.283-3.715-2.777-11.084-8.876-14.33-11.871l-7.999 7.932c6.32 9.218 22.646 30.251 29.245 34.182 8.749 5.213 18.413-5.034 11.244-13.96z"/>
  <path fill="#4225AB" d="M1389.65 224.01s-4.221 19.876-14.26 25.082c-5.653-3.332-11.095-18.776-11.095-18.776s1.477-10.906 2.103-12.406c2.046-4.901 14.287-7.231 19.498-3.719 2.672 1.801 3.754 9.819 3.754 9.819z"/>
  <path fill="#321C80" d="M1408.977 296.492c.695-13.274 2.108-23.732 3.26-37.408-10.709 10.056-20.634 6.359-31.675 9.031-11.131 2.694-20.184-.133-31.806.002.423 8.85.752 15.588 1.147 23.825.238 4.97-.122 6.93-.507 11.65 0 0 6.793 1.068 9.748.546 13.195-2.333 13.9 2.888 29.791-.238 12.126-2.386 7.283-5.046 19.961-5.516.026-.629.047-1.254.081-1.892z"/>
  <path fill="#B3B3B3" d="M1392.592 223.906c3.681-5.042 29.85-11.161 38.296-13.431 9.137-2.457 19.855-4.024 19.855-4.024s14.517 9.405 9.834 15.105c-8.708 10.601-47.294 19.794-52.609 20.681-13.56 2.263-20.73-10.997-15.376-18.331z"/>
  <path fill="#B3B3B3" d="M1467.173 167.545c-.271.506-7.926 16.262-9.882 19.969-4.842 9.177-8.838 17.867-10.699 24.871-3.229 12.153 9.997 16.613 16.2 7.091 3.881-5.95 16.146-38.467 16.941-48.829-1.09-5.186-9.19-6.458-12.56-3.102z"/>
  <path fill="#B8CBFF" d="M1467.173 167.545c-.271.506-7.926 16.262-9.882 19.969-3.629 6.879-6.783 13.484-8.92 19.312-3.667.603-10.975 1.9-17.483 3.65-8.446 2.27-28.517 7.194-33.937 9.22-16.995 6.351-4.21 25.581 11.017 22.542 4.746-.947 39.632-9.067 50.845-18.897 1.466-.845 2.842-2.117 3.979-3.864 3.881-5.95 16.146-38.467 16.941-48.829-1.09-5.187-9.19-6.459-12.56-3.103z"/>
  <path opacity=".5" fill="#E6E6E6" d="M1348.756 268.117c.418 8.761.757 15.683 1.147 23.825.716 14.932-3.966 30.366 1.47 36.536 1.13 1.282 2.913 2.441 5.098 3.456 3.981-8.606-7.956-16.516-1.267-30.052 3.94-7.974 5.542-14.695 1.847-18.941-6.503-7.472-6.842-14.652-8.295-14.824z"/>
  <path fill="#321C80" d="M1346.867 268.298c-1.352-4.314-7.077-14.701-13.617-20.002-2.404 3.062-4.736 6.175-6.669 8.833-2.11 2.903-3.843 6.228-5.18 9.235 3.721 3.321 7.722 6.525 10.493 10.757 1.057 1.612 1.955 3.804 2.758 5.979 3.87-4.256 8.217-9.62 12.215-14.802zM1448.617 229.515c-.766-6.168-2.097-11.839-2.864-14.593-.703-2.521-1.427-4.98-2.348-7.225-3.692.689-8.272 1.637-12.518 2.778-2.225.598-4.97 1.32-8.095 2.131-2.718.704-5.76 1.484-8.512 2.18 1.402 3.476 3.131 6.659 4.186 9.887 1.707 5.22 1.594 9.944 1.168 14.813 8.598-2.289 20.09-5.813 28.983-9.971z"/>
  <path opacity=".5" fill="#E6E6E6" d="M1464.756 178.183c1.437-2.319.743-4.578 1.506-6.957.534-1.668 2.323-3.218 2.81-4.908-.716.302-1.37.701-1.898 1.228-.271.506-7.926 16.262-9.882 19.969-3.629 6.879-6.783 13.484-8.92 19.312-3.667.603-10.975 1.9-17.483 3.65-2.282.613-5.324 1.42-9.023 2.371-2.289.589-4.849 1.214-7.583 1.939-9.2 2.439-19.892 5.409-22.9 6.557-1.547.591 4.13-1.052 8.418-.337 4.929.821 7.104.135 11.562-1.981 7.952-3.776 15.597-6.694 24.549-6.352 6.078.232 11.246 1.344 13.88-4.907 1.186-2.812 3.016-4.402 4.976-6.793 2.585-3.152 3.897-6.663 4.842-10.452 1.209-4.866 2.54-8.134 5.146-12.339z"/>
  <path opacity=".2" fill="#5140AE" d="M1374.426 259.341c5.287-2.814-17.318-5.839-19.12-14.438-2.942-14.046-8.138 23.098 5.565 18.716 2.676-.855-3.855-6.169-1.114-7.194 4.67 2.532 12.351 4.149 14.669 2.916z"/>
  <path opacity=".5" fill="#E6E6E6" d="M1338.162 247.314c3.312-3.374 5.149-7.888 8.227-11.187 1.503-1.612 3.384-2.603 5.177-3.752 3.811-2.443 11.303-4.887 11.97-5.177 1.2 0 .309-1.546-.762-1.246-12.226 3.426-16.261 7.899-18.471 9.822-4.638 4.031-12.589 14.292-17.722 21.354-3.044 4.188-5.3 9.25-6.72 12.973-3.229-2.895 1.493 3.446 2.812-.13.89-2.41.812-1.653 1.706-4.12.915-2.523 2.493-5.011 3.933-7.193 2.73-4.141 6.362-7.789 9.85-11.344z"/>
  <path opacity=".5" fill="#5140AE" d="M1348.634 265.992c-.128-.469-7.72 3.836-9.616 5.266-7.354 5.542-13.13 25.493-26.856 12.066-5.158-5.045-6.641-10.582-12.767-14.844-5.572-3.877-7.022-8.494-10.469-13.478l-2.292 2.345c6.481 9.061 22.646 30.251 29.245 34.182 4.453 2.653 9.138 1.299 11.725-1.846.229-.037.474-.149.752-.377 5.404-4.42 13.373-14.179 20.278-23.314z"/>
  <path opacity=".7" fill="#211355" d="M1346.362 266.904c-2.658 1.45-6.198 3.489-7.345 4.354-2.146 1.617-4.16 4.463-6.274 7.348.7 1.36 1.331 2.927 1.908 4.492.09-.1.181-.199.271-.299.333-.369.669-.743 1.008-1.127.151-.171.303-.344.455-.518.33-.377.663-.76.998-1.148.158-.183.316-.367.475-.553.336-.393.674-.792 1.014-1.195.156-.186.312-.371.471-.56.351-.42.703-.846 1.057-1.274.145-.176.289-.35.435-.526.385-.47.771-.943 1.155-1.419.113-.141.227-.278.339-.418 1.003-1.244 2.003-2.505 2.989-3.766.114-.146.227-.292.341-.438.368-.473.736-.945 1.101-1.416.036-.048.072-.095.109-.143-.166-.525-.22-.71-.507-1.394z"/>
  <path opacity=".5" fill="#5140AE" d="M1409.831 320.941c.134-2.029-1.228-9.629-1.184-11.9.076-3.912.099-8.143.329-12.549.886-16.915 2.938-41.393 4.129-54.987-.434-.008-.858-.038-1.236-.184-1.405-.54-3.889 5.97-6.193 10.63-2.518 5.094-8.592 2.882-12.45 2.505-2.878-.281-3.919.641-4.174 3.339-.292 3.092 1.093 4.917-2.276 5.8-3.178.833-12.119-3.002-13.938-.017-2.896 4.754-2.832 16.628 18.732 18.41 2.854.235 2.209 4.099.197 4.472-3.912.726-16.764 4.312-19.835 7.994-5.989 7.181-4.569 13.474-4.463 18.807.374 18.674 25.677 18.674 25.274 21.246 4.703-1.131 8.672-2.815 11.058-5.015 3.146-2.9 5.624-2.387 6.03-8.551zM1474.397 169.195c-1.125 4.362.887 7.878-1.447 11.762-3.651 6.076-3.967 9.8-4.78 16.965-.728 6.404-4.56 10.879-8.688 16.296-2.742 3.598-4.005 8.515-8.273 9.997-4.932 1.713-10.935 3.047-16.121 4.676-6.894 2.165-9.45 4.873-14.854 7.781-4.132 2.224-9.115-1.303-10.217.701-.659 1.199.831 2.975 3.09 4.132 9.279-2.007 35.587-9.293 45.707-18.165 1.466-.845 2.842-2.117 3.979-3.864 3.881-5.95 16.146-38.467 16.941-48.829-.437-2.073-3.41-.674-5.337-1.452z"/>
  <path opacity=".7" fill="#211355" d="M1420.232 236.672c-.137.073-.275.125-.413.186-.048.874-.107 1.749-.185 2.629 8.598-2.289 20.089-5.813 28.982-9.972-.182-1.464-.396-2.897-.626-4.273-4.191 1.253-8.8 2.36-12.904 3.649-6.893 2.165-9.449 4.873-14.854 7.781z"/>
  <path fill="#FFF" d="M1468.127 168.262c1.115-3.804 1.205-2.775 1.096-4.817-.883-3.886-.508-1.833-1.529-6.649-.302-4.782-5.163-8.021-4.949-9.378.158-1.006 2.262-1.524 4.287.441 1.143 1.182 1.661 1.876 3.199 2.538 1.334.573 2.31-1.075 3.025-1.854 2.529-2.755 3.649-5.731 4.588-6.531 1.775-2.972 2.403-4.784 3.548-5.799 2.896-2.563 3.928-1.078 2.631 1.274-.703 1.276-.921 2.78-1.655 4.304-.551 1.985-1.256 3.329-1.076 3.53.497.561 3.781-1.052 3.891 2.369.025.793 1.819-.272 1.779 2.603-.023 1.705 1.642 3.602.908 5.761-.494 1.45-2.359 3.964-3.309 5.075-.88 1.031-1.374 1.888-2.871 2.427-2.45.882-1.129 1.493-2.957 7.355-1.484 4.759-11.873 1.669-10.606-2.649z"/>
  <path fill="#321C80" d="M1385.657 225.068s-4.057 14.253-9.981 18.055c-3.957-2.332-8.862-14.193-8.862-14.193s.412-7.315.851-8.365c1.432-3.431 12.462-5.114 16.109-2.655 1.87 1.26 1.883 7.158 1.883 7.158z"/>
  <path fill="#FFF" d="M1380.489 186.577c.694.685 2.747 5.105 3.284 9.938.671 6.032-.214 12.82.277 15.109 1.251 5.828 1.846 11.961 1.846 11.961s-1.827 3.189-5.617 4.153c-6.638 1.688-11.936 1.745-12.646-1.361-.197-.861-2.221-12.033-1.824-12.828.986-1.985 11.858-29.749 14.68-26.972z"/>
  <path fill="#B6B3E0" d="M1379.751 200.171c1.819 1.124 1.286-4.666.685-5.544-1.849-2.698-6.046 6.224-8.486 9.651-1.514 2.124-1.42 4.959-3.294 6.506-.835.69 1.438-1.664-2.772 1.688s2.395 6.898 8.813 8.858c5.425 1.657 8.829-.502 9.077 4.627.477-.007 2.123-2.372 2.123-2.372s-.42-11.775-5.459-21.201c-.174-.325-.501-1.896-.687-2.213z"/>
  <path fill="#FFF" d="M1380.438 202.385s-1.428 5.668-4.66 10.543c-2.241 3.38-7.889 4.747-7.889 4.747s-5.236.434-6.04.121c-5.367-2.087-8.522-14.037-9.3-16.909-3.933-14.521-1.487-15.847 2.332-17.395 3.518-1.428 19.1-4.402 19.745-4.15.646.25 5.812 23.043 5.812 23.043z"/>
  <path opacity=".3" fill="#B6B3E0" d="M1384.531 189.777c3.801 1.139-15.769-10.53-19.039-6.688.5 3.532 7.876 14.43 7.588 24.547-.235 8.276-5.191 10.039-5.191 10.039s5.647-1.367 7.889-4.747c3.232-4.875 4.66-10.543 4.66-10.543s-3.502-14.884 4.093-12.608z"/>
  <path fill="#321C80" d="M1392.995 190.909c0-1.395-.812-2.59-1.983-3.17 1.283-.833 2.135-2.271 2.135-3.915 0-1.605-.812-3.021-2.045-3.862.57-.774.919-1.723.919-2.759 0-2.22-2.191-3.858-4.265-4.336.375-3.375-1.173-5.625-3.5-5.625-.776 0-2.594.937-3.25.625-1.961-.933-1.674-2.324-3.93-2.324-1.496 0-2.813.716-3.67 1.809-.648-1.633-2.235-2.79-4.1-2.79-1.759 0-3.266 1.035-3.977 2.522-.831-.657-1.867-1.066-3.009-1.066-2.569 0-4.653 1.996-4.837 4.52-.445-.202-.936-.32-1.457-.32-1.96 0-3.55 1.589-3.55 3.549 0 .475.097.926.267 1.34-6.738-.863-8.863 7.512-.005 12.211 2.183 1.158 7.214-.993 10.767-3.199 4.518-2.806 7.636-1.938 6.5 3.125-.521 2.313 3.983 2.65 5.017 9.316 3.858-9.441 6.804-3.555 6.815-3.504 2.098 9.026-.128 7.345-1.4 9.33 1.818 4.232 4 11.165 4 11.165.443-7.683 4.739-4.656 4.068-9.183-.5-3.375 3.515-5.158 3.515-7.118 0-1.23-.627-2.313-1.578-2.95 1.472-.434 2.553-1.779 2.553-3.391z"/>
  <path fill="#FFF" d="M1385.896 214.19c2.844 5.115 1.37 7.715 0 9.396-.692.849-2.123 6.939-2.123 6.939s2.201-1.425 3.037-1.635c.238-.06 2.188 1.907 2.188 1.907l1.918 3.032v-12.535c-3.081-5.132-3.971-6.031-5.02-7.104z"/>
  <path opacity=".7" fill="#B6B3E0" d="M1484.561 161.128c.949-1.111 2.814-3.625 3.309-5.075.733-2.159-.932-4.056-.908-5.761.03-2.158-.973-2.096-1.486-2.267-1.492.76-2.393 2.555-4.867 3.54-3.16 1.258-5.521-.449-6.021 4.245-.274 2.583 1.102 5.314.39 8.2-.614 2.485.512 1.929-.412 4.296-.226.579-.479 4.306-.554 4.97 1.387.031 3.863.394 4.723-2.366 1.828-5.862.507-6.474 2.957-7.355 1.495-.539 1.989-1.396 2.869-2.427z"/>
  <path fill="#B8CBFF" d="M1446.585 451.447c23.466-2.371 45.693-5.617 66.297-9.621v-54.532c-20.604 4.006-42.829 7.256-66.297 9.627v54.526z"/>
  <path fill="#211747" d="M1416.717 499.649l1.048 1.287 5.983 4.133s9.29 6.833 12.281 8.105c2.266.962 5.726 4.476 4.594 6.921-.817 1.771-4.154 2.462-7.641 2.586-3.434.125-9.2-.558-12.269-2.563-3.07-2.007-9.319-3.324-11.748-3.491-2.438-.165-8.438-.585-9.007-2.779-1.019-3.932.693-13.801.693-13.801l16.066-.398z"/>
  <path opacity=".6" fill="#B8CBFF" d="M1351.669 175.049c-.026.001-.055-.001-.081 0-.327.011-.637.048-.935.104-.037.008-.076.013-.113.021-.286.06-.556.142-.812.241-.038.015-.078.029-.116.045-.249.104-.483.225-.701.363-.035.021-.068.044-.102.066-.215.144-.414.302-.596.477-.025.024-.049.05-.074.075-.18.182-.345.376-.488.586-.015.022-.027.046-.043.067-.145.221-.272.453-.375.698-.005.01-.008.021-.012.029-.212.515-.33 1.078-.348 1.674-.001.018-.003.035-.004.054-.005.286.016.58.058.879.004.028.007.057.011.085.047.295.118.594.212.896.011.033.021.066.031.1.1.301.224.605.373.91.016.032.033.065.05.099.156.307.337.614.546.921.019.027.039.055.059.082.219.312.463.623.739.93.014.016.029.031.044.047.586.642 1.298 1.267 2.151 1.854.487.335 1.018.658 1.597.966.144.076.3.136.467.185-.081-.247-.087-.551-.284-.757-5.984-6.231-2.002-9.906 2.534-9.906 1.373 0-1.919-2.726.308-4.422 2.267-1.727 2.524-.541 3.153-1.502 1.932-2.95 3.413-1.59 6.392-2.354 2.664-.684.449-2.174 4.05-3.878.048-.022.07-.069.104-.108-.053-.001-.104-.012-.156-.012-1.759 0-3.266 1.035-3.977 2.522-.831-.657-1.867-1.066-3.009-1.066-2.569 0-4.653 1.996-4.837 4.52-.445-.202-.936-.32-1.457-.32-1.96 0-3.55 1.589-3.55 3.549 0 .475.097.926.267 1.34-.375-.051-.731-.066-1.076-.06z"/>
  <path fill="#B8CBFF" d="M1269.729 358.223v94.008c26.788 2.445 55.091 3.759 84.365 3.759 24.24 0 47.812-.903 70.412-2.601v-94.006c-22.6 1.697-46.172 2.599-70.412 2.599-29.276-.001-57.578-1.314-84.365-3.759z"/>
  <path fill="#FFF" d="M1366.257 218.392s-.765 3.804-.4 6.719c.083.664.871 4.222 1.987 6.151-.813-1.154-2.48-2.168-2.88-1.062-.89 2.461-2.19 5.808-2.19 5.808v-10.055l3.483-7.561z"/>
  <path fill="#5DB2BF" d="M1277.891 231.732c-.322-.803-.398-1.357-.26-1.99.071-.331.159-.583.448-.787.102-.072.352-.126.454-.163l-53.15-62.525-.845.702 53.483 65.07c-.01-.101-.091-.208-.13-.307z"/>
  <path opacity=".4" fill="#2C1E5E" d="M1500.415 518.03h-15.335c-18.484.981-22.233-1.554-21.002-4.302 4.633-10.335-20.437-8.048-25.453-8.516h-27.34c-6.749.62-13.654-.438-20.505.736-7.566 1.296-37.932.091-52.679 4.108-4.118 1.122-17.095 1.115-18.832 4.221-3.921 7.009 14.038 6.479 19.831 8.74 8.832 3.448 15.409 5.599 16.514 5.546.344-.017 6.992-.016 8.489 0l127.511-.113h8.801c4.924.113 8.57-2.332 8.57-5.21s-4.168-5.139-8.57-5.21z"/>
  <path fill="#EEEBF5" d="M1752.586 298.563c3.944 5.058 3.056 12.36-1.989 16.31-5.043 3.948-12.334 3.053-16.278-2.006-3.949-5.06-3.056-12.359 1.986-16.31 5.046-3.95 12.333-3.053 16.281 2.006z"/>
  <path fill="#2C1E5E" d="M1746.78 301.691c-1.162-.143-2.253.346-2.983 1.2-.507-1.007-1.448-1.745-2.608-1.888-1.893-.234-3.622 1.193-3.865 3.188-.022.202-.029.401-.021.601-.001.312.031.641.097.986.495 2.57 3.869 5.342 5.27 6.371 1.604-.657 5.544-2.527 6.644-4.903.146-.319.256-.631.329-.936.057-.188.1-.383.124-.588.242-1.99-1.098-3.796-2.987-4.031z"/>
  <path opacity=".5" fill="none" stroke="#FFF" stroke-width="2.4909" stroke-miterlimit="10" d="M1009.597 381.731c0 5.992-4.854 10.845-10.842 10.845-5.986 0-10.842-4.853-10.842-10.845 0-5.985 4.855-10.839 10.842-10.839 5.987.001 10.842 4.854 10.842 10.839z"/>
  <path opacity=".5" fill="#B8CBFF" d="M998.755 393.821c-6.665 0-12.087-5.423-12.087-12.09 0-6.662 5.422-12.084 12.087-12.084s12.087 5.422 12.087 12.084c0 6.667-5.422 12.09-12.087 12.09zm0-21.683c-5.292 0-9.597 4.304-9.597 9.594 0 5.293 4.305 9.6 9.597 9.6s9.597-4.307 9.597-9.6c0-5.291-4.305-9.594-9.597-9.594z"/>
  <path fill="#FFF" d="M998.755 372.138c-5.292 0-9.597 4.304-9.597 9.594 0 5.293 4.305 9.6 9.597 9.6s9.597-4.307 9.597-9.6c0-5.291-4.305-9.594-9.597-9.594z"/>
  <path fill="#321C80" d="M1005.211 383.895l-5.147-2.126v-5.647c0-.724-.584-1.31-1.309-1.31-.722 0-1.31.586-1.31 1.31v6.442c0 .017.007.032.011.047-.016.527.282 1.033.799 1.245l5.959 2.46c.668.273 1.433-.042 1.71-.714.274-.669-.044-1.433-.713-1.707z"/>
  <ellipse transform="matrix(-.9799 -.1993 .1993 -.9799 2325.7893 1038.4158)" fill="#211747" cx="1215.168" cy="402.129" rx="3.38" ry="7.969"/>
  <path fill="#4225AB" d="M1213.577 396.438c-1.591-.324-3.5 2.454-4.265 6.207-.765 3.754-.093 7.056 1.499 7.38.106.021.214.027.322.022 0 0 .011.003.018.003h2.882c.422 0 .766-.301.766-.673 0-.37.37-12.613-1.222-12.939z"/>
  <ellipse fill="#321C80" cx="1542.612" cy="347.934" rx="1.973" ry="2.688"/>
  <ellipse fill="#B8CBFF" cx="1549.161" cy="346.264" rx="1.795" ry="2.688"/>
  <ellipse fill="#5DB2BF" cx="1555.43" cy="344.442" rx="1.788" ry="2.688"/>
  <path opacity=".3" fill="#5140AE" d="M1541.64 366.002v62.206c15.797-3.907 30.343-8.298 43.413-13.103v-62.168c-12.807 4.642-27.265 9.064-43.413 13.065z"/>
  <path fill="#5140AE" d="M1541.64 428.208c15.797-3.907 30.343-8.298 43.413-13.103v-18.323c-13.07 4.805-27.616 9.195-43.413 13.103v18.323zM1617.894 386.987c-8.317 4.193-17.577 8.25-27.523 12.069v1.895c9.59-3.708 18.526-7.635 26.568-11.689 6.602-3.328 12.5-6.712 17.567-10.067v-1.63c-4.866 3.148-10.442 6.311-16.612 9.422zM1617.132 338.932c-7.836 3.95-16.762 7.882-26.762 11.689v6.496c10-3.808 18.926-7.739 26.762-11.689 6.409-3.23 12.238-6.564 17.374-10.019v-6.496c-5.136 3.454-10.965 6.788-17.374 10.019z"/>
  <path fill="#5140AE" d="M1555.09 383.392c-2.921.812-5.891 1.614-8.935 2.398v40.703c3.03-.779 6.002-1.58 8.935-2.395v-40.706z"/>
  <path fill="#5140AE" d="M1553.404 381.784c-1.818.506-3.668 1.005-5.563 1.493v33.017c1.887-.485 3.737-.983 5.563-1.491v-33.019z"/>
  <path fill="#5140AE" d="M1552.305 379.833c-1.1.307-2.218.608-3.364.903v19.966c1.141-.294 2.26-.595 3.364-.902v-19.967z"/>
  <path fill="#4225AB" d="M1161.972 410.134c0 5.491 3.792 9.942 8.907 9.942.202 0 2.845.014 3.044 0 4.834-.332 6.571-4.668 6.571-9.942 0-5.491-4.146-9.942-9.261-9.942s-9.261 4.451-9.261 9.942z"/>
  <path fill="#5140AE" d="M1567.736 373.061v-4.116c-.995.315-2.009.626-3.03.937v-6.828c-.297.094-.6.187-.911.275v6.826c-1 .3-2.005.598-3.03.893v4.116c-.71.207-1.403.418-2.12.624v47.889c3.835-1.1 7.559-2.238 11.212-3.397v-47.872c-.697.218-1.417.434-2.121.653z"/>
  <path fill="#5140AE" d="M1558.645 393.65v2.092l-3.555 1.04v-6.498c-4.351 1.211-8.822 2.396-13.45 3.542v34.382c15.797-3.907 30.343-8.298 43.413-13.103v-19.113c-1.461.529-2.943 1.057-4.447 1.58-.76.264-1.524-10.339-2.295-10.076-6.199 2.113-12.754 4.17-19.666 6.154z"/>
  <path fill="#5140AE" d="M1581.741 370.846c-3.42 1.34-7.452 2.602-9.993 8.496v40.338c3.415-1.104 6.748-2.232 9.993-3.387v-45.447z"/>
  <g fill="#5140AE">
    <path d="M1612.438 351.149c-6.656 3.175-14.007 6.325-22.067 9.395v6.496c8.061-3.069 15.411-6.22 22.067-9.395v-6.496zM1626.34 343.903c-2.914 1.678-5.987 3.328-9.208 4.951-.53.268-1.079.534-1.619.802v6.496c.54-.268 1.089-.534 1.619-.802 3.221-1.623 6.294-3.273 9.208-4.951v-6.496z"/>
  </g>
  <path fill="#5140AE" d="M1627.303 386.105v1.715c2.553-1.486 4.964-2.975 7.203-4.458v-1.629c-2.251 1.456-4.66 2.916-7.203 4.372zM1596.602 400.761c-2.047.831-4.12 1.655-6.231 2.466v1.893c2.112-.816 4.186-1.646 6.231-2.482v-1.877z"/>
  <g fill="#5140AE">
    <path d="M1609.367 374.407c-5.976 2.745-12.327 5.414-18.997 7.976v1.895c6.68-2.583 13.033-5.273 18.997-8.038v-1.833zM1617.894 370.313c-1.987 1.002-4.033 1.996-6.125 2.981v1.818c1.758-.836 3.487-1.678 5.17-2.525 3.831-1.932 7.416-3.881 10.748-5.833v-1.714c-3.067 1.767-6.333 3.528-9.793 5.273z"/>
  </g>
  <path opacity=".5" fill="#4225AB" d="M1119.666 350.318v16.721c12.337 4.41 25.935 8.46 40.611 12.092V362.41c-14.676-3.632-28.274-7.681-40.611-12.092z"/>
  <g fill="#5140AE">
    <path d="M1630.521 359.207c-3.538 2.133-7.393 4.262-11.518 6.371v1.784c4.146-2.145 7.998-4.31 11.518-6.472v-1.683zM1616.602 366.785c-7.983 3.966-16.793 7.806-26.231 11.43v1.894c9.458-3.657 18.276-7.527 26.231-11.522v-1.802z"/>
  </g>
  <path fill="#5DB2BF" d="M1590.37 407.395v6.458c6.028-2.315 11.799-4.719 17.266-7.186v-6.458c-5.467 2.467-11.238 4.87-17.266 7.186z"/>
  <path fill="#FFF" d="M1595.635 407.173v2.519c2.352-.902 4.604-1.84 6.736-2.803v-2.52c-2.133.963-4.385 1.901-6.736 2.804z"/>
  <path fill="#5140AE" d="M1623.327 379.974v1.752c2.614-1.435 5.106-2.874 7.438-4.313v-1.678c-2.34 1.415-4.833 2.829-7.438 4.239z"/>
  <g fill="#5140AE">
    <path d="M1617.894 374.482c-1.987 1.002-4.033 1.996-6.125 2.981v1.817c1.758-.836 3.487-1.678 5.17-2.525 6.602-3.328 12.5-6.712 17.567-10.067v-1.629c-4.866 3.149-10.442 6.312-16.612 9.423zM1600.203 384.466c3.147-1.331 6.203-2.686 9.164-4.059v-1.831c-2.963 1.361-6.02 2.703-9.164 4.023v1.867zM1597.802 383.602c-2.431.997-4.908 1.982-7.432 2.951v1.893c2.525-.977 5.001-1.969 7.432-2.974v-1.87z"/>
  </g>
  <path opacity=".2" fill="#4225AB" d="M1131.46 412.495s23.238 8.381 30.388 9.587 59.698-12.391 59.698-12.391 6.154-.19 3.607-1.842-21.333-6.207-21.333-6.207l-68.867 4.556s-7.857.005-7.121 2.324 3.628 3.973 3.628 3.973z"/>
  <ellipse fill="#5DB2BF" cx="1138.369" cy="376.24" rx="13.726" ry="17.519"/>
  <ellipse fill="#5140AE" cx="1234.84" cy="383.565" rx="4.244" ry="5.417"/>
  <g fill="#FFF">
    <path d="M1139.972 384.372c.011 1.352-.952 2.197-2.152 1.888-1.2-.313-2.183-1.662-2.194-3.013l-.106-12.504c-.013-1.347.951-2.193 2.151-1.882 1.2.312 2.182 1.659 2.194 3.011l.107 12.5zM1145.929 385.843c.013 1.351-.952 2.196-2.151 1.885-1.201-.312-2.184-1.659-2.195-3.01l-.105-12.503c-.015-1.349.951-2.195 2.152-1.884 1.199.311 2.181 1.659 2.192 3.01l.107 12.502zM1130.439 370.818l.857.525v11.971c.854.511 1.729 1.012 2.616 1.511v-16.754l-3.473 2.747z"/>
  </g>
  <g fill="#5140AE">
    <path d="M1611.237 394.374c-3.919 1.834-7.992 3.64-12.234 5.4v1.868c4.245-1.776 8.322-3.595 12.234-5.443v-1.825zM1617.894 391.156c-1.391.701-2.812 1.397-4.255 2.091v1.806c1.111-.539 2.221-1.079 3.3-1.623 2.785-1.404 5.438-2.818 7.963-4.236v-1.736c-2.241 1.237-4.576 2.472-7.008 3.698z"/>
  </g>
  <g fill="#5140AE">
    <path d="M1617.894 382.819c-3.517 1.772-7.211 3.52-11.045 5.235v1.844c3.495-1.578 6.867-3.181 10.09-4.806 1.361-.687 2.687-1.375 3.987-2.065v-1.77c-.996.522-2.002 1.043-3.032 1.562zM1604.447 389.121c-4.509 1.972-9.209 3.898-14.077 5.768v1.894c4.872-1.884 9.573-3.825 14.077-5.81v-1.852z"/>
  </g>
  <g fill="#5140AE">
    <path d="M1620.926 377.084c-.998.523-2 1.046-3.032 1.566-8.317 4.193-17.577 8.25-27.523 12.07v1.894c9.59-3.708 18.526-7.635 26.568-11.689 1.36-.686 2.688-1.374 3.987-2.063v-1.778zM1623.327 375.801v1.751c3.087-1.695 6.007-3.397 8.699-5.097v-1.664c-2.706 1.673-5.624 3.346-8.699 5.01z"/>
  </g>
  <g fill="#5140AE">
    <path d="M1624.762 358.42c-2.441 1.371-4.982 2.724-7.63 4.058-3.881 1.956-8.031 3.908-12.445 5.843v1.703c4.272-1.888 8.369-3.814 12.252-5.772 2.733-1.378 5.34-2.766 7.823-4.157v-1.675zM1602.285 369.355c-3.789 1.62-7.753 3.227-11.915 4.812v1.773c4.101-1.585 8.072-3.213 11.915-4.871v-1.714zM1627.163 357.044v1.679c2.605-1.514 5.062-3.029 7.343-4.539v-1.725c-2.309 1.553-4.765 3.08-7.343 4.585z"/>
  </g>
  <path fill="#5DB2BF" d="M1658.012 299.926c-1.867 8.516-8.441 15.052-18.506 22.719v62.105c10.294-8.738 17.06-20.528 18.506-31.812v-53.012z"/>
  <ellipse fill="#FFF" cx="1644.286" cy="339.826" rx="1.337" ry="1.821"/>
  <ellipse fill="#FFF" cx="1644.286" cy="347.934" rx="1.337" ry="1.821"/>
  <ellipse fill="#FFF" cx="1644.286" cy="356.041" rx="1.337" ry="1.821"/>
  <path fill="#D4E5FA" d="M1219.52 390.573c-.897-3.738-5.981-11.664-5.981-11.664s-4.486-3.089-18.244-4.969c-6.402-.875-18.991-1.61-24.524-1.013s-17.496 7.327-17.496 7.327-6.729 2.991-8.972 3.141-5.085.149-7.028 1.495-3.141 3.739-3.141 3.739-3.907 4.572-4.935 5.981c-1.633 2.24-1.347 5.664-1.347 5.664l1.047 1.663-.448 2.077s0 .764.598 1.811 1.944 1.646 4.636 2.842 12.861 4.187 18.693 5.233 14.355.897 14.355.897l16.001-3.298 26.169-4.396 2.974-1.112c-.009-1.049.099-2.205.344-3.407.842-4.131 2.943-7.189 4.694-6.833 1.414.289 2.167 2.711 1.964 5.804.244-.96.505-2.102.642-3.058.297-2.092.896-4.185-.001-7.924z"/>
  <ellipse fill="#FFF" cx="1644.286" cy="364.148" rx="1.337" ry="1.821"/>
  <path fill="#FFF" d="M1646.259 323.663v5.974c5.32-4.604 7.361-6.692 9.984-12.093v-5.02c-2.605 4.063-5.491 7.108-9.984 11.139zM1649.259 351.205v4.386c-.524.688 6.396-7.096 6.984-11.688v-1.565c-1.282 3.229-3.358 5.489-6.984 8.867zM1649.259 359.197v4.9c3.793-5.355 6.247-7.726 6.984-13.477v-3.631c-.634 4.944-3.866 8.869-6.617 11.694-.122.172-.242.338-.367.514zM1649.259 343.903v4.371c3.626-3.378 5.702-5.638 6.984-8.867v-4.371c-1.282 3.23-3.358 5.489-6.984 8.867zM1649.259 336.188v4.045c3.626-3.378 5.702-5.638 6.984-8.867v-4.045c-1.282 3.23-3.358 5.49-6.984 8.867z"/>
  <ellipse transform="rotate(-8.645 1558.4968109 229.4475149)" fill="#321C80" cx="1558.021" cy="229.408" rx=".643" ry=".78"/>
  <ellipse transform="matrix(.9431 -.3326 .3326 .9431 10.6422 532.109)" fill="#321C80" cx="1559.717" cy="234.967" rx=".643" ry=".78"/>
  <path opacity=".5" fill="#5140AE" d="M1143.625 383.436c-2.117.122-4.598.241-6.352 1.455-1.943 1.346-3.141 3.739-3.141 3.739s-.145.161-.385.431c1.917-.115 4.071-1.254 5.502-2.031 1.414-.768 2.625-1.73 3.697-2.919.147-.162.394-.398.679-.675zM1169.012 388.33c-3.076.029-5.634.237-8.41 1.229-2.491.89-3.932 1.661-5.551 3.079-1.062.932-2.719 2.98-4.917 3.768 0 0 8.31-.63 13.003-1.679 2.513-.562 6.31-1.518 8.68-2.867 2.106-1.199 3.43-2.124 4.196-4.355-2.411.945-4.516.802-7.001.825z"/>
  <path opacity=".2" fill="#4225AB" d="M1136.228 390.148s.304-.275.66-.275c.997 0 5.107 1.106 7.085 1.882.633.248.518 1.017.338 1.301-.774 1.225-3.801 3.306-4.575 3.558-1.049.341-2.041.257-2.613.113s-2.018-.707-2.502-1.072c-.734-.554-.519-1.04-.412-1.415.348-1.231 2.019-4.092 2.019-4.092z"/>
  <path fill="#4225AB" d="M1155.819 407.604c-.688-1.161-2.335-1.08-3.392-1.08-.635 0-2.109.219-2.109.219-.539.247-.727.759-.628 1.315.137.775.503 2.016 1.378 2.372.533.217 2.854.002 3.504-.125 1.278-.25 2.003-1.426 1.247-2.701zM1146.541 407.344c-.143-.146-.294-.175-.514-.217-6.256-1.198-13.824-4.367-16.098-5.451-.422-.201-1.27-.933-1.285-.965-.168.186.486.72.313.902-.098.103-.286.376-.289.477-.008.283-.096.779.116.931 5.863 4.185 19.499 7.17 19.334 6.618-.109-.373-1.398-2.113-1.577-2.295z"/>
  <path opacity=".2" fill="#4225AB" d="M1166.732 414.799l16.001-3.298 26.169-4.396 2.974-1.112c-.009-1.049.099-2.205.344-3.407.842-4.131 2.943-7.189 4.694-6.833 1.414.289 2.167 2.711 1.964 5.804.244-.96.505-2.102.642-3.058.299-2.094.897-4.188 0-7.926-.265-1.103-.896-2.57-1.652-4.091-.332.078-.656.16-.961.252-5.336 1.609-7.896 1.593-9.604 2.021s-12.382 1.637-15.793 1.825c-4.723.261-8.536.733-12.311 1.374s-10.64 3.236-13.939 4.896c-3.294 1.657-2.004 1.657-12.364 5.576-8.777 3.32-21.305-3.372-21.305-3.372s-2.541-1.327-3.214-2.844c-.724 1.142-.525 4.063-.525 4.063l1.047 1.663-.448 2.077s-.07.823.682 1.93c.678.997 1.86 1.526 4.552 2.723s12.861 4.187 18.693 5.233 14.354.9 14.354.9z"/>
  <path opacity=".4" fill="#4225AB" d="M1207.771 398.709c-.363-1.601-3.16-1.114-3.16-1.114l-20.273 2.901c.738 1.306 1.275 3.107 1.517 5.164l18.757-3.232c-.001 0 3.732-1.197 3.159-3.719z"/>
  <ellipse transform="rotate(-168.493 1215.4030991 403.2366898)" fill="#4225AB" cx="1215.393" cy="403.232" rx="2.941" ry="6.933"/>
  <path fill="#211747" d="M1182.923 400.743c-1.333-2.687-3.75-2.75-5.5-2.667s-4 1.5-5.855 3.75-3.395 11.333-8.146 12.959c1.97.036 3.311.014 3.311.014l16.001-3.298.405-.068c.115-.492.215-.939.284-1.299.632-3.258.812-6.745-.5-9.391z"/>
  <path fill="#211747" d="M1182.923 400.743c-1.333-2.687-3.75-2.75-5.5-2.667s-4 1.5-5.855 3.75-3.395 11.333-8.146 12.959c1.97.036 3.311.014 3.311.014l16.001-3.298.405-.068c.115-.492.215-.939.284-1.299.632-3.258.812-6.745-.5-9.391z"/>
  <path fill="#4225AB" d="M1142.62 401.633c-.09-.093-.187-.111-.326-.138-3.977-.762-8.65-2.712-10.096-3.401-.079-.038-.224-.157-.396-.102-.129.042-.191.071-.238.204-.057.159-.08.329-.102.496-.009.067-.001.269.128.363 3.729 2.74 11.626 4.379 11.523 4.036-.069-.237-.379-1.342-.493-1.458zM1182.318 389.061c-.35-.214-.75-.943-.188-1.818s9.039-9.39 11.312-10.25c2.312-.875 3.188-.875 4.438-.875s13.099 2.25 14.035 3.625 1.074 2.994 1.059 3.693c-.026 1.189-.05 1.225-1.426 1.912s-4.481 1.723-7.48 2.156c-16.375 2.369-21.145 1.926-21.75 1.557zM1199.66 391.733c.151-.188.783-.304.783-.304s.438-1.062 1.125-.938.674.694 1.375.641c1.219-.094.812.547.812.547s-.562.438-1.75.625-1.789.211-2.141.083c-.122-.044-.374-.442-.204-.654zM1211.767 389.906c.112-.174.579-.279.579-.279s.323-.977.831-.861c.509.114.498.638 1.017.588.9-.085.601.503.601.503s-.416.401-1.294.574c-.877.173-1.322.194-1.582.076-.092-.041-.277-.406-.152-.601zM1171.567 373.94c-1.255-.057-2.661-.138-4.114-.229-5.964 1.923-14.18 6.543-14.18 6.543s-2.793 1.24-5.381 2.164c.313.44.629.812.912 1.017 2.447 1.775 8.889 2.405 11.884 2.812 5.795.787 12.776.494 15.067 0s4.306-1.644 6.095-3.457 7.613-6.408 8.312-6.674-13.762-1.958-18.595-2.176z"/>
  <ellipse transform="matrix(-.9799 -.1993 .1993 -.9799 2326.0249 1040.6256)" fill="#D4E5FA" cx="1215.393" cy="403.232" rx="2.08" ry="4.903"/>
  <ellipse transform="matrix(-.98 -.1992 .1992 -.98 2326.1052 1040.4858)" opacity=".2" fill="#4225AB" cx="1215.393" cy="403.232" rx="1.066" ry="2.514"/>
  <path fill="#4225AB" d="M1173.662 400.191c-.184 0-.363.019-.545.029-.533.472-1.056 1.007-1.55 1.605-1.622 1.966-3.002 9.149-6.495 12.016.124.33.261.652.416.964.775.001 1.244-.007 1.244-.007l16.001-3.298.094-.016c.057-.443.096-.892.096-1.352 0-5.489-4.146-9.941-9.261-9.941z"/>
  <path fill="#4225AB" d="M1182.733 411.501l-16.001 3.298s-.471.008-1.244.007c1.559 3.136 4.633 5.271 8.174 5.271 4.688 0 8.55-3.74 9.165-8.591l-.094.015z"/>
  <path fill="#D4E5FA" d="M1173.662 402.428c-1.002 0-1.955.222-2.821.619-1.083 2.247-2.224 6.202-4.136 8.956.779 3.351 3.594 5.837 6.957 5.837 3.965 0 7.178-3.45 7.178-7.706s-3.213-7.706-7.178-7.706z"/>
  <ellipse opacity=".2" fill="#4225AB" cx="1173.662" cy="410.134" rx="2.971" ry="3.189"/>
  <path opacity=".5" fill="#4225AB" d="M1168.932 393.123c-.819-1.246-2.257-1.861-3.666-2.021-1.199-.136-5.435.513-7.792-.188-.863.478-1.622 1.021-2.423 1.723-.09.079-.189.175-.287.269.404-.027.744-.045.964-.037 1.927.069 1.801 1.023 3.356 1.236 1.369.188 2.472-.421 3.881-.171.551.098 1.035.278 1.51.479 1.395-.336 2.977-.766 4.457-1.29z"/>
  <path fill="none" stroke="#FFF" stroke-width=".8705" stroke-miterlimit="10" d="M1315.215 410.317c-3.218-.138-6.426-.282-9.625-.437M1395.17 389.617c-25.293 1.021-66.791 1.639-79.951.053v40.339c6.92 1.278 18.634 1.735 31.67 1.726"/>
  <path opacity=".7" fill="#FFF" d="M1306.007 394.822c-5.198-.294-10.317-.66-15.346-1.098v32.088c5.028.436 10.147.802 15.346 1.098v-32.088z"/>
  <path opacity=".3" fill="#5140AE" d="M1293.797 419.48c2.974.257 6 .474 9.074.648v-12.263c-3.074-.175-6.101-.392-9.074-.648v12.263z"/>
  <path fill="#5140AE" d="M1302.888 398.706c-3.085-.175-6.123-.392-9.107-.651v2.839c2.984.259 6.022.477 9.107.651v-2.839z"/>
  <path opacity=".3" fill="#5140AE" d="M1363.535 416.458c-3.065.034-6.141.058-9.232.058-2.483 0-4.952-.02-7.419-.041v30.495c2.467.021 4.936.041 7.419.041 3.092 0 6.167-.023 9.232-.058v-30.495z"/>
  <path opacity=".7" fill="#FFF" d="M1360.429 422.158c-1.922.021-3.85.035-5.788.035-1.557 0-3.104-.012-4.65-.025v19.117c1.547.014 3.094.025 4.65.025 1.938 0 3.866-.014 5.788-.035v-19.117z"/>
  <path fill="#5DB2BF" d="M1363.535 376.157c-3.065.034-6.141.058-9.232.058-2.483 0-4.952-.02-7.419-.041v29.452c2.467.021 4.936.041 7.419.041 3.092 0 6.167-.023 9.232-.058v-29.452zM1339.22 376.288c-5.507-.104-10.969-.26-16.38-.469v29.351c5.411.209 10.873.364 16.38.469v-29.351z"/>
  <path opacity=".7" fill="#FFF" d="M1336.882 390.422c-3.935-.075-7.838-.186-11.705-.335v5.981c3.867.148 7.771.26 11.705.334v-5.98z"/>
  <path fill="#5140AE" d="M1336.882 398.176c-3.935-.075-7.838-.186-11.705-.335v3.208c3.867.148 7.771.26 11.705.334v-3.207z"/>
  <path opacity=".7" fill="#FFF" d="M1336.882 386.191c-3.935-.075-7.838-.186-11.705-.335v2.366c3.867.148 7.771.26 11.705.334v-2.365z"/>
  <path fill="#FFF" d="M1325.177 380.075v2.635c3.867.149 7.771.26 11.705.335v-2.635c-3.935-.075-7.838-.185-11.705-.335z"/>
  <path fill="#5DB2BF" d="M1057.082 304.323v54.78c0 13.263 21.951 26.425 33.239 32.371V332c-10.221-5.241-28.947-16.093-33.239-27.677z"/>
  <path fill="#5140AE" d="M1339.22 446.982v-30.027c-5.507-.104-10.969-.26-16.38-.469v30.027"/>
  <path fill="#FFF" d="M1325.178 420.839v2.99c3.866.149 7.77.261 11.704.335v-2.99c-3.935-.074-7.838-.186-11.704-.335zM1325.178 428.128v2.99c3.866.149 7.77.261 11.704.335v-2.99c-3.935-.074-7.838-.186-11.704-.335zM1325.178 434.062v.99c3.866.149 7.77.261 11.704.335v-.99c-3.935-.074-7.838-.185-11.704-.335z"/>
  <path fill="#5DB2BF" d="M1370.926 376.083v29.563c5.631-.113 11.197-.302 16.725-.527v-29.563c-5.528.225-11.094.414-16.725.527z"/>
  <path opacity=".7" fill="#FFF" d="M1411.603 373.988c-5.418.387-10.896.724-16.435 1.002v30.191c5.539-.278 11.017-.615 16.435-1.002v-30.191z"/>
  <path fill="#5140AE" d="M1408.341 397.595c-3.268.234-6.571.437-9.911.604v1.535c3.34-.168 6.644-.371 9.911-.604v-1.535zM1408.341 378.764c-3.268.234-6.571.437-9.911.604v2.537c3.34-.168 6.644-.371 9.911-.604v-2.537zM1310.402 370.07c-9.392-.512-18.617-1.176-27.633-1.999v4.153c9.016.823 18.241 1.487 27.633 1.998v-4.152zM1298.334 376.898c-5.248-.366-10.443-.776-15.564-1.244v2.076c5.121.468 10.316.878 15.564 1.244v-2.076z"/>
  <path opacity=".7" fill="#FFF" d="M1387.65 441.528v4.464c8.934-.366 17.731-.869 26.355-1.517v-4.464c-8.622.648-17.421 1.151-26.355 1.517zM1387.65 435.251v2.464c8.934-.366 17.731-.869 26.355-1.517v-2.464c-8.622.648-17.421 1.151-26.355 1.517z"/>
  <ellipse fill="#5DB2BF" cx="1403.385" cy="390.267" rx="4.293" ry="5.48"/>
  <g>
    <path fill="#FFF" d="M1403.434 392.479l-2.313-2.594.734-.656 1.368 1.533 1.834-3.499.873.457z"/>
  </g>
  <g fill="#4225AB">
    <path d="M1075.465 371.43l-5.526-4.784v-35.771l5.526 4.783z"/>
    <path d="M1061.631 335.33l3.041-4.578 19.101 36.221-3.041 4.58z"/>
    <path d="M1080.93 346.508l2.932 7.764-19.389 2.204-2.932-7.764z"/>
  </g>
  <g>
    <g opacity=".5">
      <defs>
        <path id="e" d="M1270.731 91.59h14.95v12.175h-14.95z"/>
      </defs>
      <clipPath id="f">
        <use xlink:href="#e" overflow="visible"/>
      </clipPath>
      <path clip-path="url(#f)" fill="#FFF" d="M1285.685 93.021c-.55.245-1.142.41-1.765.487.636-.381 1.118-.984 1.347-1.702-.592.354-1.247.611-1.947.749-.562-.597-1.358-.969-2.245-.966-1.693.002-3.066 1.379-3.062 3.075 0 .24.026.476.079.699-2.552-.126-4.815-1.341-6.335-3.197-.264.452-.413.983-.413 1.546.001 1.063.544 2.004 1.372 2.553-.507-.015-.979-.152-1.393-.382v.038c.002 1.486 1.062 2.727 2.469 3.007-.26.071-.531.109-.809.109-.201 0-.393-.019-.579-.053.395 1.217 1.529 2.104 2.872 2.126-1.051.827-2.372 1.319-3.812 1.32-.246.001-.491-.015-.732-.041 1.36.869 2.977 1.377 4.709 1.374 5.649-.013 8.73-4.695 8.724-8.754 0-.131-.003-.266-.008-.396.596-.433 1.114-.975 1.528-1.592"/>
    </g>
    <circle opacity=".5" fill="#B8CBFF" cx="1277.401" cy="97.678" r="12.987"/>
  </g>
  <circle opacity=".5" fill="#B8CBFF" cx="1557.612" cy="124.814" r="16.675"/>
  <circle fill="#2C1E5E" cx="1420.662" cy="116.39" r="14.623"/>
  <g>
    <path fill="#B8CBFF" d="M1197.413 304.28v48.026c17.018 3.246 35.116 5.982 54.093 8.137V312.42c-18.978-2.154-37.076-4.892-54.093-8.14z"/>
    <path fill="none" stroke="#FFF" stroke-miterlimit="10" d="M1244.308 323.091c-4.104-.466-8.153-.969-12.142-1.508-2.5-.338-4.977 7.048-7.429 6.682-3.724-.556-7.392-1.143-10.999-1.76-3.087-.528-6.13 6.428-9.127 5.856v14.637c12.488 2.383 25.771 4.391 39.696 5.972"/>
    <path opacity=".3" fill="#5140AE" d="M1207.695 339.286v8.281c2.539.466 5.099.921 7.697 1.356v-8.281c-2.598-.435-5.158-.891-7.697-1.356z"/>
    <path fill="#5140AE" d="M1232.583 351.511c2.948.396 5.933.771 8.945 1.128v-21.327c-3.013-.357-5.997-.731-8.945-1.128v21.327z"/>
    <path fill="#5DB2BF" d="M1229.378 337.737c-3.968-.551-7.881-1.133-11.725-1.752v13.467c3.844.619 7.757 1.2 11.725 1.751v-13.466z"/>
    <path fill="none" stroke="#FFF" stroke-miterlimit="10" d="M1204.611 311.754v35.244c12.488 2.383 25.771 4.391 39.696 5.972"/>
  </g>
  <path fill="#FFF" d="M1361.377 380.061c-2.352.023-4.706.044-7.074.044-1.682 0-3.353-.016-5.025-.028v2.969c1.673.013 3.344.028 5.025.028 2.368 0 4.723-.021 7.074-.044v-2.969z"/>
  <path opacity=".7" fill="#FFF" d="M1361.377 385.756c-2.352.023-4.706.044-7.074.044-1.682 0-3.353-.016-5.025-.028v2.292c1.673.013 3.344.028 5.025.028 2.368 0 4.723-.021 7.074-.044v-2.292zM1361.311 390.207c-2.352.023-4.706.044-7.074.044-1.682 0-3.353-.016-5.025-.028v2.292c1.673.013 3.344.028 5.025.028 2.368 0 4.723-.021 7.074-.044v-2.292z"/>
  <path fill="#5140AE" d="M1361.377 398.294c-2.352.023-4.706.044-7.074.044-1.682 0-3.353-.016-5.025-.028v2.969c1.673.013 3.344.028 5.025.028 2.368 0 4.723-.021 7.074-.044v-2.969zM1502.193 328.129c-1.46-2.123-4.156-3.633-6.816-2.671l-.389.141c-.897.325-1.679.87-2.304 1.549l-11.247 1.541-.119.018-11.247 1.541c-.624-.509-1.406-.84-2.304-.918l-.389-.034c-2.66-.233-5.356 2.016-6.816 4.539-3.513 6.075-4.525 22.729-4.525 22.729-.093 2.96 1.71 5.16 4.368 5.394l.391.033c2.663.231 5.302-1.821 5.89-4.591l1.702-7.971 12.935-1.771.119-.017 12.934-1.772 1.704 7.503c.59 2.608 3.229 3.938 5.892 2.977l.391-.141c2.658-.963 4.461-3.655 4.367-6.591-.001-.002-1.021-16.377-4.537-21.488z"/>
  <path fill="#3D3083" d="M1477.916 344.262c.001 2.622-2.104 5.036-4.699 5.392-2.597.355-4.701-1.481-4.702-4.104 0-2.621 2.104-5.034 4.7-5.39s4.701 1.481 4.701 4.102z"/>
  <path fill="#211355" d="M1470.281 337.57c0 3.003-2.41 5.768-5.383 6.175s-5.385-1.697-5.385-4.698c0-3.002 2.409-5.767 5.382-6.174s5.384 1.697 5.386 4.697z"/>
  <path fill="#5140AE" d="M1476.268 344.488c0 1.702-1.365 3.27-3.051 3.5-1.687.23-3.055-.962-3.055-2.663 0-1.703 1.367-3.271 3.053-3.502 1.685-.23 3.053.962 3.053 2.665z"/>
  <g fill="#5140AE">
    <path d="M1463.545 334.795l2.703-.371v2.188l-1.351 1.28-1.352-.909zM1466.248 341.887l-2.703.371v-2.188l1.351-1.28 1.352.909z"/>
  </g>
  <path fill="#5140AE" d="M1468.592 336.471v2.729l-1.624.224-1.626-1.143 1.625-1.588zM1461.201 340.212v-2.731l1.625-.222 1.626 1.142-1.625 1.588z"/>
  <path fill="#3D3083" d="M1484.845 343.313c.001 2.621 2.106 4.457 4.702 4.101 2.596-.355 4.701-2.769 4.7-5.39 0-2.621-2.106-4.459-4.702-4.104-2.596.357-4.7 2.771-4.7 5.393zM1479.969 343.98c0 .754.606 1.281 1.353 1.18.747-.102 1.353-.796 1.353-1.55 0-.755-.605-1.283-1.353-1.181-.747.103-1.353.798-1.353 1.551z"/>
  <path fill="#211355" d="M1492.479 334.529c0 3.001 2.412 5.105 5.385 4.697 2.973-.407 5.383-3.172 5.383-6.173 0-3.002-2.413-5.105-5.386-4.698-2.972.409-5.382 3.172-5.382 6.174z"/>
  <path opacity=".5" fill="#B8CBFF" d="M1496.215 337.78c0 .919.738 1.563 1.648 1.438.91-.124 1.647-.971 1.647-1.891 0-.917-.738-1.562-1.648-1.438-.909.127-1.647.973-1.647 1.891z"/>
  <path fill="#5DB2BF" d="M1496.214 330.318c0 .918.738 1.562 1.647 1.438.91-.125 1.648-.971 1.648-1.891 0-.919-.739-1.562-1.649-1.438-.909.125-1.646.971-1.646 1.891z"/>
  <g fill="#5140AE">
    <path d="M1492.598 334.513c0 .919.738 1.562 1.648 1.438.91-.124 1.648-.971 1.648-1.889-.001-.92-.739-1.564-1.649-1.438-.91.123-1.647.969-1.647 1.889zM1500.088 333.486c0 .919.736 1.562 1.647 1.438.91-.124 1.648-.971 1.648-1.89-.001-.92-.739-1.563-1.649-1.438s-1.648.97-1.646 1.89z"/>
  </g>
  <path fill="#5140AE" d="M1486.493 343.086c0 1.702 1.368 2.896 3.054 2.664 1.687-.23 3.053-1.799 3.053-3.5 0-1.702-1.368-2.896-3.055-2.664-1.686.23-3.052 1.799-3.052 3.5z"/>
  <path opacity=".5" fill="#211355" d="M1472.669 329.891l.002 7.907c0 .574.461.975 1.028.896l15.48-2.121c.567-.078 1.027-.605 1.027-1.179l-.002-7.907-17.535 2.404z"/>
  <path fill="#5140AE" d="M1481.674 412.501l-10.851-6.825 10.851-6.825 10.85 6.825z"/>
  <path fill="#211355" d="M1481.674 426.151l-10.851-6.825 10.851-6.825 10.85 6.825z"/>
  <path fill="#211355" d="M1492.524 405.676v13.65l-10.85 6.825v-13.65z"/>
  <path opacity=".5" fill="#5140AE" d="M1470.823 405.676v13.65l10.851 6.825v-13.65z"/>
  <path fill="#5DB2BF" d="M1467.592 432.734l-7.078-4.452 7.078-4.452 7.078 4.452z"/>
  <path fill="#211355" d="M1467.592 441.639l-7.078-4.452 7.078-4.453 7.078 4.453z"/>
  <path fill="#5DB2BF" d="M1474.67 428.282v8.905l-7.078 4.452v-8.905z"/>
  <path opacity=".4" fill="#1A1A1A" d="M1474.67 428.282v8.905l-7.078 4.452v-8.905z"/>
  <path fill="#5DB2BF" d="M1460.514 428.282v8.905l7.078 4.452v-8.905z"/>
  <path opacity=".2" fill="#1A1A1A" d="M1460.514 428.282v8.905l7.078 4.452v-8.905z"/>
  <path opacity=".3" fill="#5140AE" d="M1495.1 430.518l-5.317-3.344 5.317-3.344 5.315 3.344z"/>
  <path fill="#211355" d="M1495.1 437.205l-5.317-3.344 5.317-3.343 5.315 3.343z"/>
  <path fill="#5DB2BF" d="M1500.415 427.174v6.687l-5.315 3.344v-6.687z"/>
  <path fill="#5140AE" d="M1500.415 427.174v6.687l-5.315 3.344v-6.687z"/>
  <path fill="#5DB2BF" d="M1489.783 427.174v6.687l5.317 3.344v-6.687z"/>
  <path opacity=".5" fill="#5140AE" d="M1489.783 427.174v6.687l5.317 3.344v-6.687z"/>
  <g opacity=".5">
    <defs>
      <path id="g" d="M1416.069 107.965h9.184v16.849h-9.184z"/>
    </defs>
    <clipPath id="h">
      <use xlink:href="#g" overflow="visible"/>
    </clipPath>
    <path clip-path="url(#h)" fill="#FFF" d="M1416.072 113.361h2.285v-1.359c0-2.221 1.815-4.036 4.037-4.036h2.811v3.094h-1.396c-.738 0-1.336.601-1.336 1.335v.967h2.78v2.984h-2.78v8.468h-4.108c-.005-.089-.007-.176-.007-.267v-8.201h-2.285v-2.985z"/>
  </g>
  <g>
    <circle fill="#6851BC" cx="1352.048" cy="125.77" r="14.247"/>
    <g opacity=".5">
      <defs>
        <path id="i" d="M1343.864 117.586h16.368v16.368h-16.368z"/>
      </defs>
      <clipPath id="j">
        <use xlink:href="#i" overflow="visible"/>
      </clipPath>
      <path clip-path="url(#j)" fill="none" stroke="#FFF" stroke-width="1.5868" stroke-linecap="round" stroke-linejoin="round" stroke-miterlimit="10" d="M1359.438 128.955c0 2.322-1.883 4.205-4.207 4.205h-6.371c-2.321 0-4.203-1.883-4.203-4.205v-6.37c0-2.323 1.882-4.206 4.203-4.206h6.371c2.324 0 4.207 1.883 4.207 4.206v6.37z"/>
      <path clip-path="url(#j)" fill="none" stroke="#FFF" stroke-width="1.5868" stroke-linecap="round" stroke-linejoin="round" stroke-miterlimit="10" d="M1355.589 125.771c0 1.954-1.585 3.54-3.543 3.54-1.955 0-3.542-1.586-3.542-3.54 0-1.958 1.587-3.544 3.542-3.544 1.958 0 3.543 1.585 3.543 3.544z"/>
      <circle clip-path="url(#j)" fill="none" stroke="#FFF" stroke-width="1.5868" stroke-linecap="round" stroke-linejoin="round" stroke-miterlimit="10" cx="1356.388" cy="121.507" r=".641"/>
    </g>
  </g>
  <g>
    <path fill-rule="evenodd" clip-rule="evenodd" fill="#FFF" d="M1048.733 201.36l2.243 1.493 2.455-2.727-1.713-2.072c.529-.961.898-2.012 1.082-3.129l2.628-.564-.247-3.668-2.677-.211c-.301-.977-.746-1.887-1.313-2.701l1.494-2.236-2.723-2.463-2.072 1.707c-.967-.535-2.025-.909-3.148-1.093l-.564-2.625-3.669.243-.206 2.679c-.988.301-1.898.751-2.723 1.323l-2.236-1.492-2.463 2.732 1.715 2.065c-.528.968-.896 2.017-1.082 3.132l-2.628.568.245 3.662 2.679.215c.297.978.744 1.884 1.314 2.7l-1.497 2.236 2.725 2.464 2.07-1.706c.967.531 2.028.908 3.146 1.089l.569 2.633 3.667-.251.212-2.677c.986-.302 1.896-.753 2.717-1.326zm-5.248-3.204c-2.664.18-4.966-1.831-5.147-4.495-.174-2.66 1.836-4.96 4.496-5.136 2.662-.183 4.963 1.829 5.143 4.494.177 2.661-1.835 4.96-4.492 5.137z" opacity=".5"/>
    <path fill-rule="evenodd" clip-rule="evenodd" fill="#211355" d="M1066.734 187.595l2.243 1.493 2.456-2.727-1.713-2.072c.529-.962.897-2.012 1.082-3.129l2.627-.564-.247-3.668-2.677-.211c-.301-.977-.746-1.887-1.312-2.702l1.494-2.235-2.724-2.463-2.073 1.707c-.965-.535-2.023-.91-3.146-1.093l-.565-2.625-3.669.243-.207 2.679c-.988.301-1.897.751-2.721 1.322l-2.237-1.491-2.462 2.731 1.713 2.066c-.527.967-.896 2.017-1.081 3.132l-2.628.568.246 3.662 2.678.215c.297.978.744 1.884 1.314 2.7l-1.497 2.235 2.725 2.465 2.071-1.706c.966.531 2.027.908 3.146 1.088l.568 2.634 3.667-.251.212-2.677c.986-.303 1.896-.754 2.717-1.326zm-5.248-3.204c-2.664.18-4.965-1.831-5.147-4.496-.174-2.659 1.836-4.959 4.497-5.136 2.661-.182 4.963 1.83 5.142 4.494.178 2.661-1.835 4.96-4.492 5.138z"/>
  </g>
  <circle opacity=".5" fill="#B8CBFF" cx="997.445" cy="300.026" r="13.564"/>
  <path fill="#FFF" d="M992.303 238.543l-13.515-12.118c-.679-.678-1.776-.678-2.453 0l-13.517 12.118h29.485zM962.854 238.609v16.878c0 1.238 1 2.239 2.237 2.239h24.939c1.237 0 2.238-1.001 2.238-2.239v-16.878h-29.414z"/>
  <path opacity=".3" fill="#5140AE" d="M962.818 238.609l13.517 12.117c.677.679 1.774.679 2.453 0l13.515-12.117h-29.485z"/>
  <path fill="#321C80" d="M988.823 231.479h-22.526v10.247l10.038 9c.677.679 1.774.679 2.453 0l10.035-9v-10.247z"/>
  <g fill="#FFF">
    <path d="M969.74 234.778h15.641v2.152H969.74zM969.74 238.574h10.617v1.144H969.74zM969.74 240.785h14.779v1.144H969.74z"/>
  </g>
  <path opacity=".5" fill="#B8CBFF" d="M1557.612 115.865c4.942 0 8.948 4.008 8.948 8.949h3.089c0-6.647-5.39-12.038-12.037-12.038-6.649 0-12.038 5.391-12.038 12.038h3.089c0-4.941 4.007-8.949 8.949-8.949z"/>
  <path fill="#321C80" d="M1564.439 116.128l-7.51 5.686c-1.374.312-2.4 1.534-2.4 3.001 0 1.701 1.381 3.082 3.083 3.082s3.083-1.381 3.083-3.082c0-.005-.002-.009-.002-.012l3.746-8.675z"/>
  <g opacity=".5" fill="none" stroke="#FFF" stroke-width="2" stroke-miterlimit="10">
    <path d="M999.255 295.217l3.934 4.809-3.934 4.811M995.635 295.217l-3.934 4.809 3.934 4.811"/>
  </g>
  <g>
    <path fill="#FFF" d="M1663.562 175.395l-21.118-7.868 7.868 21.119 5.212-5.211 8.004 8.006 2.831-2.83-8.007-8.005z"/>
    <circle fill="#211747" cx="1666.359" cy="186.677" r="7.22"/>
    <path fill="#FFF" d="M1665.775 190.046l-3.185-3.489 1.066-.972 2.003 2.195 3.312-4.475 1.157.857z"/>
  </g>
  <path fill="#B6B3E0" d="M1287.688 228.993c.75.867.948 2.249 1.164 3.354.121.621.155 1.224.416 1.795.267.579.581.887.644 1.547.116 1.235-.177 2.373-.346 3.534-.083.563-.323 1.136-.215 1.737.115.632.481 1.22.685 1.828.575 1.728-.294 3.436.24 5.202.369 1.221 1.385 2.462 2.194 3.416.024.028.052.05.076.078l1.239-1.229c-.5-.516-.938-.953-1.186-1.165-.77-.657-.86-5.306-.86-5.306s.171-7.335.235-8.282c.064-.948-1.323-2.943-1.661-3.562-.339-.619-2.032-3.733-3.117-4.566-.669-.515-2.325-1.009-3.499-1.312.392.263.785.522 1.205.69.632.253.809.24 1.25.706.506.535 1.056.98 1.536 1.535z"/>
  <path fill="#321C80" d="M1189.082 136.573h-29.846c-1.657 0-3 1.343-3 3v20.181c0 1.657 1.343 3 3 3h29.846c1.657 0 3-1.343 3-3v-20.181c0-1.657-1.343-3-3-3z"/>
  <path fill="#B6B3E0" d="M1156.234 141.488h35.848v16.351h-35.848z"/>
  <path fill="#FFF" d="M1172.315 145.13l7.853 4.536-7.853 4.532z"/>
  <g>
    <path fill="#321C80" d="M1690.21 231.495v22.891c0 2.118 5.905 3.838 13.191 3.838 7.284 0 13.19-1.72 13.19-3.838v-22.891h-26.381z"/>
    <ellipse fill="#B8CBFF" cx="1695.404" cy="239.736" rx="1.098" ry="1.329"/>
    <ellipse fill="#B8CBFF" cx="1695.404" cy="251.292" rx="1.098" ry="1.328"/>
    <path fill="#211747" d="M1711.446 257.421c3.124-.701 5.146-1.799 5.146-3.035v-22.891h-5.146v25.926z"/>
    <ellipse fill="#B8CBFF" cx="1703.401" cy="231.495" rx="13.191" ry="3.84"/>
    <g opacity=".5">
      <defs>
        <path id="k" opacity=".5" d="M1690.21 231.861v22.891c0 2.118 5.905 3.838 13.191 3.838 7.284 0 13.19-1.72 13.19-3.838v-22.891h-26.381z"/>
      </defs>
      <clipPath id="l">
        <use xlink:href="#k" overflow="visible"/>
      </clipPath>
      <path clip-path="url(#l)" fill="none" stroke="#B8CBFF" stroke-width="2.437" stroke-miterlimit="10" d="M1717.488 242.077c0 2.262-6.307 4.102-14.087 4.102s-14.087-1.84-14.087-4.102"/>
    </g>
  </g>
  <g>
    <path fill="#211355" d="M957.27 335.104c-.731 0-1.396.252-1.937.666l-7.704-5.644c.119-.339.198-.699.198-1.079 0-1.769-1.437-3.205-3.206-3.205s-3.203 1.437-3.203 3.205c0 1.771 1.435 3.203 3.203 3.203.729 0 1.398-.255 1.937-.661l7.709 5.642c-.123.336-.203.697-.203 1.08 0 .38.08.733.203 1.075l-7.709 5.642c-.538-.41-1.208-.666-1.937-.666-1.769 0-3.203 1.435-3.203 3.207 0 1.77 1.435 3.205 3.203 3.205 1.77 0 3.206-1.436 3.206-3.205 0-.384-.079-.741-.198-1.083l7.704-5.643c.54.412 1.205.667 1.937.667 1.769 0 3.203-1.431 3.203-3.199 0-1.775-1.435-3.207-3.203-3.207z"/>
    <circle opacity=".4" fill="#B8CBFF" cx="944.633" cy="329.058" r="3.215"/>
    <circle opacity=".4" fill="#B8CBFF" cx="944.633" cy="347.559" r="3.215"/>
    <circle opacity=".4" fill="#B8CBFF" cx="957.258" cy="338.309" r="3.215"/>
  </g>
  <path fill="#B8CBFF" d="M1696.502 346.638v31.379h19.201c1.868 0 3.382-1.514 3.382-3.382v-27.997h-22.583z"/>
  <path fill="#321C80" d="M1712.32 374.635v-3.298h-19.2v3.298c0 1.868 1.513 3.381 3.382 3.382h19.201c-1.869 0-3.383-1.514-3.383-3.382z"/>
  <g fill="#321C80">
    <path d="M1700.116 351.344h6.598v1.532h-6.598zM1700.116 353.784h6.598v1.532h-6.598zM1700.116 356.225h6.598v1.532h-6.598z"/>
  </g>
  <g fill="#321C80">
    <path d="M1700.116 360.795h15.587v1.532h-15.587zM1700.116 367.604h7.677v1.532h-7.677zM1709.105 367.604h6.598v1.532h-6.598zM1700.116 364.199h13.431v1.532h-13.431z"/>
  </g>
  <path fill="#5140AE" d="M1709.105 351.344h6.598v5.313h-6.598z"/>
</svg>
