<svg xmlns="http://www.w3.org/2000/svg" xmlns:xlink="http://www.w3.org/1999/xlink" width="1920" height="530"><defs><path id="a" d="M1920 501.627s-44.208-22.627-225.469 3.415c-82.069 11.791-247.614 40.154-555.695-18.979C650.686 392.368 0 530 0 530V0h1920v501.627z"/></defs><clipPath id="b"><use xlink:href="#a" overflow="visible"/></clipPath><path clip-path="url(#b)" fill="#2C1E5E" d="M1920 501.627c-4.385 13.471-56.249-10.682-225.469 3.415-36.703 3.058-193.583 84.1-498.358 9.783C731.445 401.508-78.494 632.492-78.494 632.492L-81.494 0H1920v501.627z"/><path opacity=".3" clip-path="url(#b)" fill="#5140AE" d="M1828.173 494.492c23.627-108.568 5.647-255.704-63.461-328.028-44.747-46.83-108.156-92.621-204.25-93.437-85.333-.726-119.966 13.669-150.646 27.791-38.391 17.671-72.834 40.661-188.191 21.586-53.737-8.887-131.811-12.879-191.626 8.082-23.651 8.288-108.644 52.953-109.705 161.148-.574 58.665 20.976 131.326 66.545 178.524 78.377 3.841 139.176 55.536 227.473 77.066 304.775 74.315 443.72-37.263 480.22-42.184 57.595-7.765 100.138-6.453 133.641-10.548z"/><path clip-path="url(#b)" fill="#4225AB" d="M1698.555 504.104c.355-.081.708-.161 1.062-.242.136-.031.271-.062.406-.093.511-.117 1.02-.233 1.53-.351.846-.191 1.688-.383 2.527-.571.065-.015.132-.029.198-.044.383-.086.764-.171 1.146-.257 2.237-.499 4.452-.986 6.646-1.461.049-.01.099-.021.148-.031.295-.063.589-.127.885-.189 1.238-.267 2.471-.528 3.695-.787.307-.064.612-.129.916-.193.041-.008.082-.017.123-.025 1.044-.219 2.08-.433 3.113-.646.145-.029.289-.06.434-.089.018-.004.034-.008.053-.011 3.195-.656 6.346-1.285 9.447-1.886.027-.005.058-.012.085-.017.296-.058.589-.112.885-.17.038-.007.075-.015.112-.021 2.363-.454 4.698-.894 7.007-1.317.108-.02.217-.039.325-.059 1.234-.227 2.459-.447 3.678-.664.113-.021.226-.041.337-.061 1.261-.225 2.513-.443 3.757-.658.038-.007.077-.014.115-.021 1.354-.233 2.7-.462 4.035-.686.021-.003.041-.007.061-.011 36.953-96.836 24.734-245.016-44.234-317.194-38.646-40.445-93.41-79.993-176.404-80.698-73.699-.627-103.609 11.805-130.107 24.002-33.156 15.262-62.904 35.118-162.535 18.644-94.201-15.577-261.992-32.745-261.985 165.286.002 55.841 28.116 109.76 68.089 146.309 54.09 6.035 110.441 15.686 168.597 29.866 304.775 74.315 445.978 33.708 481.831 25.283 1.339-.314 2.669-.624 3.993-.93.009-.001.019-.004.029-.007z"/><g clip-path="url(#b)"><path fill="#321C80" d="M1382.549 344.042c0 6.146-4.982 11.13-11.13 11.13H1162.28c-6.146 0-11.13-4.983-11.13-11.13V211.354c0-6.146 4.983-11.13 11.13-11.13h209.139c6.147 0 11.13 4.983 11.13 11.13v132.688z"/><path fill="#E2E4FF" d="M1379.43 339.99c0 6.146-4.983 11.13-11.131 11.13H1159.16c-6.146 0-11.13-4.983-11.13-11.13V207.301c0-6.146 4.983-11.129 11.13-11.129h209.139c6.147 0 11.131 4.983 11.131 11.129V339.99z"/><path fill="#5140AE" d="M1170.869 204.101h184.461v139.091h-184.461z"/><circle opacity=".5" fill="#B6B3E0" cx="1158.813" cy="273.646" r="6.071"/><circle fill="#211747" cx="1366.482" cy="273.645" r="1.995"/><path fill="#B6B3E0" d="M1158.812 279.717c3.354 0 6.071-2.719 6.071-6.071h-12.142c.001 3.352 2.719 6.071 6.071 6.071z"/><path opacity=".5" fill="#FFF" d="M1346.895 210.968h3.275v9.542h-3.275z"/><path fill="#FFF" d="M1346.895 210.968h3.275v6.71h-3.275z"/><path opacity=".5" fill="#FFF" d="M1346.895 268.875h3.275v9.542h-3.275zM1346.895 327.625h3.275v9.542h-3.275z"/><path fill="#FFF" d="M1346.895 332.479h3.275v4.688h-3.275z"/></g><path clip-path="url(#b)" fill="#321C80" d="M1008.141 407.28h55.498v-26.507h-70.067c4.216 9.174 9.104 18.041 14.569 26.507z"/><path clip-path="url(#b)" fill="#5F54AD" d="M998.646 391.066h67.072v-13.254h-73.48c1.979 4.493 4.117 8.915 6.408 13.254z"/><path opacity=".5" clip-path="url(#b)" fill="#B8CBFF" d="M1008.334 407.578c10.16 15.685 27.839 49.247 57.172 83.247 54.09 6.035 85.845 7.819 144 22 176.327 42.995 301.096 14.457 379.197 9.006V407.562h-580.379c.003.005.006.01.01.016z"/><g clip-path="url(#b)" fill="#321C80"><path opacity=".8" d="M1202.914 227.133v110.973h59.364V214.079h-59.364zM1329.004 214.079h-59.363v124.027h59.364V214.079z"/></g><path opacity=".2" clip-path="url(#b)" fill="#5F54AD" d="M1723.703 446.735c-80.084-3.404-82.407-7.803-162.596-9.939-44.621-1.188-78.277-8.77-161.412 6.107-49.969 8.941-85.443 24.733-187.686 7.045-17.836-3.086-24.928-6.072-42.129-10.829-27.936-7.725-62.873-12.393-92.287-12.393-20.854 0-36.326 1.823-52.223 3.734 5.874 6.902 24.877 43.004 31.468 49.031 54.091 6.035 91.845 13.819 150 28 63.151 15.398 123.71 8.494 173.334 15.333 65.741 6.969 124.126-.193 173.017.631 78.667-1.813 123.318-14.18 141.342-18.414 1.339-.314 2.669-.624 3.993-.93.011-.002.021-.005.03-.008.355-.081.708-.161 1.062-.242.136-.031.271-.062.406-.093.511-.117 1.02-.233 1.53-.351.846-.191 1.688-.383 2.527-.571.065-.015.132-.029.198-.044.383-.086.764-.171 1.146-.257 2.237-.499 4.452-.986 6.646-1.461.049-.01.099-.021.148-.031.295-.063.589-.127.885-.189 1.238-.267 2.471-.528 3.695-.787.307-.064.612-.129.916-.193.041-.008.082-.017.123-.025 1.044-.219 2.08-.433 3.113-.646.145-.029.289-.06.434-.089.018-.004.034-.008.053-.011 3.195-.656 6.346-1.285 9.447-1.886.027-.005.058-.012.085-.017.296-.058.589-.112.885-.17.038-.007.075-.015.112-.021 2.363-.454 4.698-.894 7.007-1.317.108-.02.217-.039.325-.059 1.234-.227 2.459-.447 3.678-.664.113-.021.226-.041.337-.061 1.261-.225 2.513-.443 3.757-.658.038-.007.077-.014.115-.021 1.354-.233 2.7-.462 4.035-.686.021-.003.041-.007.061-.011 5.34-13.989 9.646-29.055 12.908-44.805-12.671-1.508-26.012-1.386-40.485-2.002z"/><g clip-path="url(#b)"><path fill="#B6B3E0" d="M1200.685 211.632h59.363v124.027h-59.363z"/><path opacity=".5" fill="#DFDCFA" d="M1200.685 302.356h59.363v32.229h-59.363z"/><g fill="#5140AE"><path d="M1207.889 240.589h34.63v2.509h-34.63zM1207.889 247.788h21.41v2.511h-21.41zM1207.889 255.5h42.662v.78h-42.662zM1207.889 259.822h19.306v.779h-19.306zM1207.889 264.805h32.909v.78h-32.909zM1230.131 259.822h6.873v.779h-6.873z"/></g><path fill="#321C80" d="M1251.77 321.16c0 2.795-2.267 5.062-5.062 5.062h-33.22c-2.796 0-5.062-2.268-5.062-5.062v-.075c0-2.795 2.267-5.062 5.062-5.062h33.22c2.796 0 5.062 2.268 5.062 5.062v.075z"/><path fill="#5140AE" d="M1251.232 320.489c0 2.796-2.267 5.062-5.062 5.062h-33.222c-2.795 0-5.061-2.267-5.061-5.062v-.074c0-2.797 2.266-5.062 5.061-5.062h33.222c2.795 0 5.062 2.266 5.062 5.062v.074z"/><path fill="#FFF" d="M1217.82 319.198h18.498v2.507h-18.498z"/><path fill="none" stroke="#FFF" stroke-width="1.5793" stroke-linecap="round" stroke-linejoin="round" stroke-miterlimit="10" d="M1239.996 319.198l1.305 1.254-1.305 1.253"/><g><path opacity=".5" fill="#DFDCFA" d="M1200.685 211.632h59.363v22.849h-59.363z"/><path fill="#B6B3E0" d="M1260.048 230.237c-9.374-8.524-18.646-1.691-24.738-1.074-12.618 1.281-15.421-6.107-25.098-5.958-4.202.063-7.237.755-9.527 1.48v9.795h59.363v-4.243z"/><path opacity=".8" fill="#5140AE" d="M1260.048 219.375c-5.756-1.558-12.171-1.661-19.516 2.276-3.746 2.01-7.002 4.344-10.775 6.014-8.792 3.89-20.312 4.543-29.072 1.085v5.73h59.363v-15.105z"/></g><g><path fill="#B6B3E0" d="M1267.411 211.632h59.364v124.027h-59.364z"/><path opacity=".5" fill="#DFDCFA" d="M1267.411 302.356h59.363v32.229h-59.363z"/><g fill="#5140AE"><path d="M1274.616 240.589h34.63v2.509h-34.63zM1274.616 247.788h21.411v2.511h-21.411zM1274.616 255.5h42.662v.78h-42.662zM1274.616 259.822h19.306v.779h-19.306zM1274.616 264.805h32.909v.78h-32.909zM1296.857 259.822h6.873v.779h-6.873z"/></g><path fill="#321C80" d="M1318.497 321.16c0 2.795-2.267 5.062-5.062 5.062h-33.222c-2.795 0-5.062-2.268-5.062-5.062v-.075c0-2.795 2.267-5.062 5.062-5.062h33.222c2.795 0 5.062 2.268 5.062 5.062v.075z"/><path fill="#5140AE" d="M1317.96 320.489c0 2.796-2.267 5.062-5.062 5.062h-33.221c-2.796 0-5.062-2.267-5.062-5.062v-.074c0-2.797 2.266-5.062 5.062-5.062h33.221c2.795 0 5.062 2.266 5.062 5.062v.074z"/><path fill="#FFF" d="M1284.549 319.198h18.496v2.507h-18.496z"/><path fill="none" stroke="#FFF" stroke-width="1.5793" stroke-linecap="round" stroke-linejoin="round" stroke-miterlimit="10" d="M1306.723 319.198l1.305 1.254-1.305 1.253"/><g><path opacity=".5" fill="#DFDCFA" d="M1267.411 211.632h59.363v22.849h-59.363z"/><path fill="#B6B3E0" d="M1326.774 230.237c-9.374-8.524-18.647-1.691-24.738-1.074-12.618 1.281-15.421-6.107-25.097-5.958-4.203.063-7.238.755-9.528 1.48v9.795h59.363v-4.243z"/><path opacity=".8" fill="#5140AE" d="M1326.774 219.375c-5.756-1.558-12.171-1.661-19.515 2.276-3.746 2.01-7.004 4.344-10.776 6.014-8.792 3.89-20.312 4.543-29.072 1.085v5.73h59.363v-15.105z"/></g></g></g><path opacity=".5" clip-path="url(#b)" fill="#321C80" d="M1343.106 269.788v10.349h-172.192v2.633h175.682v-12.982z"/><path clip-path="url(#b)" fill="#5140AE" d="M1707.047 176.351c-38.646-40.445-93.41-79.993-176.404-80.698-13.685-.116-25.851.221-36.771.92v426.249c9.56.401 18.76.656 27.597.774.012.001.024.001.036.001 53.04.713 93.218-3.332 122.183-7.966.032-.004.064-.01.097-.014 3.084-.494 6.04-.994 8.871-1.497.005-.001.01-.001.01-.001 1.873-.333 3.688-.664 5.449-.996.053-.01.107-.021.161-.031 1.749-.329 3.445-.658 5.087-.985.024-.005.047-.009.07-.014.791-.157 1.568-.313 2.335-.471.049-.01.099-.02.148-.03 1.562-.318 3.071-.634 4.53-.946.08-.017.16-.033.24-.051 1.445-.31 2.842-.614 4.188-.913.061-.014.119-.027.18-.041.613-.137 1.217-.271 1.809-.405.075-.017.149-.033.224-.05 1.274-.29 2.502-.572 3.682-.848.092-.021.184-.043.274-.063.538-.126 1.068-.251 1.587-.373.04-.009.08-.019.119-.028.56-.132 1.106-.262 1.644-.391.085-.02.169-.039.254-.06.457-.11.908-.218 1.349-.323.085-.021.17-.041.255-.062 1.159-.278 2.255-.545 3.296-.797.186-.045.37-.09.552-.134.21-.051.425-.103.63-.152.417-.102.823-.199 1.219-.295.081-.02.158-.038.237-.058.318-.076.631-.15.936-.224.109-.026.22-.054.328-.078.371-.089.734-.176 1.086-.258 1.328-.312 2.648-.62 3.963-.923.01-.002.02-.005.03-.007s.021-.005.03-.008c.333-.076.663-.151.995-.228.039-.009.077-.018.116-.026.119-.027.237-.055.357-.081.156-.036.312-.072.469-.108 1.154-.263 2.302-.523 3.443-.78.049-.012.097-.022.146-.033.065-.015.132-.029.198-.044.087-.02.174-.039.262-.06 2.474-.554 4.92-1.093 7.341-1.616.062-.014.126-.028.188-.042.049-.01.099-.021.148-.031.041-.01.083-.018.124-.026 1.763-.381 3.514-.754 5.248-1.116.041-.01.083-.019.124-.027.041-.008.082-.017.123-.025.176-.037.349-.072.523-.108.998-.208 1.992-.415 2.981-.618.014-.002.028-.006.042-.008.018-.004.034-.008.053-.011.007-.002.016-.004.023-.005 1.446-.297 2.881-.587 4.308-.872.267-.054.532-.106.798-.16 1.363-.271 2.721-.538 4.065-.799.083-.016.169-.034.253-.05.027-.005.058-.012.085-.017s.056-.011.084-.016c.216-.042.43-.083.646-.124.052-.011.104-.021.155-.03.016-.003.031-.006.047-.009 1.172-.226 2.338-.447 3.497-.666.132-.023.262-.048.394-.072.992-.187 1.98-.37 2.963-.551.072-.014.146-.027.219-.041.108-.02.217-.039.325-.059.062-.012.122-.022.183-.033 1.098-.201 2.188-.397 3.273-.591.073-.013.148-.027.222-.04.113-.021.226-.041.337-.061.112-.021.223-.039.335-.059.994-.177 1.982-.35 2.967-.521.151-.026.305-.054.455-.079.038-.007.077-.014.115-.021.062-.011 1.007 4.845 1.07 4.834 1.311-.226.707.091 2-.125 36.951-96.835 25.758-250.42-43.211-322.598z"/><g clip-path="url(#b)"><defs><path id="c" d="M1707.047 176.351c-38.646-40.445-93.41-79.993-176.404-80.698-13.685-.116-25.851.221-36.771.92v426.249c9.56.401 18.76.656 27.597.774.012.001.024.001.036.001 53.04.713 93.218-3.332 122.183-7.966.032-.004.064-.01.097-.014 3.084-.494 6.04-.994 8.871-1.497.005-.001.01-.001.01-.001 1.873-.333 3.688-.664 5.449-.996.053-.01.107-.021.161-.031 1.749-.329 3.445-.658 5.087-.985.024-.005.047-.009.07-.014.791-.157 1.568-.313 2.335-.471.049-.01.099-.02.148-.03 1.562-.318 3.071-.634 4.53-.946.08-.017.16-.033.24-.051 1.445-.31 2.842-.614 4.188-.913.061-.014.119-.027.18-.041.613-.137 1.217-.271 1.809-.405.075-.017.149-.033.224-.05 1.274-.29 2.502-.572 3.682-.848.092-.021.184-.043.274-.063.538-.126 1.068-.251 1.587-.373.04-.009.08-.019.119-.028.56-.132 1.106-.262 1.644-.391.085-.02.169-.039.254-.06.457-.11.908-.218 1.349-.323.085-.021.17-.041.255-.062 1.159-.278 2.255-.545 3.296-.797.186-.045.37-.09.552-.134.21-.051.425-.103.63-.152.417-.102.823-.199 1.219-.295.081-.02.158-.038.237-.058.318-.076.631-.15.936-.224.109-.026.22-.054.328-.078.371-.089.734-.176 1.086-.258 1.328-.312 2.648-.62 3.963-.923.01-.002.02-.005.03-.007s.021-.005.03-.008c.333-.076.663-.151.995-.228.039-.009.077-.018.116-.026.119-.027.237-.055.357-.081.156-.036.312-.072.469-.108 1.154-.263 2.302-.523 3.443-.78.049-.012.097-.022.146-.033.065-.015.132-.029.198-.044.087-.02.174-.039.262-.06 2.474-.554 4.92-1.093 7.341-1.616.062-.014.126-.028.188-.042.049-.01.099-.021.148-.031.041-.01.083-.018.124-.026 1.763-.381 3.514-.754 5.248-1.116.041-.01.083-.019.124-.027.041-.008.082-.017.123-.025.176-.037.349-.072.523-.108.998-.208 1.992-.415 2.981-.618.014-.002.028-.006.042-.008.018-.004.034-.008.053-.011.007-.002.016-.004.023-.005 1.446-.297 2.881-.587 4.308-.872.267-.054-.236 4.058.028 4.005 1.363-.271-.22-.031 1.126-.292.083-.016.791.1.874.084.028-.006.223-.037.25-.042.028-.005-.235 3.839-.208 3.833.217-.042 2.284-4.291 2.5-4.333.052-.01.49-.615.542-.625.016-.003-.057 2.628-.042 2.625 1.173-.226 1.508.219 2.667 0 .131-.024.869-1.309 1-1.333.992-.187.685.847 1.667.666.072-.013 1.595-1.319 1.666-1.333.108-.02.767-1.021.875-1.042.062-.011.397 1.72.459 1.709 1.097-.201-.418-.141.666-.334.074-.013 5.427-1.486 5.5-1.5.112-.021 1.888-.146 2-.166.112-.021-.153-.938-.042-.959.994-.176.1.046 1.084-.125.151-.025-.359.192-.208.167.037-.007.337.09.374.083.063-.011.104-.405.167-.416 1.312-.227 1.165 1.132 2.459.916 36.952-96.838 24.842-251.298-44.127-323.476z"/></defs><clipPath id="d"><use xlink:href="#c" overflow="visible"/></clipPath><path clip-path="url(#d)" fill="#2C1E5E" d="M1733.639 219.368c-.46 0-.913.023-1.361.063l-122.313 5.68-.001.003c-7.864.4-14.117 6.903-14.117 14.866 0 .154.007.305.012.458l-.012.014v307.386l153.22 39.144V234.798c-.002-8.521-6.909-15.43-15.428-15.43z"/><path clip-path="url(#d)" fill="#5140AE" d="M1741.727 577.978l-162.055-41.402v-312.45l.037-.043c.53-8.612 6.703-15.736 14.948-17.613l125.573-6.139c.58-.049 1.121-.071 1.651-.071 10.942 0 19.845 8.902 19.845 19.847v357.871zm-153.22-48.263l144.386 36.887V220.105c0-6.072-4.939-11.012-11.011-11.012-.3 0-.62.015-.978.046l-.179.012-122.294 5.682c-5.565.283-9.925 4.876-9.925 10.456l.062 2.034-.062.072v302.32z"/><path clip-path="url(#d)" fill="#321C80" d="M1716.605 206.111c-.46 0-.913.023-1.361.063l-122.313 5.68v.003c-7.865.4-14.118 6.903-14.118 14.867 0 .152.007.305.012.457l-.012.014V534.58l153.221 39.145V221.541c-.001-8.52-6.909-15.43-15.429-15.43z"/><path clip-path="url(#d)" fill="#8578C5" d="M1734.411 577.374l-162.055-41.401V223.521l.036-.043c.531-8.612 6.704-15.736 14.949-17.613l125.573-6.139c.579-.048 1.121-.071 1.651-.071 10.942 0 19.845 8.903 19.845 19.847v357.872zm-153.22-48.263l144.385 36.887V219.502c0-6.071-4.938-11.012-11.01-11.012-.3 0-.62.015-.978.046l-.179.013-122.294 5.682c-5.565.283-9.925 4.875-9.925 10.455l.062 2.034-.062.072v302.319z"/></g><path opacity=".4" clip-path="url(#b)" fill="#B6B3E0" d="M1696.102 238.245l-90.125 1.723v299.565l90.125 23.842z"/><g fill="#2C1E5E" clip-path="url(#b)"><path d="M1635.107 246.326h1.418l2.18 8.545 2.006-8.545h1.375l-2.617 10.682h-1.525l-2.837-10.682zM1645.303 255.391l2.463-3.312c.24-.325.443-.61.611-.854.166-.244.299-.468.398-.672.098-.203.168-.392.211-.564.045-.173.066-.351.066-.534 0-.468-.105-.844-.316-1.129s-.502-.428-.871-.428c-.371 0-.662.148-.873.443s-.316.717-.316 1.267h-1.373c0-.52.057-.989.174-1.412.115-.422.285-.78.508-1.075.221-.295.49-.524.807-.688.316-.162.674-.244 1.074-.244.398 0 .756.079 1.072.237.316.157.586.381.807.671.223.29.391.636.508 1.038.117.401.174.842.174 1.319 0 .601-.137 1.19-.414 1.771-.275.58-.705 1.241-1.285 1.983l-1.713 2.183h3.412v1.617h-5.123v-1.617zM1652.279 257.146c-.254 0-.463-.12-.627-.359-.164-.238-.246-.526-.246-.861 0-.336.082-.623.246-.862s.373-.358.627-.358.463.119.627.358.246.526.246.862c0 .335-.082.623-.246.861-.164.238-.373.359-.627.359zM1656.969 257.146c-.422 0-.801-.095-1.139-.282-.34-.188-.625-.486-.857-.894-.232-.406-.412-.931-.539-1.571s-.191-1.419-.191-2.335v-.793c0-.905.064-1.679.191-2.319.127-.642.309-1.168.545-1.58.236-.411.521-.712.855-.9.334-.188.713-.282 1.135-.282s.801.095 1.139.282c.338.188.625.486.861.894.236.406.416.931.541 1.571.123.641.184 1.419.184 2.335v.793c0 .906-.062 1.679-.189 2.319-.127.642-.309 1.168-.545 1.58s-.521.712-.857.9c-.335.187-.712.282-1.134.282zm0-1.709c.211 0 .4-.051.566-.153.168-.102.309-.279.426-.534.115-.254.205-.597.268-1.029.061-.433.092-.984.092-1.656v-.793c0-.661-.033-1.208-.098-1.641-.066-.433-.156-.778-.273-1.038-.115-.259-.258-.439-.424-.541-.168-.102-.354-.153-.557-.153-.211 0-.4.052-.566.153-.168.102-.311.279-.426.534-.117.254-.205.598-.268 1.029-.062.433-.092.984-.092 1.656v.793c0 .662.029 1.208.092 1.641s.152.778.273 1.038c.119.259.262.439.424.541.164.102.352.153.563.153z"/></g><path clip-path="url(#b)" fill="#B6B3E0" d="M1684.863 265.354l-90.124-.997v273.122l90.124 23.025z"/><path opacity=".8" clip-path="url(#b)" fill="#5140AE" d="M1641.21 294.542l-38.98-2.466v201.057l38.98 15.82z"/><path opacity=".5" clip-path="url(#b)" fill="#E2E4FF" d="M1607.582 487.469l28.275 10.933v-88.468l-28.275-6.684z"/><path clip-path="url(#b)" fill="#FFF" d="M1018.023 348.632c0-1.768.363-3.393.967-4.697h-27.146c-2.593 0-4.696 2.103-4.696 4.697 0 2.593 2.104 4.696 4.696 4.696h27.145c-.602-1.304-.966-2.929-.966-4.696z"/><path clip-path="url(#b)" fill="#E2E4FF" d="M1648.943 403.541l23.513 4.469v-77.166l-23.513-2.339z"/><path clip-path="url(#b)" fill="#FF312B" d="M1648.943 295.318v26.162l23.513 2.184v-27.617z"/><g clip-path="url(#b)"><path fill="#2C1E5E" d="M1279.326 177.495h22.062v-21.622l-.57-1.138h-22.06v22.062z"/><path fill="#9F8FD4" d="M1278.758 154.735h22.061v22.062h-22.061z"/></g><path clip-path="url(#b)" fill="#2C1E5E" d="M1362.419 185.11h16.288v-15.964l-.42-.839h-16.289v16.288z"/><path clip-path="url(#b)" fill="#6851BC" d="M1361.998 168.307h16.289v16.289h-16.289z"/><g clip-path="url(#b)"><circle fill="#211747" cx="1144.613" cy="166.116" r="13.877"/><circle fill="#9F8FD4" cx="1143.934" cy="165.437" r="13.877"/><path fill="#5140AE" d="M1143.934 168.047c-4.576 0-8.634 2.216-11.162 5.633 2.528 3.417 6.586 5.633 11.162 5.633s8.635-2.216 11.162-5.633c-2.528-3.417-6.586-5.633-11.162-5.633z"/><circle opacity=".5" fill="#F2F2F2" cx="1143.934" cy="162.78" r="5.009"/></g><g clip-path="url(#b)"><path fill="#2C1E5E" d="M1064.491 205.938h20.985v-20.566l-.54-1.083h-20.987v20.984z"/><path fill="#B6B3E0" d="M1063.949 184.289h20.986v20.985h-20.986z"/><g opacity=".5" fill="none" stroke="#FFF" stroke-width="2" stroke-miterlimit="10"><path d="M1076.252 189.972l3.935 4.809-3.935 4.811M1072.632 189.972l-3.934 4.809 3.934 4.811"/></g></g><path clip-path="url(#b)" fill="#9F8FD4" d="M1371.088 275.42c-.839-2.256-1.461-21.171-1.461-21.171s-12.629-2.657-12.629-1.923c0 .986-.986 3.636.051 5.336-.168.314-1.462 3.1-1.449 3.769.011.511 1.124.882 1.757 1.129.014 1.813.115 2.52.095 3.775-.018 1.009.835 1.081 1.474 1.183.933.149 1.953-.121 2.771.562.941.786.781 2.82.828 3.788.046.938.507 3.721.507 3.721-.482-.125 12.275 11.172 8.056-.169z"/><path clip-path="url(#b)" fill="#211747" d="M1373.899 255.58c-.058-.773-.553-.718-.664-1.346-.26-1.453 1.406-1.151 1.009-1.672-2.21-2.889-8.271-2.964-8.68-2.991-1.716-.116-10.031-.612-8.566 2.755.236.545 4.381.405 4.196 1.899-.098.792-.589 1.391.622 2.602.517.517.653 1.415.786 1.779 0 0 1.296-.13 1.716-.415.133-.091 2.617-.993 2.23 1.034-.092.484-.104 2.233-.225 2.695-.249.951-1.041.741-1.041.741 1.187 3.541 2.156 3.719 3.357 4.588.464.334 1.242.604 1.812.594 2.784-4.275 3.91-6.11 3.448-12.263z"/><path clip-path="url(#b)" fill-rule="evenodd" clip-rule="evenodd" fill="#FFF" d="M1251.348 386.584l-.188 20.278 4.871-.485 1.679-20.254z"/><g clip-path="url(#b)"><path opacity=".5" fill="#DFDCFA" d="M1168.644 267.155h174.194v12.981h-174.194z"/><path opacity=".5" fill="#B6B3E0" d="M1168.644 276.093h174.194v3.953h-174.194z"/><g fill="#261560"><path d="M1170.234 267.155h.68v4.292h-.68zM1173.939 267.155h.679v4.292h-.679zM1177.642 267.155h.68v4.292h-.68zM1181.344 267.155h.68v6.779h-.68zM1185.046 267.155h.68v4.292h-.68zM1188.749 267.155h.68v4.292h-.68zM1192.453 267.155h.679v4.292h-.679zM1196.156 267.155h.68v4.292h-.68zM1199.857 267.155h.68v6.779h-.68zM1203.561 267.155h.68v4.292h-.68zM1207.264 267.155h.68v4.292h-.68zM1210.967 267.155h.68v4.292h-.68zM1214.67 267.155h.68v4.292h-.68zM1218.372 267.155h.68v6.779h-.68zM1222.075 267.155h.679v4.292h-.679zM1225.778 267.155h.679v4.292h-.679zM1229.481 267.155h.68v4.292h-.68zM1233.185 267.155h.68v4.292h-.68zM1236.887 267.155h.68v6.779h-.68zM1240.59 267.155h.68v4.292h-.68zM1244.293 267.155h.679v4.292h-.679zM1247.996 267.155h.68v4.292h-.68zM1251.699 267.155h.68v4.292h-.68zM1255.401 267.155h.679v6.779h-.679zM1259.104 267.155h.68v4.292h-.68zM1262.807 267.155h.68v4.292h-.68zM1266.51 267.155h.68v4.292h-.68zM1270.213 267.155h.68v4.292h-.68zM1273.915 267.155h.68v6.779h-.68zM1277.618 267.155h.679v4.292h-.679zM1281.321 267.155h.68v4.292h-.68zM1285.024 267.155h.68v4.292h-.68zM1288.727 267.155h.68v4.292h-.68zM1292.43 267.155h.68v6.779h-.68zM1296.132 267.155h.681v4.292h-.681zM1299.836 267.155h.679v4.292h-.679zM1303.539 267.155h.68v4.292h-.68zM1307.242 267.155h.68v4.292h-.68zM1310.944 267.155h.679v6.779h-.679zM1314.646 267.155h.68v4.292h-.68zM1318.35 267.155h.68v4.292h-.68zM1322.053 267.155h.68v4.292h-.68zM1325.756 267.155h.68v4.292h-.68zM1329.459 267.155h.679v6.779h-.679zM1333.161 267.155h.68v4.292h-.68zM1336.864 267.155h.68v4.292h-.68zM1340.567 267.155h.68v4.292h-.68z"/></g></g><path clip-path="url(#b)" fill-rule="evenodd" clip-rule="evenodd" fill="#1F1944" d="M1264.297 410.01l1.66-.064c.074-1.92-1.42-3.56-3.312-3.63l-6.469-1.687s-4.365-.217-5.428.071c-1.3.354-.91 5.31-.91 5.31h2.61l1.338-.352 1.175.352h9.336z"/><path clip-path="url(#b)" fill-rule="evenodd" clip-rule="evenodd" fill="#FFF" d="M1191.115 393.942l-20.278-.187.485 4.872 20.254 1.679z"/><path clip-path="url(#b)" fill-rule="evenodd" clip-rule="evenodd" fill="#1F1944" d="M1167.689 407.992l.617 1.785c1.92.078 3.006-1.527 3.076-3.561l1.227-6.896s.533-.249.412-.862c-.286-1.428.084-3.673.018-4.745-.072-1.169-5.161-.576-5.161-.576l-.388 3.153.399 1.762-.2.782v9.158z"/><path clip-path="url(#b)" fill="#FFF" d="M1218.034 289.453s1.067 1.021 1.272 1.459c.135.285.203 1.242.203 1.242l2.842 3.879-.971.87 1.272 4.781-2.476 1.504-.568.401s.922 2.127.97 3.21c.133 3.002.802 4.213-.066 5.05-.87.836-7.298 1.432-7.657.4-.565-1.615-1.27-5.26-1.596-6.527-.443-1.73-2.351-5.142-2.351-5.142s-1.972-7.489-1.504-7.757c.468-.269 8.092-4.716 8.359-4.648.269.067 2.271 1.278 2.271 1.278z"/><path clip-path="url(#b)" fill-rule="evenodd" clip-rule="evenodd" fill="#FFF" d="M1254.782 290.654l1.438-3.436s-2.085-3.462-3.01-4.432c-.279-.293-.923-.777-1.501-1.193-.594-.425-.171-.777-.171-.777s.571-.031.758 0c.794.133 2.289.788 2.995 1.172.344.188 1.271.914 1.271.914s2.982-.336 3.936-.635c.712-.222 4.792-1.632 5.506-1.846 1.576-.472 4.347-.285 4.347-.285l-4.76 4.149-4.176 2.878-2.798 4.584-3.835-1.093zM1182.373 291.287l-1.487-3.978s1.185-2.304 2.108-3.272c.566-.594 2.114-2.244 1.864-2.953-.114-.321-.849-.185-.849-.185s-1.69 1.458-2.396 1.843c-.343.187-1.697.711-1.697.711s-2.305-.255-3.258-.553c-.712-.223-3.923-3.077-4.659-3.187-1.254-.187-1.765-.275-2.573-.083-.373.089-.549.606-.487.733.086.177.381.634.381.634l2.553 4.105s3.487 1.8 4.358 2.721c.923.976 2.052 4.906 2.052 4.906l4.09-1.442z"/><path clip-path="url(#b)" fill-rule="evenodd" clip-rule="evenodd" fill="#EC614D" d="M1221.684 297.472s-.971 1.57-2.007 1.404c-.81-.132-1.638-.483-2.174-1.104-.588-.68-1.97-3.011-1.97-3.011l.562-1.568s.084-1.316.12-1.755c.151-1.79 1.818-1.984 1.818-1.984s1.062-.086 1.815-.383c1.104-.436 1.153-2.487.987-2.843-.469-1.009-1.337-1.343-2.708-1.338-1.1.003-2.48.742-2.48.742s-.374.21-1.221-.654c-.604-.613-1.908-.828-2.643-.414-1.932 1.088-1.15 1.946-1.15 1.946-1.975-1.41-3.301-.188-3.239.918.023.408-.653.592-1.272.747-1.936.485-1.719 2.15-1.355 3.055.009.02.018.034.026.054-1.15.01-2.081.942-2.081 2.094 0 .73.376 1.373.943 1.748-.283.291-.459.687-.459 1.124 0 .881.708 1.596 1.586 1.61.369.808 1.061 2.028 1.527 2.627 1.108 1.42 4.949 5.236 4.949 5.236s.908-.217 1.193-1.79c.199-1.094.078-3.516-.775-4.17-.613-.471-1.443-1.266-1.731-3.061-.043-.272.033-1.204.962-1.459.525-.145 1.374.174 1.816.489.744.529 1.736 3.009 1.736 3.009s.854 3.793 2.139 4.514c2.982 1.675 6.665 1.503 7.29-.066.618-1.548-2.204-5.717-2.204-5.717z"/><path clip-path="url(#b)" fill-rule="evenodd" clip-rule="evenodd" fill="#FF8787" d="M1214.428 284.978c-.604-.613-1.908-.828-2.643-.414-1.932 1.088-1.15 1.946-1.15 1.946-1.975-1.41-3.301-.188-3.239.918.023.408-.653.592-1.272.747-1.936.485-1.719 2.15-1.355 3.055.009.02.018.034.026.054-1.15.01-2.081.942-2.081 2.094 0 .73.376 1.373.943 1.748-.283.291-.459.687-.459 1.124 0 .881.708 1.596 1.586 1.61.369.808 1.061 2.028 1.527 2.627 1.108 1.42 4.949 5.236 4.949 5.236s.066-.018.165-.069c-.878-.646-2.109-4.202-3.233-5.092-1.543-1.222-1.555-1.491-2.111-2.718-.541-1.192-1.927-3.855-.128-5.205.526-.395 1.753-.338 2.099-.876.35-.544.286-1.025.354-1.651.044-.406.186-.988.506-1.285.356-.33.797-.477 1.315-.569 1.382-.245 1.599-.752 2.05-1.849.187-.454.349-.773.809-1.023.237-.128.604-.217.87-.258.245-.039.557-.064.472-.15z"/><path clip-path="url(#b)" fill-rule="evenodd" clip-rule="evenodd" fill="#9F8FD4" d="M1256.773 358.433c-.067-.044-.132-.08-.188-.1 0 0-11.661-5.956-39.101-5.982-5.956-.007-5.172 8.225-5.172 8.225s-2.161 3.557 2.674 6.259c3.976 2.223 24.938 2.253 33.148 2.176-1.835 12.466 1.56 17.042 1.665 33.976 1.381.656 7.074.164 7.074.164l4.832-37.328.004-.039c.305-3.356-1.849-6.524-4.936-7.351zM1353.257 386.584l.187 20.278-4.871-.485-1.678-20.254z"/><path clip-path="url(#b)" fill-rule="evenodd" clip-rule="evenodd" fill="#211355" d="M1355.441 362.908c3.623-6.726 18.397-34.454 18.335-39.448-.069-5.538-7.168-1.287-7.168-1.287s-6.9-5.237-9.735 0c-13.066 24.129-14.027 41.656-14.027 41.656-.01.056-.009.125-.004.202-.006.25 0 .505.023.768l.031 1.022 3.998 37.354h8.463c.206-17.7 3.226-24.034.328-38.792-.088-.566-.161-1.048-.244-1.475z"/><path clip-path="url(#b)" fill-rule="evenodd" clip-rule="evenodd" fill="#9F8FD4" d="M1377.801 386.584l.187 20.278-4.871-.485-1.678-20.254z"/><path clip-path="url(#b)" fill-rule="evenodd" clip-rule="evenodd" fill="#211355" d="M1377.156 364.204c-.372-1.513-.57-2.419-1.218-3.24.55-4.178 2.489-19.89 1.675-28.089-.137-1.383.592-7.133-1.378-9.853-3.249-4.485-8.302-2.965-8.302-2.965s-5.416.814-5.901 6.751c-1.812 22.205 1.128 34.365 2.298 38.154.016.248.043.501.09.76l.119 1.017 7.204 36.87 8.432-.73c-1.321-17.651-.467-26.888-3.019-38.675zM1386.738 294.768s-3.018-9.226-7.652-16.242c-1.955-2.96-6.169-6.345-9.312-5.686-3.325.693-5.207 5.585-1.997 9.864 3.652 4.871 6.939 9.106 9.154 11.926l-15.891 2.291s-.478 1.937-.589 4.771c12.231 1.376 18.233 1.663 23.837-.694.176-.074.377-.184.588-.324.521-.289 1.018-.705 1.516-1.141.791-.689.94-3.876.346-4.765zM1211.773 309.768c-10.516-1.262-19.764-2.09-19.764-2.09-.213-.029-.404-.05-.599-.07l-9.157-17.226s-2.49.343-5.064 1.234c3.039 11.423 5.309 17.201 9.375 21.392.194.199.451.396.751.567.11.19.256.352.466.457 4.777 2.401 18.882 5.72 18.882 5.72 2.81.786 7.644-.149 9.271-2.769 1.407-2.263.941-6.602-4.161-7.215z"/><path clip-path="url(#b)" fill-rule="evenodd" clip-rule="evenodd" fill="#9F8FD4" d="M1224.79 357.717c-.728-3.664-3.958-6.426-7.835-6.426-4.412 0-7.989 3.576-7.989 7.989 0 1.166.256 2.27.704 3.269-1.035 7.846-1.041 21.829-.981 28.182-12.465-1.835-17.041 1.561-33.975 1.667-.657 1.38-.164 7.073-.164 7.073l37.328 4.831.04.004c3.354.303 6.521-1.851 7.349-4.938.044-.067.08-.132.099-.188 0 0 5.957-11.661 5.984-39.102.001-.948-.209-1.724-.56-2.361z"/><path clip-path="url(#b)" fill="#5140AE" d="M1292.9 164.683c-.327 0-.624.113-.866.298l-3.445-2.523c.054-.151.089-.312.089-.482 0-.791-.643-1.434-1.434-1.434s-1.433.643-1.433 1.434c0 .792.642 1.433 1.433 1.433.326 0 .625-.114.866-.296l3.447 2.522c-.055.15-.091.312-.091.483 0 .17.036.328.091.48l-3.447 2.523c-.241-.184-.54-.298-.866-.298-.791 0-1.433.642-1.433 1.435 0 .791.642 1.433 1.433 1.433s1.434-.642 1.434-1.433c0-.172-.035-.332-.089-.484l3.445-2.523c.242.184.539.298.866.298.791 0 1.433-.64 1.433-1.431 0-.795-.642-1.435-1.433-1.435z"/><path clip-path="url(#b)" fill="#321C80" d="M1546.879 163.604s.6 32.175.493 40.16c-.147 11.078-8.705 11.063-8.705 11.063l-31.006-2.709s5.415-1.686 7.04-4.924c2.336-4.655 2.249-12.709 2.319-17.638v-19.158l29.859-6.794z"/><g clip-path="url(#b)"><path fill="#DFDCFA" d="M1546.24 163.44v35.214s.352 7.095-3.379 10.41c-3.686 3.276-6.848 2.75-6.848 2.75l-31.393-2.709s5.493.07 7.117-3.167c2.336-4.656 2.25-12.71 2.32-17.638v-19.158l32.183-5.702z"/></g><path opacity=".5" clip-path="url(#b)" fill="#321C80" d="M1403.074 409.98c0 .716-.579 1.296-1.296 1.296h-62.852c-.716 0-1.296-.58-1.296-1.296 0-.717.58-1.297 1.296-1.297h62.852c.717.001 1.296.581 1.296 1.297z"/><path clip-path="url(#b)" fill="#321C80" d="M1530.745 168.859l-4.697.503v-5.378l4.697-.764z"/><path clip-path="url(#b)" fill="#5140AE" d="M1018.287 421.693c3.414 4.456 6.991 8.768 10.711 12.924v-76.661h-10.711v63.737z"/><path clip-path="url(#b)" fill="#321C80" d="M1018.287 357.526h10.711v6.134h-10.711z"/><circle opacity=".5" clip-path="url(#b)" fill="none" stroke="#FFF" stroke-miterlimit="10" cx="1370.143" cy="176.45" r="4.353"/><path opacity=".5" clip-path="url(#b)" fill="#FFF" d="M1372.734 177.318l-2.066-.854v-2.268c0-.29-.234-.525-.525-.525-.29 0-.525.235-.525.525v2.587c0 .007.003.013.004.019-.006.212.113.415.321.5l2.392.987c.269.11.575-.017.687-.286.109-.268-.019-.574-.288-.685z"/><g clip-path="url(#b)"><path fill="#2C1E5E" d="M1114.802 216.334h16.288v-15.963l-.42-.841h-16.288v16.288z"/><path fill="#6851BC" d="M1114.382 199.53h16.288v16.288h-16.288z"/><path fill="#321C80" d="M1120.407 204.253l5.597 3.421-5.597 3.422z"/></g><path clip-path="url(#b)" fill="#2C1E5E" d="M1212.787 182.396h16.287v-15.964l-.42-.84h-16.287v16.287z"/><path clip-path="url(#b)" fill="#6851BC" d="M1212.367 165.592h16.287v16.288h-16.287z"/><path clip-path="url(#b)" fill="#211747" d="M1467.956 182.047c0 .664-.538 1.202-1.202 1.202h-44.845c-.664 0-1.202-.538-1.202-1.202v-29.763c0-.664.538-1.202 1.202-1.202h44.845c.664 0 1.202.538 1.202 1.202v29.763z"/><path clip-path="url(#b)" fill="#9F8FD4" d="M1467.393 181.483c0 .663-.539 1.202-1.203 1.202h-44.845c-.663 0-1.202-.539-1.202-1.202V151.72c0-.665.539-1.203 1.202-1.203h44.845c.664 0 1.203.538 1.203 1.203v29.763z"/><path clip-path="url(#b)" fill="#B6B3E0" d="M1466.189 150.518h-44.845c-.663 0-1.202.538-1.202 1.203v3.138h47.25v-3.138c.001-.665-.538-1.203-1.203-1.203z"/><circle clip-path="url(#b)" fill="#9F8FD4" cx="1424.256" cy="152.688" r=".623"/><circle clip-path="url(#b)" fill="#4225AB" cx="1426.18" cy="152.688" r=".623"/><circle opacity=".8" clip-path="url(#b)" fill="#5140AE" cx="1422.333" cy="152.688" r=".623"/><path clip-path="url(#b)" fill="#B6B3E0" d="M1452.631 177.265c0 .624-.504 1.129-1.127 1.129h-26.627c-.622 0-1.127-.505-1.127-1.129v-17.038c0-.623.505-1.128 1.127-1.128h26.627c.623 0 1.127.505 1.127 1.128v17.038z"/><path clip-path="url(#b)" fill="#5140AE" d="M1463.786 177.265c0 .624-.506 1.129-1.128 1.129h-6.049c-.622 0-1.129-.505-1.129-1.129v-17.038c0-.623.507-1.128 1.129-1.128h6.049c.622 0 1.128.505 1.128 1.128v17.038z"/><path clip-path="url(#b)" fill="#FFF" d="M1527.812 206.807c-6.67-.4-19.409-1.159-28.733-1.688.205 1.52 1.494 3.231 5.542 3.987 1.121.21 24.963 2.336 31.393 2.709-1.478-.16-6.995-1.294-8.202-5.008z"/><g clip-path="url(#b)" fill="#4225AB"><path d="M1427.135 162.23h12.462v1.123h-12.462zM1427.135 166.04h15.527v1.123h-15.527zM1427.135 169.851h12.462v1.123h-12.462zM1427.135 173.661h7.674v1.123h-7.674z"/></g><path opacity=".8" clip-path="url(#b)" fill="#5140AE" d="M1648.943 412.561v101.808l23.513 8.759V417.072z"/><circle clip-path="url(#b)" fill="#FFF" cx="1653.926" cy="452.859" r="2.473"/><path opacity=".5" clip-path="url(#b)" fill="#321C80" d="M1025.371 430.461c1.193 1.402 2.402 2.787 3.627 4.156v-74.76h-3.627v70.604z"/><path opacity=".5" clip-path="url(#b)" fill="#B8CBFF" d="M1018.738 422.193c.667.893 1.341 1.78 2.02 2.661V363.66h-2.02v58.533z"/><path clip-path="url(#b)" fill-rule="evenodd" clip-rule="evenodd" fill="#321C80" d="M1347.454 404.301l-6.608 2.015c-3.483 1.247-3.255 1.71-3.184 3.63l17.104.064s.466-3.279-.576-5.709h-6.736zM1371.998 404.301l-6.607 2.015c-3.483 1.247-3.256 1.71-3.184 3.63l17.104.064s.465-3.279-.576-5.709h-6.737z"/><g opacity=".5" clip-path="url(#b)"><path fill-rule="evenodd" clip-rule="evenodd" fill="#FFF" d="M1223.91 175.916l1.093.215.506-1.431-.982-.52c.051-.45.024-.911-.082-1.366l.914-.632-.675-1.361-1.056.344c-.27-.326-.584-.603-.93-.824l.218-1.091-1.431-.51-.521.98c-.454-.052-.917-.027-1.375.081l-.632-.914-1.362.675.345 1.056c-.329.271-.605.587-.83.936l-1.091-.216-.507 1.434.981.518c-.049.452-.023.912.083 1.367l-.915.633.675 1.36 1.056-.343c.27.326.583.602.93.823l-.218 1.091 1.431.511.521-.98c.452.051.918.026 1.374-.082l.634.915 1.361-.676-.344-1.056c.329-.272.606-.588.829-.937zm-2.512-.393c-.989.489-2.187.086-2.677-.902-.488-.988-.085-2.186.903-2.674.988-.49 2.186-.086 2.676.902.489.989.084 2.186-.902 2.674z"/></g><path clip-path="url(#b)" fill="#321C80" d="M1371.216 253.143c-.381-.023-.671-.35-.648-.73.022-.382.35-.673.729-.65l2.552.151.051-.489c.004-2.671-2.462-5.614-6.58-5.938l-3.992-.219c-2.157-.11-5.769.184-6.368 3.794l-.31 4.827 17.018.867.093-1.464-2.545-.149z"/><path clip-path="url(#b)" fill="#B6B3E0" d="M1360.544 253.382c0-3.949.48-6.495.974-8.077-1.957.203-4.108 1.044-4.559 3.757l-.31 4.827 3.672.187c.141-.193.223-.419.223-.694z"/><path clip-path="url(#b)" fill="#321C80" d="M1364.278 253.628c-.011.326-.284.583-.61.571 0 0-5.12.92-6.842.862-1.729-.057-6.788-1.315-6.788-1.315-.327-.011-.583-.284-.571-.61.01-.327 1.002-.5 2.797-.499l4.453.147 6.99.232c.326.011.582.286.571.612z"/><path clip-path="url(#b)" fill="#EC614D" d="M1517.116 175.684v15.375l25.114.03V172.76z"/><path clip-path="url(#b)" fill="#4225AB" d="M1517 196.175l24.991.627c.404-1.058.239-3.368.239-3.368l-25.114-.03-.027.136c.021.364-.065 1.564-.089 2.635z"/><path clip-path="url(#b)" fill="#EC614D" d="M1019.684 352.309h-27.839c-2.028 0-3.677-1.649-3.677-3.677s1.648-3.678 3.677-3.678h27.841c.073-.199.143-.402.229-.591.146-.316.121-.685-.066-.978-.187-.293-.511-.47-.858-.47h-27.146c-3.152 0-5.716 2.563-5.716 5.716 0 3.151 2.563 5.716 5.716 5.716h27.145c.348 0 .672-.177.858-.47.188-.293.213-.661.066-.977-.087-.187-.155-.392-.23-.591z"/><path clip-path="url(#b)" fill="#B6B3E0" d="M985.321 359.857h64.321v-5.703h-66.105c.567 1.91 1.159 3.813 1.784 5.703z"/><path clip-path="url(#b)" fill="#4225AB" d="M1525.892 198.865l-8.892-.312s-.164 1.807-.438 2.756l9.061.456.269-2.9z"/><path clip-path="url(#b)" fill-rule="evenodd" clip-rule="evenodd" fill="#DFDCFA" d="M1211.915 390.146c.492-.822.86-1.113.824-2.306-.062-2.075-1.142-4.253-1.251-6.459-.085-1.722.129-3.383.209-5.008.162-3.35 4.201-10.308 1.469-11.772-2.476-1.328-2.799-5.219-1.334-9.295.36-.999 2.555-2.511 3.07-3.739-3.416.907-5.937 4.011-5.937 7.713 0 1.166.148 3.133.598 4.132-1.036 7.845-.935 20.966-.875 27.318-12.465-1.835-17.041 1.561-33.975 1.667-.151.317-.239.866-.288 1.518 3.637.153 7.382.173 10.965.197 3.982.027 7.648-1.226 11.697-1.242 3.682-.014 7.322 2.309 11.061 1.868 2.328-.274 2.089-1.48 2.714-3.131.124-.328-.273-.668-.062-1.104.161-.329.929-.044 1.115-.357z"/><path clip-path="url(#b)" fill="#321C80" d="M1361.188 320.195c-1.096-.02-2.131.318-3.141.525-.437.354-.835.826-1.174 1.452-13.066 24.129-14.027 41.656-14.027 41.656-.01.056-.009.125-.004.202-.006.25 0 .505.023.768l.031 1.022 3.998 37.354h2.038c-.304-1.627-.789-3.252-.999-4.781-.53-3.896-.358-7.939-.699-11.883-.637-7.344-2.14-15.159-2.139-22.576.001-6.9 2.217-16.2 5.043-22.52 1.535-3.434 3.842-6.599 5.117-10.094 1.263-3.451 1.648-10.036 5.933-11.125z"/><path clip-path="url(#b)" fill-rule="evenodd" clip-rule="evenodd" fill="#321C80" d="M1374.306 274.706c-.528-.635-2.003-2.321-3.335-2.267-3.229.131-6.299-.291-8.868.316-.734.174-3.883 3.016-4.448 3.246-5.182 2.119-2.986 14.242-2.986 14.242-1.108 8.225.539 21.058.932 24.42.296 2.534-.134 7.98 3.484 8.642 2.818.515 13.398-.08 16.03-.106 6.271-.064 3.091-12.841 3.091-24.858-.001-9.029 2.805-15.571-3.9-23.635z"/><path clip-path="url(#b)" fill-rule="evenodd" clip-rule="evenodd" fill="#9F8FD4" d="M1323.589 280.816c.107-.232.267-.461.434-.68h-2.676c-.398.512-.82 1.068-.82 1.068s-.925.227-2.347-.319c-1.562-.601-3.193-3.2-4.178-1.966-.794.995-1.974-.274-2.718-.249-2.223.074-1.265 1.045-1.003 1.466.686 1.102 2.64 4.469 2.64 4.469l4.374 2.193 4.961 3.445 3.84-2.57-3.861-2.488c-.001.001.788-3.155 1.354-4.369z"/><g clip-path="url(#b)" fill="#B6B3E0"><path d="M1357.55 313.092c-.245-1.586-1.256-5.06-.944-6.448.541-2.407 2.266-2.771 3.337-.382-.565-2.346-2.514-4.644-2.997-7.102-.459-2.339-.33-6.139 0-8.504.775-5.531 2.628-12.418 4.906-17.79-1.022.549-3.682 2.926-4.197 3.136-5.182 2.119-2.986 14.242-2.986 14.242-1.108 8.225-1.014 32.329 2.604 32.99.146.026.322.05.517.071 1.003-3.152.224-7.207-.24-10.213zM1362.73 272.995l-.086-.34c-.045.008-.089.017-.134.025.098.17.174.289.22.315z"/></g><path clip-path="url(#b)" fill-rule="evenodd" clip-rule="evenodd" fill="#211355" d="M1364.922 275.673c-2.277-1.598-6.195-1.381-9.051 1.914-5.9 6.806-10.668 12.591-12.477 14.802l-19.723-6.393s-1.343 1.6-2.754 4.21c10.556 6.746 16.055 9.798 22.193 10.301 1.178.385 3.918-.133 4.62-.858 0 0 9.818-6.58 16.041-12.803 5.933-5.932 1.797-10.719 1.151-11.173z"/><path clip-path="url(#b)" fill="#B6B3E0" d="M1353.354 283.46c.711-1.037 1.742-1.757 2.416-2.752.425-.625.645-1.323.953-2.034.883-2.029 3.184-3.256 3.723-3.844-1.569.298-3.195 1.166-4.574 2.757-5.9 6.806-10.668 12.591-12.477 14.802l-19.723-6.393s-.369.444-.92 1.23c2.408.626 5.767 1.838 7.852 2.604 2.789 1.023 7.031 2.642 9.964 3.099 1.714.267 2.417 2.08 3.939.705 2.116-1.909 4.257-4.57 6.261-6.659 1.075-1.123 1.73-2.267 2.586-3.515z"/><path clip-path="url(#b)" fill-rule="evenodd" clip-rule="evenodd" fill="#211355" d="M1211.773 309.768l12.146-1.499c3.047 0 8.302.38 8.302 13.904 0 0 2.031 26.159-2.262 30.634-.883.92-7.333-1.239-10.479.488-4.921 2.703-10.733 2.318-12.123-.161-2.143-3.822-.232-3.676-.314-8.871-.019-1.198.059-.817-.074-2.669-.033-.462-1.251-2.928-1.342-3.432-.527-2.929.631-4.28.479-5.635-.461-4.103 1.686-8.717.451-15.765-.899-5.131 2.166-6.994 5.216-6.994z"/><path opacity=".3" clip-path="url(#b)" fill="#9F8FD4" d="M1206.557 319.727c.066.017.113.027.106.025 0 0-.042-.01-.106-.025z"/><path clip-path="url(#b)" fill="#321C80" d="M1370.531 382.512c-.342-2.306-1.042-4.479-1.192-6.896-.151-2.454.732-5.254-.067-7.495-.48-1.346-1.943-2.058-2.338-3.291-.31-.967.009-2.579.007-3.604-.003-2.536.321-4.76.534-7.195.272-3.138-.759-5.409-1.207-8.694-.124-.91-.219-1.83-.301-2.754-1.355 2.75-2.759 5.52-4.098 8.121.626 7.503 1.813 12.164 2.461 14.26.016.248.043.501.09.76l.119 1.017 7.204 36.87 1.336-.115c-.306-1.873-.657-3.742-.742-5.618-.247-5.435-1.036-10.172-1.806-15.366z"/><path clip-path="url(#b)" fill="#B6B3E0" d="M989.246 337.203h28.412v5.713h-28.412z"/><path opacity=".6" clip-path="url(#b)" fill="#9F8FD4" d="M1190.031 313.819c-2.139-.497-2.147-1.158-4.105-4.573-.803-1.4-1.505-3.711-2.335-5.172-.936-1.648-1.581-3.626-2.292-5.403-.941-2.358-1.418-5.194-2.568-7.532-.497.138-1.017.295-1.541.478 3.039 11.423 5.309 17.201 9.375 21.392.194.199.451.396.751.567.11.19.256.352.466.457 2.692 1.354 2.463 1.333 6.883 2.509l-4.634-2.723z"/><path clip-path="url(#b)" fill="#321C80" d="M1206.557 316.763c1.015 5.793-.253 9.94-.48 13.512.01.091.02.18.029.271.033.323.002.646-.059.986.006.335.021.668.059.996.106.942-.422 1.886-.575 3.36.022.25.051.507.097.781.091.548 1.309 3.228 1.342 3.729.11 1.681.075 1.672.071 2.381.022.581-.011.654.003 1.484.049 3.133-.621 4.324-.695 5.614.042.794.303 1.692 1.01 3.062.34.659 1.418 1.684 3.379 2.174 2.502.5 5.868.055 8.744-1.817.401-.262.849-.451 1.322-.588-3.397-2.111-4.729-5.229-5.453-8.093-.481-1.901 2.027-5.087 2.027-11.571 0-2.726-2.581-7.581-2.027-10.167 1.834-8.56 2.177-10.948 0-13.222l-3.576.113c-3.052 0-6.117 1.863-5.218 6.995z"/><path clip-path="url(#b)" fill-rule="evenodd" clip-rule="evenodd" fill="#321C80" d="M1259.966 290.304c-2.575-.892-5.065-1.233-5.065-1.233l-9.156 17.226c-.195.021-.386.04-.599.07 0 0-9.554.64-20.069 1.902-5.102.612-5.262 5.14-3.855 7.402 1.628 2.62 4.528 3.236 7.338 2.45 0 0 16.337-2.3 20.943-5.685.455-.196.824-.47 1.088-.741 4.066-4.189 6.336-9.967 9.375-21.391z"/><path clip-path="url(#b)" fill="#DFDCFA" d="M1252.204 399.357c-.328-2.67-.688-5.397-.314-8.109.368-2.679.957-5.564.951-8.312-.006-2.499-1.375-4.459-1.751-6.809-.427-2.667.952-5.028.796-7.48-.229-3.565-5.002-3.675-7.8-3.51-1.414.083-2.813.451-4.294.326-1.609-.137-3.082-.832-4.655-1.114-3.369-.604-5.4.592-8.552 1.113-4.647.77-9.598-.218-14.209-.994.458.792 1.263 1.611 2.611 2.366 3.976 2.223 24.938 2.253 33.148 2.176-1.835 12.466 1.56 17.042 1.665 33.976.562.267 1.836.343 3.15.34-.147-1.329-.586-2.663-.746-3.969z"/><path opacity=".6" clip-path="url(#b)" fill="#9F8FD4" d="M1255.693 291.784c.313-.605.888-1.571 1.105-2.36-1.126-.248-1.898-.354-1.898-.354l-9.156 17.226c-.195.021-.386.04-.599.07 0 0-9.554.64-20.069 1.902-2.563.308-3.878 1.604-4.374 3.104 1.474.101 3.388-.591 4.579-.733 2.012-.242 4.03-.479 6.083-.68 3.909-.384 7.39-1.524 11.396-1.525 1.6 0 3.477.289 4.566-1.054.825-1.017.81-2.461 1.751-3.537 1.8-2.06 2.786-3.788 3.897-6.444.807-1.922 1.748-3.734 2.719-5.615z"/><path clip-path="url(#b)" fill="#211355" d="M1330.04 401.639h-55.96v-2.314l2.627-2.701h51.294l2.039 2.701z"/><path opacity=".5" clip-path="url(#b)" fill="#321C80" d="M1335.354 429.827c0 .715-.579 1.295-1.296 1.295h-56.056c-.716 0-1.296-.58-1.296-1.295 0-.717.58-1.298 1.296-1.298h56.056c.717 0 1.296.581 1.296 1.298zM1245.674 425.766c0 .715-.579 1.295-1.296 1.295h-36.914c-.716 0-1.296-.58-1.296-1.295 0-.717.58-1.298 1.296-1.298h36.914c.717 0 1.296.581 1.296 1.298z"/><g clip-path="url(#b)" fill="#211355"><path d="M1279.533 423.968h7.858v5.858h-7.858zM1316.729 423.968h7.858v5.858h-7.858z"/></g><path opacity=".5" clip-path="url(#b)" fill="#321C80" d="M1277.116 409.98c0 .716-.579 1.296-1.296 1.296h-107.025c-.717 0-1.297-.58-1.297-1.296 0-.717.58-1.297 1.297-1.297h107.025c.717.001 1.296.581 1.296 1.297z"/><path clip-path="url(#b)" fill="#321C80" d="M1312.078 386.377h6.311v33.063h-6.311z"/><path clip-path="url(#b)" fill="#211355" d="M1278.796 392.002h4.667v27.438h-4.667z"/><path transform="rotate(-7.987 1322.52657528 405.94962378)" clip-path="url(#b)" fill="#211355" d="M1320.281 392.003h4.305v27.438h-4.305z"/><path clip-path="url(#b)" fill="#211355" d="M1297.83 396.887h14.248v14.247h-14.248z"/><path clip-path="url(#b)" fill="#211355" d="M1301.273 394.969h8.876v2.966h-8.876zM1291.049 413.468c-.238.589-.909.873-1.499.635-.589-.238-.874-.909-.636-1.498l9.422-23.304c.238-.59.909-.874 1.498-.636.59.238.875.909.636 1.499l-9.421 23.304z"/><path clip-path="url(#b)" fill="#321C80" d="M1285.821 387.305l-3.293 1.075c-.603.196-.933.846-.736 1.449l2.515 7.701c.197.604.848.933 1.449.736l.355-.116 2.855 8.747c.094.285.4.439.684.347l1.554-.507c.285-.093.44-.399.348-.683l-2.856-8.748.354-.115c.604-.198.933-.848.735-1.45l-2.515-7.701c-.197-.602-.845-.933-1.449-.735z"/><path clip-path="url(#b)" fill="#211355" d="M1297.855 386.486l-2.244-5.672-3.789 4.78 2.344.346-4.094 27.664 1.345.2 4.094-27.665z"/><path clip-path="url(#b)" fill="#EC614D" d="M1276.361 400.576h51.398v28.07h-51.398z"/><g clip-path="url(#b)"><path fill="#321C80" d="M1326.682 413.474h-49.244c-1.399 0-2.537-1.139-2.537-2.538v-7.562c0-.376.304-.68.68-.68.375 0 .68.304.68.68v7.562c0 .649.528 1.179 1.178 1.179h49.244c.65 0 1.18-.529 1.18-1.179v-7.562c0-.376.304-.68.68-.68.375 0 .68.304.68.68v7.562c-.002 1.399-1.141 2.538-2.541 2.538z"/><path fill="#321C80" d="M1309.428 413.894c0 .247-.2.448-.448.448h-13.839c-.248 0-.448-.201-.448-.448v-2.199c0-.248.2-.449.448-.449h13.839c.248 0 .448.201.448.449v2.199z"/></g><path clip-path="url(#b)" fill="#FF312B" d="M1276.361 424.529h51.398v4.117h-51.398z"/><path opacity=".5" clip-path="url(#b)" fill="#B3110C" d="M1276.361 401.551h51.398v.731h-51.398z"/><path clip-path="url(#b)" fill="#EC614D" d="M1274.08 399.325h55.96v2.362h-55.96z"/><g clip-path="url(#b)"><path opacity=".8" fill="#5140AE" d="M1241.146 427.013h-35.572v-2.314l2.627-2.701h30.906l2.039 2.701z"/><path fill="#211355" d="M1205.574 424.699h35.572v2.361h-35.572z"/></g><g clip-path="url(#b)"><path fill="#FFF" d="M1094.255 331.851c-3.54-5.497-10.461-11.823-17.456-17.847-4.624-3.984-18.498-17.353-18.498-17.353s.853-6.81.231-8.27c-.218-.513-.802-2.741-1.596-3.812-2.596-2.452-4.283-3.936-5.858-2.734-.766.586 1.454 3.794.942 4.203-1.112.892-10.513-.854-11.146.616-.294.688-1.73 4.483-1.117 5.634.423.791 2.473 5.02 5.375 6.459 1.081.536 4.276 1.404 4.519 1.676.146.164 2.487 5.236 3.937 7.672 4.858 10.419 23.121 33.569 30.834 38.369 8.573 5.336 15.289-5.84 9.833-14.613z"/><path opacity=".5" fill="#B6B3E0" d="M1090.304 326.78c-6.384-4.614-19.743-14.456-24.308-19.248-2.298-2.411-7.695-10.881-7.695-10.881s.853-6.81.231-8.27c-.218-.513-.802-2.741-1.596-3.812-2.596-2.452-4.283-3.936-5.858-2.734-.766.586 1.454 3.794.942 4.203-1.112.892-10.513-.854-11.146.616-.294.688-1.73 4.483-1.117 5.634.423.791 2.473 5.02 5.375 6.459 1.081.536 4.276 1.404 4.519 1.676.146.164 2.487 5.236 3.937 7.672 4.858 10.419 23.121 33.569 30.834 38.369 8.573 5.335 15.289-5.841 9.833-14.614-1.048-1.626-2.396-3.327-3.951-5.07z"/><path opacity=".8" fill="#FFF" d="M1051.752 309.528c0-.021-.006-.04-.006-.061l.004-.005-1.636-56.537-.022-.481c-.002-.005 0-.011-.002-.016-.035-.747-.598-1.18-1.354-1.18-.027 0-1.155.017-1.155.017l-15.572.063-.005.006c-.749.03-1.345.642-1.345 1.396 0 .017.005.031.005.048l-.004.004 1.742 58.484c0 .774.627 1.401 1.402 1.401.079 0 .157-.011.232-.023l.004.003 16.492-1.718.016-.021c.681-.096 1.204-.675 1.204-1.38z"/><path fill="#B6B3E0" d="M1053.17 309.378c0-.02-.006-.039-.006-.06l.004-.005-1.688-56.388-.022-.481c-.001-.005 0-.011-.001-.016-.035-.747-.697-1.311-1.453-1.311-.027 0-16.629.211-16.629.211l-.005.006c-.748.03-1.344.642-1.344 1.396 0 .017.004.031.004.048l-.003.004 1.794 58.335c0 .774.627 1.401 1.401 1.401.08 0 .157-.011.233-.023l.003.003 16.491-1.718.017-.021c.68-.097 1.204-.675 1.204-1.381z"/><path opacity=".8" fill="#FFF" d="M1050.229 254.827l-16.321.302s1.576 53.078 1.651 53.238l16.193-1.59-1.523-51.95z"/><ellipse fill="#211747" cx="1042.52" cy="253.129" rx=".316" ry=".524"/><ellipse opacity=".8" fill="#5140AE" cx="1044.357" cy="309.494" rx=".83" ry="1.373"/><path opacity=".8" fill="#5140AE" d="M1047.678 257.922l-10.566.194.26 8.896 10.572-.219c-.102-3.372-.194-6.425-.266-8.871z"/><path fill="#B6B3E0" d="M1048.024 269.492l-10.571.278.281 9.599 10.574-.428c-.096-3.207-.193-6.417-.284-9.449z"/><path fill="#EC614D" d="M1048.393 281.638l-10.578.487.271 9.218 10.59-.443c-.09-2.901-.187-6.051-.283-9.262z"/><path opacity=".8" fill="#5140AE" d="M1048.76 293.603l-10.594.497.318 10.829 10.609-1.042c-.068-1.886-.188-5.632-.333-10.284z"/><path fill="#211355" d="M1150.34 547.131s6.002 22.311 6.251 26.848c.048.833.372 4.504-7.046 4.504h-34.709s-1.492-2.732 2.914-4.504c5.503-2.214 14.723-6.111 22.677-8.446-.53-5.364-3.732-14.077-3.732-14.077l13.645-4.325zM1090.691 546.791s.464 22.65.714 27.188c.047.833.37 4.504-7.046 4.504h-34.708s-1.493-2.732 2.913-4.504c5.503-2.214 14.724-6.111 22.676-8.446-.529-5.364 1.807-14.419 1.807-14.419l13.644-4.323z"/><path fill="#FFF" d="M1126.409 294.135c-1.954-5.257-.087-23.407-.087-23.407l-.7-22.784s-23.968-3.852-25.091-5.146c-1.123-1.293-5.732 8.536-5.286 12.916-.396.731-1.866 5.195-2.4 7.211-.306 1.149.876 1.34 2.351 1.918-.148 4.512-.524 8.199.127 11.075.521 2.294 1.947 2.52 3.435 2.757 2.173.348 5.855.51 7.759 2.101 2.194 1.831 1.652 8.588 1.652 8.588l.152 8.112c-.001-.001 20.044 1.916 18.088-3.341z"/><path opacity=".5" fill="#B6B3E0" d="M1126.425 294.135c-1.735-5.257-.078-23.407-.078-23.407l-.622-22.784s-21.289-3.852-22.286-5.146c-.998-1.293-5.021 5.17-4.625 9.549-.352.732 1.068 3.112.594 5.128-.271 1.149-2.956 2.884-2.04 7.368.911 4.459-.041 7.489.538 10.365.464 2.294 2.636 1.87 3.957 2.108 1.929.348 5.27.546 6.961 2.136 1.948 1.832 1.398 9.911 1.398 9.911l.136 8.112c-.001 0 17.803 1.917 16.067-3.34z"/><path fill="#321C80" d="M1098.701 401.979l11.872 83.608s21.741 60.891 29.458 79.009c5.971-.306 14.84-3.042 14.84-3.042l-18.822-80.957s-.067-38.561-.618-54.671c8.213-25.761-5.961-42.007-5.961-42.007l-30.769 18.06z"/><path fill="#4225AB" d="M1091.555 390.806c-10.203 32.924-13.456 96.327-13.456 96.327s-4.213 54.007-3.273 73.678c.209 4.35 16.623 3.064 16.623 3.064l13.294-71.967s14.03-50.235 19.111-65.534c16.429-9.605 8.06-37.554 8.06-37.554s-32.23-5.399-40.359 1.986z"/><path fill="#FF5343" d="M1126.591 292.749c-.161-.029-2.372 2.096-19.29 1.765-7.812 4.047-19.187 18.93-19.271 30.198-.074 9.848-1.006 64.778 3.525 66.094 4.53 1.315 10.476 5.666 21.469 5.675 16.357.011 21.104-3.777 21.104-3.777s4.018-4.73 3.891-7.836c-.397-9.72-3.39-18.876-1.14-42.805 4.253-45.231-10.128-49.286-10.288-49.314z"/><path fill="#FF312B" d="M1126.591 292.749c-.161-.029-2.372 2.096-19.29 1.765-7.812 4.047-19.187 18.93-19.271 30.198-.074 9.848-1.006 64.778 3.525 66.094 4.53 1.315 10.476 5.666 21.469 5.675 16.357.011 21.104-3.777 21.104-3.777s4.018-4.73 3.891-7.836c-.397-9.72-3.39-18.876-1.14-42.805 4.253-45.231-10.128-49.286-10.288-49.314z"/><path fill="#1F1944" d="M1133.027 252.535c-1.209-16.125-17.539-15.587-18.803-15.672-3.996-.27-7.702.113-7.589-2.491.044-1.005.521-2.398.521-2.398s-11.167 2.851-7.756 10.698c.551 1.268 3.725.961 3.295 4.443-.228 1.846-1.373 3.237 1.449 6.059 1.203 1.203 1.522 3.298 1.83 4.146v2.744h2.359s.869-2.02 1.336-2.53c.57-.622 1.104-.668 1.649-.588.373.056 3.499 0 2.599 4.723-.216 1.128-.592 2.54-.873 3.616-.58 2.215-2.289 1.857-2.289 1.857 2.764 8.248 8.34 12.309 8.34 12.309l7.042-.329c.001 0 7.965-12.254 6.89-26.587z"/><ellipse transform="rotate(-1.146 1044.07845093 226.26265191)" fill="#FF312B" cx="1042.204" cy="226.936" rx="7.916" ry="12.874"/><path fill="#FFF" d="M1045.334 223.136l-1.5-.521-1.661 2.835-1.78-2.762-1.475.583 2.373 3.684-2.217 3.781 1.499.52 1.661-2.834 1.78 2.762 1.476-.583-2.373-3.684z"/><path fill="#8578C5" d="M1107.156 231.974s-11.167 2.851-7.756 10.698c.279.645 1.234.883 2.053 1.418.529-.103 1.044-.286 1.517-.553-3.214-6.922 4.186-11.563 4.186-11.563z"/><path opacity=".5" fill="#FF8787" d="M1096.322 392.002c.837-2.124-1.275-8.873-1.778-11.229-1.743-8.156-.001-7.486 1.682-11.742 1.006-2.544-.22-12.004.33-14.877 4.821.272 4.795-1.39 3.946-2.566-10.121-14.026 2.844-43.654 2.994-50.929l6.174-6.114s-1.871-.023-2.369-.031c-8.797 4.723-19.195 19.987-19.271 30.198-.074 9.848-1.006 64.778 3.525 66.094.353.103 1.398 1.062 1.77 1.196 2.325.407 2.472 1.332 2.997 0z"/><path opacity=".3" fill="#1F1944" d="M1125.065 425.596c-8.292 2.493-12.836-2.728-14.536-1.708-2.643 3.01 3.721 5.886 2.432 10.729-1.708 6.418-4.943 15.161-6.91 21.521-3.482 11.257-5.049 21.378-4.598 33.182.237 6.207.285 12.447.316 18.682l2.973-16.094s14.03-50.235 19.111-65.534c.421-.246.823-.508 1.212-.778z"/><path opacity=".3" fill-rule="evenodd" clip-rule="evenodd" fill="#1F1944" d="M1091.555 390.806c-10.203 32.924-13.456 96.327-13.456 96.327s-.11 1.419-.291 3.87c2.769-2.25 3.264-7.44 3.961-10.296 1.673-6.85 2.612-13.242 2.612-20.305 0-4.967 1.047-8.617 2.174-13.461 2.336-10.04 4.667-16.242 5.051-26.601.307-8.297-.748-14.18 3.023-21.62 1.105-6.541-1.826-3.905-3.074-7.914z"/><path fill-rule="evenodd" clip-rule="evenodd" fill="#321C80" d="M1133.196 393.26c-2.042 1.053-7.766 3.229-20.173 3.221-10.918-.009-16.854-4.296-21.375-5.645.155.104.302.188.432.239l-.005.927c2.047 1.505 3.519 2.095 5.74 3.618 5.405 3.705 18.354 2.595 22.291 2.924 4.379.367 7.177-1.284 10.835-1.284.119 0 2.986.03 3.103 0-.192-.687-.952-2.933-.848-4z"/><g><path fill="#B6B3E0" d="M1025.38 312.198l-1.997-61.176c0-.706-.526-1.285-1.207-1.382l-.016-.019-19.081-2.436-.013.014c-.092-.015-.186-.029-.281-.029-.962 0-1.738.778-1.738 1.738 0 .103.014.204.03.302l2.214 68.809.13 3.561 1.336 1.148 19.675-9.156.005-.006c.548-.191.943-.707.943-1.318 0-.016-.004-.028-.005-.044l.005-.006z"/><ellipse transform="matrix(.9996 -.0265 .0265 .9996 -6.2905 26.9511)" fill="#211747" cx="1014.084" cy="250.901" rx=".35" ry=".732"/><path opacity=".8" fill="#FFF" d="M1004.757 322.727l-2.297-75.522c-.805.152-1.413.857-1.413 1.705 0 .103.014.204.03.302l2.214 68.809.214 4.109.44.234.812.363zM1022.594 253.869c-.016-.004-.029-.013-.045-.016l-.016-.016s-17.669-1.283-18.191-1.324c.005.801 1.916 59.983 1.916 59.983l.167 4.536 17.924-8.34c-.363-11.249-1.503-46.622-1.755-54.823z"/><path opacity=".8" fill="#5140AE" d="M1010.024 296.555l.476 14.407 11.274-5.552-.362-11.035z"/><path fill="#B6B3E0" d="M1009.564 282.639l.373 11.266 11.387-2.179-.335-10.172z"/><path fill="#321C80" d="M1020.483 266.172l-.292-9.146-11.489-.469.316 9.974z"/><path fill="#B6B3E0" d="M1009.127 269.418l.35 10.574 11.425-1.085-.327-9.942z"/></g><g><path fill="#FFF" d="M1071.874 331.607c-5.849-3.215-15.141-5.528-24.35-7.537-6.088-1.328-25.045-6.585-25.045-6.585s-2.86-5.702-4.128-6.711c-.444-.354-1.739-2.102-2.535-3.659-.604-1.186-1.241-2.408-1.638-3.541-.521-1.488-1.965-2.137-2.794-.293-.405.899-.216 2.492.019 4.022.243 1.579.535 3.091.275 3.708-.565 1.343-2.773.675-3.718.664-.814-.01-.885.153-3.116-.297 0 0-.865-.316-1.103-.613-.471-.59-.707-2.898-.707-2.898-.748-.492-2.339.995-3.049 1.586-2.255 1.874 1.839 5.902 1.986 7.532.07.759.627 4.866 1.736 5.601.765.505 4.66 3.305 7.967 3.186 1.23-.045 4.521-.818 4.871-.694.211.077 4.779 3.494 7.265 4.977 9.428 6.991 37.081 18.897 46.342 19.456 10.291.621 10.888-12.68 1.722-17.904z"/><path opacity=".5" fill="#B6B3E0" d="M1051.476 329.848c-5.993-1.395-11.801-3.887-17.655-5.786-6.485-2.104-11.195.586-13.027-5.94-.437-1.553-1.35-1.185-2.218-2.599-1.567-2.549-1.04-5.126-2.757-3.354-1.247 1.287-2.412 1.346-4.066 1.915-2.402.826-4.84-.598-7.262.226.052 3.12.229 5.551 1.909 8.307.345.566 1.175 1.487 1.953 2.508 1.084.407 2.234.687 3.323.647 1.23-.045 4.521-.818 4.871-.694.211.077 4.779 3.494 7.265 4.977 9.428 6.991 37.081 18.897 46.342 19.456 2.378.144 4.231-.462 5.573-1.534.218-4.609-1.385-10.868-3.91-13.353-4.498-4.425-14.576-3.435-20.341-4.776z"/></g><path fill="#FF6D57" d="M1097.479 300.271c-4.961 3.676-9.532 7.39-14.923 14.318-1.877 2.088-2.454 4.169-3.101 4.773-1.316 1.235-3.627 3.84-3.934 4.245-.002.001-1.062 1.976-2.088 2.22-1.879.448-1.777 3.102-1.796 3.054-.962-2.504-4.491-1.178-4.566.24 1.183 13.979-.621 20.212-.521 20.409 1.44 2.847 5.384 2.676 7.062-.13 5.077 2.052 3.891.163 7.321-2.907 1.604-1.438 3.256-1.373 5.104-2.214 1.976-.898 3.108-2.26 4.342-4.134 2.371-3.603 8.2-4.199 10.604-7.621l.967-.913c6.916-6.149 10.379-12.586 13.385-20.478 3.951-10.367-7.114-18.984-17.856-10.862z"/><path fill="#FF8787" d="M1107.301 297.12c-3.558-1.695-5.041-.464-9.822 3.151-4.961 3.676-9.532 7.39-14.923 14.318-1.877 2.088-2.454 4.169-3.101 4.773-1.316 1.235-3.627 3.84-3.934 4.245-.002.001-1.062 1.976-2.088 2.22-1.879.448-1.777 3.102-1.796 3.054-.962-2.504-4.491-1.178-4.566.24.098 1.165.174 2.272.234 3.331 1.108.304 2.23.486 3.273.567 5.712.443 4.419-5.515 7.002-8.279 1.291-1.382 6.074-3.616 7.36-5.015 4.244-4.609 5.989-7.883 10.69-12.139 2.372-2.147 4.593-4.429 7.509-5.644 5.363-2.229 3.737-5.549 4.162-4.822z"/><g><defs><path id="e" d="M1126.591 292.749c-.161-.029-2.372 2.096-19.29 1.765-7.812 4.047-19.187 18.93-19.271 30.198-.074 9.848-1.006 64.778 3.525 66.094 4.53 1.315 10.476 5.666 21.469 5.675 16.357.011 21.104-3.777 21.104-3.777s4.018-4.73 3.891-7.836c-.397-9.72-3.39-18.876-1.14-42.805 4.253-45.231-10.128-49.286-10.288-49.314z"/></defs><clipPath id="f"><use xlink:href="#e" overflow="visible"/></clipPath><path clip-path="url(#f)" fill="#FFF" d="M1136.296 312.16l-8.466-.005s-.117.007-.22.064c-.116.067-.175.202-.175.202l-2.223 4.446c-.098.206-.148.458-.146.721l-.002 35.2c0 .674.29 1.222.645 1.222h10.552c1.735 0 3.312-1.808 4.121-4.725 1.844-3.1 2.658-4.683 2.658-9.271v-14.842c0-7.034-3.024-12.871-6.744-13.012zm-.035 39.405h-9.905v-33.434l.835-1.679.001 32.077c0 .05.002.103.014.226.006.065.014.122.018.128l.016.091c.04.203.111.369.2.5.015.024.031.052.042.062.012.015.025.028.039.042.033.035.067.066.105.091.012.009.024.016.037.024l.055.025c.062.019.138.021.138.021h8.406c.026 0 .07-.003.11-.02 1.355-.192 2.414-2.35 2.414-4.925v-19.488c0-2.602-1.059-4.772-2.421-4.943l-5.756-.002v-1.494h5.719c1.815 0 3.295 2.797 3.295 6.234v20.113c-.004 3.505-1.512 6.351-3.362 6.351zm1.184-6.092c-.156 1.062-.671 1.824-1.27 1.824h-6.844l.908-1.824h7.206zm-6.837-2.446V322.81h5.567c.727 0 1.318 1.121 1.318 2.499v17.719h-6.885zm11.14-3.011c0 2.341-.183 3.51-.846 4.947l.012-19.859c0-4.786-2.058-8.681-4.587-8.681h-6.364c-.355 0-.645.55-.645 1.225v26.117l-.836 1.678V314.6h7.682c3.079 0 5.584 4.744 5.584 10.574v14.842z"/></g><path opacity=".3" fill="#321C80" d="M1049.84 279.539c-.884.683-.939.855-.896 2.018.039 1.033.473 1.25.879 2.12.232.499.217 1.064.344 1.588.272 1.124.902 2.062 1.412 3.088.456.916.571 1.794.723 2.756 1.889-1.927 2.086-6.616-.108-8.472-.739-.625-.974-.904-1.46-1.713-.271-.453-.502-.818-.962-1.075-.026-.124.044-.118.069-.229"/><path fill="#E2E1F3" d="M1053.706 285.64l-.206-.41c-2.791 1.839-2.643 12.638 1.283 11.827 1.739-.36 4.063-12.707-1.077-11.417z"/><path fill="#FFF" d="M1056.795 288.137c-.212-2.612-.305-2.701-1.141-4.412l-.843-1.099c-1.095-.596-2.076-1.932-3.036-2.796-.502-.451-1.247-1.407-1.994-1.188-1.754.517-.062 3.535.561 4.257.631.729 1.475 1.243 2.171 1.928.472.463 1.474 1.316 1.624 2.035.139.659.077.536-.416.867-.871.583-1.004 2.792-.805 3.379 1.086 3.19 3.115.398 3.391 0 .499-.726.573-1.926.488-2.971z"/></g><path clip-path="url(#b)" fill="#1F1944" d="M1024.748 317.219c-1.764 2.756-4.732 8.012-5.617 11.56 1.239.576 2.61 1.243 3.68 1.771.745-2.899 4.293-9.695 6.013-12.099-1.192-.359-2.664-.805-4.076-1.232z"/><circle clip-path="url(#b)" fill="#FFF" stroke="#1F1944" stroke-width="1.1129" stroke-miterlimit="10" cx="1023.435" cy="323.543" r="3.257"/><g clip-path="url(#b)"><circle fill="#1F1944" cx="1023.435" cy="323.543" r=".515"/><path fill="#1F1944" d="M1023.435 323.712c-.064 0-.126-.036-.155-.099l-.983-2.138c-.039-.085-.001-.186.084-.226.085-.039.185-.003.226.084l.983 2.138c.039.085.002.186-.083.226-.025.01-.048.015-.072.015z"/><path fill="#1F1944" d="M1023.435 323.797c-.101 0-.195-.06-.235-.157-.054-.131.008-.279.139-.333l1.546-.637c.131-.054.278.009.333.139.054.131-.009.279-.139.333l-1.547.636c-.033.013-.065.019-.097.019z"/></g><path clip-path="url(#b)" fill="#2C1E5E" d="M1638.859 282.894c-.254 0-.464-.12-.627-.358-.164-.239-.245-.527-.245-.862 0-.336.081-.623.245-.863.163-.238.373-.358.627-.358s.464.12.627.358c.164.24.246.527.246.863 0 .335-.082.623-.246.862-.163.237-.373.358-.627.358zM1643.548 282.894c-.422 0-.802-.095-1.14-.282-.338-.188-.623-.486-.855-.893-.232-.407-.412-.932-.54-1.572s-.19-1.419-.19-2.335v-.793c0-.905.062-1.679.19-2.319.128-.642.309-1.168.545-1.58s.521-.711.856-.899c.334-.188.712-.283 1.134-.283s.801.095 1.139.283c.339.188.625.485.861.893.236.406.416.931.54 1.571.124.642.186 1.419.186 2.335v.793c0 .906-.063 1.679-.191 2.319-.126.642-.309 1.168-.545 1.58s-.521.712-.855.9c-.336.187-.713.282-1.135.282zm0-1.709c.21 0 .399-.052.566-.153s.31-.279.426-.534c.116-.254.205-.597.267-1.029.062-.433.094-.984.094-1.656v-.793c0-.661-.033-1.208-.1-1.641-.064-.433-.156-.778-.271-1.037-.117-.26-.259-.44-.425-.542-.168-.102-.354-.153-.557-.153-.211 0-.4.052-.567.153-.168.102-.309.279-.425.533-.116.255-.206.599-.268 1.03-.062.433-.092.984-.092 1.656v.793c0 .662.03 1.209.092 1.641.062.433.153.778.272 1.038.12.259.262.439.426.541.163.101.351.153.562.153zM1628.272 282.579l2.574-10.505h-1.373l-2.007 8.545-2.181-8.545h-1.418l2.78 10.473zM1635.315 282.718l1.309.026v-10.67h-1.309l-1.526 1.435v1.877l1.526-1.419z"/><path clip-path="url(#b)" fill="#E2E4FF" d="M1607.582 321.856v12.073l28.275 3.115V324.35z"/><g clip-path="url(#b)" fill="#E2E4FF"><path d="M1622.508 344.699l-14.926-1.797v9.498l14.926 2.02zM1625.997 345.119v9.774l9.86 1.334v-9.92z"/></g><ellipse opacity=".8" clip-path="url(#b)" fill="#5140AE" cx="1265.342" cy="441.469" rx="10.142" ry="1.687"/><path clip-path="url(#b)" fill="#211355" d="M1254.268 438.481v2.718c0 1.057 4.156 1.912 9.285 1.912 5.127 0 9.283-.855 9.283-1.912v-2.718h-18.568z"/><ellipse opacity=".8" clip-path="url(#b)" fill="#5140AE" cx="1263.552" cy="438.481" rx="9.284" ry="1.911"/><path clip-path="url(#b)" fill="none" stroke="#FF312B" stroke-width="2" stroke-miterlimit="10" d="M1043.527 281.958l-1.006-48.608"/><path clip-path="url(#b)" fill="#321C80" d="M1543.816 260.888l-19.85-1.202.68-19.664 19.17-1.94zM1544.681 305.741l-19.851-1.202.68-19.663 19.171-1.94z"/><path clip-path="url(#b)" fill="#B6B3E0" d="M1541.253 258.853l-19.851-1.203 1.884-18.303 19.851-1.941z"/><g clip-path="url(#b)"><path fill="#EC614D" d="M1542.574 303.526l-19.851-1.201.679-19.33 19.852-.915z"/></g><path clip-path="url(#b)" fill="#1F1944" d="M1464.865 269.688c1.222 3.221 2.594 7.337 5.23 10.29 1.703 1.907 3.773 3.21 5.04 5.542 2.323 4.276 1.938 8.04.106 12.1-.997 2.207-1.77 2.249-1.818 4.995-.072 4.153 3.637 6.68 3.87 10.718.347 6.009-7.01 11.983-10.77 15.786-3.915 3.96-7.348 4.879-12.682 5.89-3.528-5.074-8.569-10.223-9.104-16.419-.393-4.54.621-8.975.356-13.513-.582-9.982-2.599-20.185 1.265-29.847 2.428-6.069 13.786-10.255 18.934-5.542"/><g clip-path="url(#b)"><path fill="#FFF" d="M1595.93 306.049c6.565-3.215 7.731-5.889 6.316-7.185-6.986 3.046-27.052 15.056-27.841 15.12-2.012.161-.919.122-2.675 2.117-1.644 1.861-5.716 6.978-7.156 9.138-2.212 3.319-12.219 9.31-12.219 9.31s2.71 11.687 3.906 10.896c5.686-3.757 16.165-12.072 18.497-12.278.566-.05 4.455-.896 6.231-1.53 1.768-.629 6.98-3.486 6.98-3.486s3.455-1.944 4.321-3.049c.419-.533 1.526-.843 1.601-3.192.037-1.155-.533-1.894-.463-2.533.15-1.351.794-2.266.846-3.044.145-2.191-.646-1.875-.942-3.151-.224-.967-.226-.466-.22-1.706.006-1.162-.714-2.214-1.297-2.663.001-.001 2.749-1.521 4.115-2.764z"/><path fill="#DFDCFA" d="M1592.292 325.102c.419-.533 1.526-.843 1.601-3.192.023-.753-2.371 3.33-7.287 4.06-2.333.346-4.918 2.342-7.164 3.046-1.694.531-5.256 2.54-7.416 1.299-1.529-.305-2.494-.382-4.239 1.645-2.323 2.698-7.174 4.155-9.034 5.549l-.786 1.528c-.554 1.9.396 2.941 1.321 4.322 5.788-4.108 13.51-10.018 15.472-10.19.566-.05 4.455-.896 6.231-1.53 1.768-.629 6.98-3.486 6.98-3.486s3.455-1.947 4.321-3.051z"/><path fill="#321C80" d="M1556.771 330.824c-.217.1-.436.199-.652.306-10.795 5.308-35.605 18.574-55.128 27.452-10.493-14.591-27.444-39.102-37.983-48.16-11.055-9.205-24.222 2.341-20.064 15.77 4.521 14.601 36.922 48.393 49.689 56.213 3.216 1.971 6.181 2.291 8.688 1.58 1.085-.072 2.208-.243 3.364-.544 11.975-3.11 46.557-29.925 58.158-42.171l-6.072-10.446z"/><path opacity=".3" fill="#1F1944" d="M1562.844 341.27l-2.766-4.757c-2.392 1.831-4.889 3.568-7.324 5.29-7.725 5.461-14.416 11.076-22.393 15.426-8.654 4.719-16.189 11.212-24.502 16.416-12.754 7.986-29.903-18.684-37.306-26.646h.532c-.041-.326-.775-.197-.078-.932-3.906-.423-4.991-2.041-7.489-5.26-3.044.817-5.381 2.203-6.982 4.126 11.896 15.062 29.473 32.19 38.097 37.472 3.216 1.971 6.181 2.291 8.688 1.58 1.085-.072 2.208-.243 3.364-.544 11.975-3.111 46.557-29.925 58.159-42.171z"/><path opacity=".5" fill="#DFDCFA" d="M1573.458 315.704c-.696.056-.656-3.459-1.065-3.268-.237.292-.514.652-.921 1.126-1.484 1.724-3.34 8.4-3.34 8.4 2.713 5.834 8.142 2.818 11.388-.866 2.837-3.22.92-5.788 1.15-7.704.648-.833 4.039-4.741 4.35-5.293-.952.489-2.095 1.209-2.896 1.66-6.696 3.772-8.072 5.898-8.666 5.945z"/><path opacity=".7" fill="none" stroke="#574AAF" stroke-width="1.9418" stroke-miterlimit="10" d="M1543.816 338.414c3.184 5.808 6.104 10.912 8.291 12.842"/><path fill="#FFF" d="M1583.302 301.392c-1.878.774-7.96 7.866-9.415 8.889-2.051 1.442-2.578 4.243-3.938 5.821-1.484 1.724-5.375 9.138-5.375 9.138 2.712 5.834 12.18 2.107 14.067-3.218.932-2.626.456-6.406-.216-8.594-.114-.372.223-.74.48-1.071.647-.832 2.455-3.699 3.239-4.412 2.119-1.924 2.847-6.857 1.158-6.553z"/></g><path clip-path="url(#b)" fill="#B6B3E0" d="M1461.5 306.838c3.985 4.203 23.658 21.123 22.77 38.756-.697 13.849-2.572 11.2-3.815 23.6-2.046 20.396 4.736 81.856 4.736 81.856v95.741l-33.686.34-49.06 2.26s-14.675-44.079 10.295-120.381c2.105-6.436 8.465-17.429-1.6-50.952-10.031-33.415-8.015-62.201-8.015-62.201s.32-6.638 2.039-7.588c15.727-8.693 51.516-6.516 56.336-1.431z"/><path clip-path="url(#b)" fill="#FFF" d="M1434.305 276.187s-.895 16.528.689 21.728c3.443 11.294 20.863 16.75 20.863 16.75l1.186-28.668c-1.803-.042-17.505-5.893-22.738-9.81z"/><path clip-path="url(#b)" fill="#321C80" d="M1534.842 240.65l-4.697.503v-5.378l4.697-.764zM1534.958 285.325l-4.697.502v-5.378l4.697-.764z"/><circle clip-path="url(#b)" fill="#FFF" cx="1530.644" cy="483.641" r="16.429"/><g clip-path="url(#b)" fill="#1F1944"><path d="M1525.822 489.486c-.697 0-1.332-.112-1.906-.337-.572-.224-1.061-.548-1.465-.972s-.715-.944-.934-1.562c-.221-.617-.33-1.32-.33-2.107v-.778c0-.777.113-1.475.336-2.093.225-.618.539-1.139.943-1.562.402-.424.891-.75 1.465-.979.572-.229 1.203-.344 1.891-.344.697 0 1.334.112 1.906.337.574.224 1.062.551 1.465.979.404.428.717.949.936 1.562.219.613.328 1.313.328 2.101v.778c0 .777-.111 1.475-.336 2.093s-.539 1.142-.941 1.57c-.404.428-.893.755-1.465.979-.574.223-1.205.335-1.893.335zm0-1.674c.818 0 1.48-.276 1.988-.83.51-.553.764-1.378.764-2.474v-.778c0-.538-.068-1.014-.203-1.428-.133-.413-.322-.757-.566-1.031-.246-.274-.537-.483-.875-.628-.34-.145-.709-.217-1.107-.217-.826 0-1.492.276-1.996.83-.502.553-.754 1.378-.754 2.474v.778c0 1.086.256 1.908.77 2.467.512.557 1.173.837 1.979.837zM1535.287 484.881l-1.242 1.525v2.945h-1.793v-10.466h1.793v5.054l3.947-5.054h2.184l-3.664 4.635 3.963 5.831h-2.242l-2.946-4.47z"/></g><path clip-path="url(#b)" fill="#DFDCFA" d="M1418.504 522.902c-4.683-31.899-8.344-22.833-8.924-43.976-.215-7.833 2.205-16.864 4.053-24.488 1.846-7.61 5.71-16.396 9.388-23.316 3.827-7.202.718-5.971.806-15.419.073-7.809-2.196-15.243-3.884-23.866-3.366-17.182-6.909-36.406-6.932-54.719-.01-7.569 2.663-12.698 5.72-19.272 2.848-6.123 8.074-11.497 10.751-18.956-10.118.392-19.87 2.966-24.316 9.379-1.119 1.614-2.039 7.588-2.039 7.588s-2.017 28.786 8.015 62.201c10.064 33.523 3.705 44.517 1.6 50.952-24.97 76.302-10.295 120.381-10.295 120.381h11.376c6.119-6.512 5.82-18.741 4.681-26.489z"/><path clip-path="url(#b)" fill="#B6B3E0" d="M1434.994 297.914c.509 1.666 1.326 3.202 2.342 4.615l.829.221c1.083-3.368 2.461-6.041 3.511-7.594 5.047-7.463 8.118 1.212 11.82 2.616.469.178 1.902.698 3.021.955l.526-12.731c-1.803-.041-17.505-5.892-22.738-9.81 0 .001-.895 16.529.689 21.728z"/><path clip-path="url(#b)" fill="#FFF" d="M1471.665 249.64c-.131 2.429-1.224 8.502-1.224 8.502s.995 4.06 1.112 6.128c.368 6.471-1.458 15.708-8.978 26.347-1.045 1.479-7.33.09-9.08-.372-9.434-2.491-22.166-12.559-22.166-12.559s-.273-31.138.729-33.371c1.002-2.232 7.383-11.643 9.137-11.962 1.756-.319 6.859-2.871 11.963-2.871 5.104 0-.797-4.466 6.062 0s12.122 10.208 12.122 10.208l-.464 2.34c0-.001.88 5.883.787 7.61z"/><path opacity=".8" clip-path="url(#b)" fill="#DFDCFA" d="M1460.344 233.333c-2.127-2.329-6.652-3.287-11.115-3.415-3.605.744-6.735 2.198-8.033 2.435-1.754.319-8.135 9.729-9.137 11.962-1.002 2.233-.729 33.371-.729 33.371s3.512 2.776 8.211 5.773c-.621-3.277-1.519-9.996.213-15.461 1.495-4.719 1.922-6.791 3.939-8.755-.116.49.43 2.958.355 3.413 13.076-6.5 20.442-24.782 16.296-29.323z"/><path clip-path="url(#b)" fill="#FF312B" d="M1476.475 257.503c.002-.232-.078-1.059-.994-1.103-.685-.032-1.531.021-2.169.05-.46-.139-.954-.225-1.475-.239l-.953-.027c-.093-.003-.186-.006-.279-.006-1.448 0-3.332.453-4.458 1.296.003-.007.006-.017.008-.023-1.156 1.171-4.45 1.341-5.631.104 0 0 .004.019.007.029-1.249-.929-3.52-1.428-5.239-1.428-.094 0-.186.002-.274.004l-1.096.024c-.272.006-.536.031-.796.064.023-.01.039-.018.039-.018-.475.063-1.676.151-2.88.198-.255.01-.767.028-.918.113-.003.003-.006.005-.009.008-11.455.87-14.902 3.071-15.176 3.166 0 0-1.38 2.254-.239 2.58 5.423-1.029 12.965-1.59 14.964-1.726.049 1.082.168 3.092.393 3.972.755 2.96 2.702 4.59 5.485 4.59h.001c1.692 0 3.136-.598 3.678-.855 1.807-.857 2.81-3.451 3.047-5.186v.002c.289-1.521.623-2.459 1.327-2.821.881-.456 2.188-.005 2.256 2.215.05 1.653.956 4.811 2.745 5.786.486.265 1.781.882 3.299.882 1.431 0 3.959-.596 4.837-4.591.229-1.043.323-3.697.347-4.494.021.055.033.084.033.084s.117-2.194.12-2.65zm-18.482 9.73c-.476.226-1.738.749-3.208.749-2.291 0-3.771-1.255-4.402-3.73-.229-.899-.357-3.509-.389-4.388.071-1.371 1.807-2.482 3.951-2.529l1.346-.027c2.652 0 5.019 1.112 5.042 1.784l.114 3.18c.046 1.315-.85 4.2-2.454 4.961zm16.889-2.921c-.539 2.45-1.8 3.693-3.745 3.693-1.266 0-2.361-.522-2.774-.747-1.376-.752-2.188-3.7-2.153-4.991l.09-3.179c.02-.752 2.153-1.759 4.306-1.759.079 0 .158.001.241.005l.959.027c1.871.055 3.334 1.148 3.401 2.499-.023.932-.129 3.546-.325 4.452z"/><path clip-path="url(#b)" fill="#1F1944" d="M1473.127 232.606c-2.295-10.586-17.631-17.386-27.887-14.929-24.279-3.711-35.592 11.311-36.271 21.772-.68 10.461 1.204 11.335-2.874 14.44-4.077 3.105-5.799 4.585-7.075 11.443-1.889 10.15 3.433 11.779 1.56 19.255s-4.095 2.187-10.89 18.479c-6.797 16.292 11.318 35.227 11.318 35.227s3.857-17.048 10.653-20.692-6.534-10.346-3.738-10.346c6.003-4.216 14.625 3.82 22.211 2.398 5.251-.984 11.633-10.309 8.031-25.529-5.382-22.749 5.423-27.577 10.544-38.797.014 2.177-2.624 10.266-4.315 13.962 11.854-4.479 15.821-13.965 16.933-23.829 8.564 4.455 10.965 13.854 10.965 13.854s3.584-6.899.835-16.708z"/><circle clip-path="url(#b)" fill="#FFF" cx="1611.144" cy="419.44" r="2.473"/><path clip-path="url(#b)" fill="none" stroke="#FFF" stroke-linecap="round" stroke-linejoin="round" stroke-miterlimit="10" d="M1653.926 452.859l-107.438 28.483"/><path clip-path="url(#b)" fill="none" stroke="#321C80" stroke-miterlimit="10" d="M1525.17 246.725c1.01-1.04 1.986-1.66 3.524-2.185.904-.309 2.317-.461 3.051.251 1.036 1.009-.081 3.736-1.339 2.886-.743-.501-.188-1.458.279-1.946.592-.62 1.804-1.164 2.604-1.382 1.112-.302 2.015-.244 2.397.852.442 1.263-1.024 1.888-.873.887.12-.784 2.109-1.702 2.75-1.854 1.101-.264 2.743-.325 3.688-.16M1525.414 251.688c.548-.398 2.044-1.643 2.85-1.023.303.232.441.858.097 1.13-.322.252-.737-.034-.523-.406.265-.464 1.465-.4 1.966-.355.413.039.473.137.818.235.398.115.697-.237 1.006-.388.447-.222 1.151-.236 1.574.057.16.111.217.289.408.37.238.099.552.01.789-.062.522-.156.861-.436 1.416-.498.459-.052 1.285-.253 1.338.502.039.567-.858.644-1.085.245-.091-.768 1.169-1.163 1.945-1.399.908-.275 2.448-.025 2.997.163"/><g clip-path="url(#b)" fill="#FFF"><path d="M1527.109 288.555v2.09l12.438-.221v-2.089zM1527.109 294.898l6.219-.11v-2.089l-6.219.11zM1536.655 294.729l2.892-.051v-2.089l-2.892.051z"/></g><path opacity=".8" clip-path="url(#b)" fill="#5140AE" d="M1480.454 369.193c1.194-11.923 2.974-9.94 3.729-22.082-1.449 3.833-3.157 7.793-5.027 10.997-2.624 4.497-7.509 7.562-8.47 12.619-2.267 11.935 6.295 25.96 2.125 36.763-4.391 11.371-5.838 18.878-1.422 30.836 4.379 11.863 6.324 23.884 4.495 36.379-1.693 11.563-3.473 22.454-2.901 34.396.495 10.319.036 20.604.991 30.898.212 2.279.307 4.583.335 6.901l10.882-.109V451.05c-.001 0-6.783-61.461-4.737-81.857z"/><path opacity=".5" clip-path="url(#b)" fill="none" stroke="#FBF7E5" stroke-width="2" stroke-miterlimit="10" d="M1455.857 314.664c5.958 13.414 19.316 17.968 9.37 54.905-2.479 9.21 1.83 26.518 1.82 36.152-.012 12.286-2.933 20.129-3.054 32.466-.156 16.012 5.947 32.364 2.269 48.2-4.821 20.753-3.933 33.661-3.935 43.936-.001 10.356-4.903 12.23 1.099 21.261"/><path clip-path="url(#b)" fill="#FFF" d="M1451.505 412.722s11.376 5.306 15.478 5.524c2.671.143 8.771-.771 11.282-.292 2.69.51 3.297.451 4.496 2.149.719 1.018 1.599 4.596 1.599 4.596s2.396 3.322 5.281 5.458c3.662 2.715 7.913 4.522 7.913 6.219 0 5.182-5.436 2.175-7.537 3.674-.98.698-4.331 4.218-8.29 3.298-1.408-.327-6.268-2.146-6.268-2.146s-4.41-1.903-5.895-3.14c-1.493-1.242-4.737-5.731-5.08-6.208-1.405-1.959-14.274-6.883-20.586-9.952-1.328-.646 7.607-9.18 7.607-9.18z"/><path clip-path="url(#b)" fill="#DFDCFA" d="M1489.938 439.231c-1.755-.831-3.667-1.469-5.542-2.018-4.33-1.267-10.119-1.356-13.855-4.19-1.656-1.255-2.445-1.597-3.729-3.08-1.459-1.685-2.626-2.197-4.826-2.869-1.971-.601-7.525-3.557-9.354-4.359-2.014-.886-.605.221-2.025-1.674h.386c-.026-.129-.276-.434-.232-.757-.749 1.21-2.354 2.124-3.507 3.167 6.685 2.979 16.045 6.747 17.23 8.402.343.477 3.587 4.966 5.08 6.208 1.484 1.236 5.895 3.14 5.895 3.14s4.859 1.819 6.268 2.146c3.959.92 7.31-2.6 8.29-3.298.255-.181.559-.296.895-.367-.316-.144-.64-.293-.974-.451z"/><ellipse transform="matrix(.9637 -.2672 .2672 .9637 -33.9434 400.8494)" clip-path="url(#b)" fill="#FBF7E5" cx="1456.18" cy="325.169" rx="1.4" ry="1.866"/><ellipse transform="matrix(.9995 .0324 -.0324 .9995 12.1769 -47.3091)" clip-path="url(#b)" fill="#FBF7E5" cx="1463.9" cy="351.57" rx="1.4" ry="1.866"/><ellipse transform="rotate(1.812 1460.28738866 378.4503522)" clip-path="url(#b)" fill="#FBF7E5" cx="1460.678" cy="377.812" rx="1.4" ry="1.866"/><ellipse transform="rotate(1.812 1463.32698465 407.79241457)" clip-path="url(#b)" fill="#FBF7E5" cx="1463.729" cy="407.155" rx="1.4" ry="1.866"/><ellipse transform="rotate(1.812 1459.9280267 436.97931423)" clip-path="url(#b)" fill="#FBF7E5" cx="1460.344" cy="436.349" rx="1.4" ry="1.866"/><ellipse transform="rotate(-12.709 1461.87950924 460.5804088)" clip-path="url(#b)" fill="#FBF7E5" cx="1462.038" cy="460.768" rx="1.4" ry="1.866"/><ellipse transform="rotate(11.333 1462.25587545 483.40789424)" clip-path="url(#b)" fill="#FBF7E5" cx="1462.329" cy="483.64" rx="1.4" ry="1.867"/><ellipse transform="rotate(11.333 1458.874273 505.05678043)" clip-path="url(#b)" fill="#FBF7E5" cx="1458.944" cy="505.291" rx="1.4" ry="1.866"/><g opacity=".8" clip-path="url(#b)" fill="#5140AE"><path opacity=".4" d="M1463.729 355.199c.1.055.191.126.276.202.021-.067.048-.135.065-.202h-.341zM1465.472 356.7c-1.467 4.675-9.663 10.906-20.231 9.149-5.105-.849-6.846-1.75-11.187-3.226-3.131-1.064-7.094-3.631-8.093-1.744-.799 1.509 7.918 5.804 11.223 8.272 2.775 2.074 4.116 3.164 7.341 4.439 1.516.601 10.015 3.845 14.772-2.203 2.828-3.594 7.641-13.387 6.175-14.687z"/></g><path clip-path="url(#b)" fill="#574AAF" d="M1435.917 337.65l1.104 4.641c6.342-1.75 19.502-3.059 22.557-2.809l-.567-4.729c-5.849-.962-19.052 1.51-23.094 2.897z"/><g clip-path="url(#b)" fill="#8578C5"><path d="M1420.893 234.872c-.734 1.625-2.834 10.861-2.304 14.685.843-5.447 2.394-10 4.174-14.043 1.07-2.432 5.991-10.301 5.991-10.301-1.082 1.144-3.721.498-7.861 9.659zM1402.673 297.009c-.837 1.462-1.234 5.637-.94 7.548.353-5.816 5.64-12.172 5.64-12.172-.602.572-2.152.177-4.7 4.624zM1427.022 234.736c-.731 1.419-3.643 9.726-4.002 13.325 1.478-4.943 3.224-8.979 5.019-12.514 1.078-2.128 5.451-8.841 5.451-8.841-.857.937-2.336.031-6.468 8.03zM1445.24 217.678c1.039-.128 1.547-.215 1.737-.318-.591.08-1.172.182-1.737.318z"/><path d="M1408.969 239.45c-.68 10.461 1.204 11.335-2.874 14.44-4.077 3.105-5.799 4.585-7.075 11.443-1.889 10.15 3.433 11.779 1.56 19.255s-4.095 2.187-10.89 18.479c-6.797 16.292 11.318 35.227 11.318 35.227s.578-2.548 1.676-5.88c-3.013-4.348-9.945-14.069-5.351-28.906-.856.139-2.266 1.188-3.795 2.944 0-4.069 3.651-8.91 4.305-9.91 2.521-3.859 7.398-7.073 7.398-7.073 1.792-1.816 2.442-3.751 3.906-4.236-.15 2.276-.124 3.188.415 5.33-.583-5.349 6.726-20.803 9.396-22.904-.528.088-3.455 2.606-4.72 4.363-1.013 1.406-3.201 4.165-4.817 10.394-1.684-.481-1.825-4.709-1.609-8.688.564-4.146 1.48-8.255 3.341-11.797-1.685 1.062-2.653 2.953-3.874 4.537.413-6.154 2.253-11.344 9.077-13.005.562-10.755-.183-21.928 7.952-29.887 4.742-4.641 14.64-5.125 20.932-5.898-24.279-3.711-35.592 11.31-36.271 21.772z"/></g><path clip-path="url(#b)" fill="#574AAF" d="M1456.511 414.264c-10.368-6.783-35.475-25.113-53.256-34.456 7.427-16.956 20.256-44.84 22.755-58.936 2.358-14.628-14.783-20.239-24.504-9.509-9.544 10.536-20.287 50.414-22.453 69.402-1.11 2.709-1.174 6.006.07 9.279.489 1.814 1.349 3.229 2.449 4.285.477.611 1.002 1.212 1.588 1.795 9.039 8.98 50.951 25.562 67.892 29.419l6.072-10.862c-.202-.14-.405-.281-.613-.417z"/><path clip-path="url(#b)" fill="#321C80" d="M1411.283 305.966s-1.887.711-2.498 1.063c-5.493 3.165-9.709 13.78-11.872 19.416-2.694 7.02-10.646 38.09-12.078 45.898-.713 3.885-5.712 17.701 2.977 21.909 7.825 3.79 15.367 10.485 23.209 14.431 15.558 7.825 26.961 12.411 40.031 16.86l6.072-10.862c-.202-.141-.405-.281-.613-.418-10.368-6.783-35.475-25.113-53.256-34.456 7.427-16.956 20.256-44.84 22.755-58.936 1.668-10.342-6.413-16.167-14.727-14.905z"/><path clip-path="url(#b)" fill="none" stroke="#574AAF" stroke-width="2" stroke-miterlimit="10" d="M1445.635 406.862c-4.226 5.355-7.5 11.763-8.451 14.613"/><ellipse transform="rotate(-58.695 1443.94053383 418.64552019)" clip-path="url(#b)" fill="#574AAF" cx="1443.971" cy="418.625" rx="1.244" ry="1.658"/><path clip-path="url(#b)" fill="#FF312B" d="M1441.475 336.254c.719-.146 1.471-.291 2.246-.431l-1.078-5.744c-.209-1.117-1.286-1.854-2.404-1.645-1.117.211-1.854 1.287-1.645 2.405l.017.085c-.631.272-1.015.95-.882 1.654l1.761 9.376c.152.815.938 1.352 1.753 1.198.814-.152 1.352-.938 1.199-1.752l-.967-5.146z"/><path clip-path="url(#b)" fill="none" stroke="#FFF" stroke-linecap="round" stroke-linejoin="round" stroke-miterlimit="10" d="M1544.199 399.634l64.479 18.768"/><circle clip-path="url(#b)" fill="#FFF" cx="1544.308" cy="398.144" r="16.429"/><g clip-path="url(#b)"><path fill="#1F1944" d="M1544.418 403.908l-6.006-6.583 2.009-1.832 3.778 4.141 6.246-8.44 2.186 1.617z"/></g><path clip-path="url(#b)" fill="#8578C5" d="M1605.854 207.69s2.923 12.43 2.997 12.71c.874 3.304 3.877 5.742 7.456 5.742.244 0 .486-.015.724-.037l.041.037 67.913-1.999c4.164 0 6.007-1.657 7.44-6.03l-.401 1.481 4.572-15.522-89.529 4.395-1.213-.777z"/><g clip-path="url(#b)" fill="#1F1944"><path d="M1669.342 216.284c-.253-1.325-1.535-2.191-2.854-1.938l-.089.018c-1.323.254-2.191 1.532-1.938 2.855.225 1.169 1.247 1.981 2.393 1.981.153 0 .308-.014.463-.044l.089-.017c1.323-.252 2.19-1.532 1.936-2.855zM1659.436 214.564l-20.57.844c-1.346.056-2.393 1.191-2.337 2.538.054 1.312 1.135 2.341 2.437 2.341.033 0 .066-.001.101-.003l20.57-.844c1.347-.056 2.394-1.192 2.339-2.538-.057-1.345-1.195-2.411-2.54-2.338z"/></g></svg>