<?xml version="1.0" encoding="utf-8"?>
<!-- Generator: Adobe Illustrator 25.2.0, SVG Export Plug-In . SVG Version: 6.00 Build 0)  -->
<svg version="1.1" id="Layer_1" xmlns="http://www.w3.org/2000/svg" xmlns:xlink="http://www.w3.org/1999/xlink" x="0px" y="0px"
	 viewBox="0 0 116 27.2" style="enable-background:new 0 0 116 27.2;" xml:space="preserve">
<style type="text/css">
	.st0{fill:#FFFFFF;}
</style>
<g>
	<g>
		<g>
			<path class="st0" d="M32.5,24.9V2.6h10.6c2.6,0,4.6,0.6,6,1.8s2.1,2.9,2.1,4.9s-0.7,3.7-2.1,4.9c-1.4,1.2-3.4,1.8-5.9,1.8h-4.7
				v8.7h-6C32.5,24.7,32.5,24.9,32.5,24.9z M38.4,11.8h3.9c1.1,0,2-0.2,2.5-0.6c0.5-0.4,0.8-1,0.8-1.7c0-0.8-0.3-1.4-0.8-1.8
				C44.4,7.2,43.5,7,42.3,7h-3.9C38.4,7,38.4,11.8,38.4,11.8z"/>
			<path class="st0" d="M59.4,25.1c-3.2,0-5.7-0.6-7.5-1.9l1.4-3.9c0.9,0.6,1.8,1,2.9,1.4c1.1,0.3,2.2,0.5,3.2,0.5
				c0.6,0,1.1-0.1,1.5-0.3s0.5-0.4,0.5-0.8c0-0.3-0.1-0.5-0.4-0.7c-0.3-0.2-0.8-0.3-1.5-0.5L57,18.4c-1.6-0.3-2.8-0.9-3.5-1.6
				s-1.1-1.7-1.1-3c0-1,0.3-1.9,0.9-2.7c0.6-0.8,1.4-1.4,2.5-1.9c1.1-0.4,2.3-0.7,3.7-0.7c1.2,0,2.3,0.2,3.4,0.5S65,9.8,66,10.4
				l-1.5,3.8c-0.8-0.5-1.7-1-2.6-1.3c-0.9-0.3-1.7-0.4-2.5-0.4c-0.6,0-1.1,0.1-1.5,0.3s-0.5,0.5-0.5,0.9c0,0.2,0.1,0.4,0.3,0.5
				s0.6,0.3,1.2,0.4l2.7,0.6c1.7,0.4,2.9,1,3.6,1.7c0.7,0.8,1.1,1.8,1.1,3.1c0,1.6-0.6,2.8-1.9,3.7C63.3,24.7,61.6,25.1,59.4,25.1z"
				/>
			<path class="st0" d="M68.7,1.2h5.9v5.1h-5.9V1.2z M68.9,24.9V9h5.7v15.9H68.9z"/>
			<path class="st0" d="M77.9,24.9V13.6c0-0.8,0-1.5,0-2.3S77.8,9.8,77.7,9H83l0.4,3L83,11.8c0.6-1,1.4-1.9,2.3-2.4
				c1-0.6,2-0.9,3.3-0.9c3.7,0,5.6,2.3,5.6,6.9v9.5h-5.7v-9.2c0-1-0.2-1.7-0.5-2.1S87.1,13,86.4,13c-0.9,0-1.5,0.3-2.1,0.9
				c-0.5,0.6-0.8,1.3-0.8,2.3v8.9h-5.6V24.9z"/>
			<path class="st0" d="M111.9,23.3c-0.8,0.6-1.8,1.1-2.9,1.4s-2.3,0.5-3.4,0.5c-1.8,0-3.4-0.3-4.7-1c-1.3-0.7-2.3-1.6-3.1-2.9
				c-0.7-1.2-1.1-2.7-1.1-4.4c0-1.6,0.3-3.1,1-4.3c0.7-1.3,1.6-2.2,2.8-2.9c1.2-0.7,2.6-1.1,4.1-1.1s2.8,0.3,4,1
				c1.1,0.7,2,1.6,2.6,2.9c0.6,1.2,0.9,2.7,0.9,4.4v0.8h-10.4l0.1-2.6h6.9l-1.4,0.9c0-1.1-0.2-2-0.6-2.5c-0.4-0.6-1-0.8-1.9-0.8
				s-1.6,0.3-2.1,1s-0.7,1.7-0.7,3c0,1.6,0.3,2.8,0.9,3.5s1.6,1,2.9,1c0.8,0,1.6-0.1,2.4-0.4s1.5-0.6,2.1-1.1L111.9,23.3z"/>
		</g>
	</g>
	<g>
		<g>
			<g>
				<path class="st0" d="M4.8,17c0-4.6,3-8.4,7.7-9.6c5.1-1.4,10.4,1.2,12.4,5.9c0.5,1.2,0.8,2.4,0.7,3.7c0,2-1.7,3.6-3.8,3.7
					c-2.1,0-3.9-1.5-3.9-3.6c0-1.2-0.6-2-1.7-2.5c-1-0.4-2.2-0.1-3,0.7c-0.8,0.9-0.7,2-0.5,3c0.7,3.3,2.7,5.4,5.9,6.5
					c0.2,0.1,0.3,0.1,0.5,0.2c0.4,0.1,0.5,0.4,0.5,0.8c-0.1,0.4-0.4,0.5-0.8,0.4c-4.1-1-7-4.4-7.4-8.3c-0.2-1.8,0.2-3.2,1.9-4.2
					c2.6-1.5,5.8,0.2,5.9,3.2c0.1,1.4,1.3,2.5,2.7,2.5c1.5,0,2.6-1.2,2.6-2.6c0-3.8-2.7-7.2-6.7-8.3c-4.4-1.2-9.1,0.9-10.9,5
					c-1.1,2.5-0.8,5,0,7.5c0.1,0.4,0.5,1-0.2,1.3s-0.8-0.4-1-0.9C5.1,20,4.9,18.5,4.8,17z"/>
				<path class="st0" d="M8.1,17.5c-0.1-4,2.7-7,6.5-7.4c3.7-0.4,7.1,2.2,7.7,5.7c0.1,0.4,0.1,0.7,0.1,1.1s-0.2,0.6-0.5,0.7
					c-0.4,0.1-0.6-0.2-0.7-0.6s0-0.8-0.1-1.2c-0.6-2.6-3.1-4.5-5.9-4.4c-2.8,0.1-5.3,2-5.7,4.6c-0.4,2.8,0.4,5.3,2.1,7.5
					c0.4,0.5,0.8,0.9,1.2,1.4c0.3,0.3,0.4,0.7,0.1,1c-0.3,0.3-0.7,0.2-1-0.1C9.5,23.4,8.1,20.6,8.1,17.5z"/>
				<path class="st0" d="M16.3,4c3.5,0.1,7.2,1.7,10.1,5.4c0.3,0.3,0.4,0.7,0.1,1c-0.3,0.4-0.7,0.3-1.1-0.3c-1.5-2-3.4-3.4-5.7-4.2
					C14.4,4.1,8.5,5.8,5.1,10.2c-0.3,0.4-0.5,0.7-1,0.3s-0.2-0.7,0-1.1C6.6,6,10.7,4,16.3,4z"/>
				<path class="st0" d="M15.6,0.9c2.3,0,4.8,0.6,7.1,1.8c0.4,0.2,0.7,0.5,0.5,1c-0.3,0.5-0.7,0.3-1.1,0.1c-4.6-2.3-9.1-2.3-13.7,0
					C8,4,7.6,4.1,7.4,3.7c-0.2-0.5,0.1-0.8,0.5-1C10.2,1.5,12.7,0.9,15.6,0.9z"/>
				<path class="st0" d="M21.7,23.7c-3.9,0-6.8-2.7-7.1-6.3c0-0.4,0-0.9,0.5-1c0.6-0.1,0.7,0.4,0.7,0.8c0.3,3.4,2.9,5.5,6.3,5.1
					c0.2,0,0.4,0,0.7-0.1c0.4,0,0.7,0.1,0.7,0.5c0.1,0.4-0.2,0.7-0.6,0.7C22.4,23.6,21.9,23.6,21.7,23.7z"/>
			</g>
		</g>
	</g>
</g>
</svg>
